
<svg xmlns="http://www.w3.org/2000/svg" xmlns:xlink="http://www.w3.org/1999/xlink" xml:space="preserve" version="1.1" style="shape-rendering:geometricPrecision;text-rendering:geometricPrecision;image-rendering:optimizeQuality;" viewBox="0 0 419.26 486.4" x="0px" y="0px" fill-rule="evenodd" clip-rule="evenodd">
<defs>
<style type="text/css">.fil0 {fill:#0489af}</style>
</defs>
<g>
<path class="fil0" d="M364.13 210.54l0 117.22c0,33.75 -27.61,61.36 -61.36,61.36l-48.21 0 0 -127.1c0,-6.93 -5.67,-12.6 -12.6,-12.6l-64.65 0c-6.93,0 -12.6,5.67 -12.6,12.6l0 127.1 -48.21 0c-33.75,0 -61.36,-27.61 -61.36,-61.36l0 -117.22 154.5 -123.07 154.49 123.07z"/>
<path class="fil0" d="M209.64 59.44l-171.91 136.95c-10.03,7.99 -24.7,6.3 -32.67,-3.73 -7.98,-10.04 -6.3,-24.68 3.72,-32.67l50.08 -39.89 0 -55.4 52.6 -30.95 0 44.46 98.18 -78.21 200.85 159.99c10.02,7.99 11.7,22.63 3.73,32.67 -7.98,10.03 -22.64,11.72 -32.67,3.73l-171.91 -136.95z"/>
</g>
</svg>