<?xml version="1.0" encoding="utf-8"?>
<!-- Generator: Adobe Illustrator 24.0.2, SVG Export Plug-In . SVG Version: 6.00 Build 0)  -->
<svg version="1.1" id="Capa_1" xmlns="http://www.w3.org/2000/svg" xmlns:xlink="http://www.w3.org/1999/xlink" x="0px" y="0px"
	 viewBox="0 0 61 61" style="enable-background:new 0 0 61 61;" xml:space="preserve">
<style type="text/css">
	.st0{display:none;}
</style>
<path class="st0" d="M86.05,81.3l-17.9-17.9c9-11.7,8.1-28.6-2.7-39.3c-5.9-5.9-13.5-8.8-21.2-8.8s-15.3,2.9-21.2,8.8
	c-11.7,11.7-11.7,30.7,0,42.4c5.9,5.9,13.5,8.8,21.2,8.8c6.4,0,12.8-2,18.1-6.1l18,17.8c0.8,0.8,1.8,1.2,2.9,1.2
	c1,0,2.1-0.4,2.9-1.2C87.65,85.5,87.65,82.9,86.05,81.3z M44.35,67.2c-5.9,0-11.3-2.3-15.5-6.4c-8.5-8.5-8.5-22.4,0-31
	c4.1-4.1,9.6-6.4,15.5-6.4s11.3,2.3,15.5,6.4s6.4,9.6,6.4,15.5s-2.3,11.3-6.4,15.5S50.15,67.2,44.35,67.2z"/>
<path d="M59.59,55L47.52,42.86c8.91-11.46,6.84-27.98-4.62-36.89S14.91-0.87,6,10.59s-6.84,27.98,4.62,36.89
	c9.49,7.38,22.77,7.38,32.26,0l12.09,12.16c1.3,1.26,3.37,1.22,4.63-0.08c1.23-1.27,1.23-3.28,0-4.55L59.59,55z M26.84,46.46
	c-10.85,0-19.65-8.8-19.65-19.65s8.8-19.65,19.65-19.65s19.65,8.8,19.65,19.65C46.48,37.66,37.69,46.45,26.84,46.46z"/>
</svg>
