<svg xmlns="http://www.w3.org/2000/svg" xmlns:xlink="http://www.w3.org/1999/xlink" version="1.1" x="0px" y="0px" viewBox="0 0 24 30" enable-background="new 0 0 24 24" xml:space="preserve">
	<g>
		<path d="M5.188,23.852C5.188,23.852,5.188,23.852,5.188,23.852c-0.134,0-0.261-0.054-0.354-0.147l-4.529-4.557   c-0.194-0.195-0.194-0.512,0.001-0.706l1.188-1.188C4.815,13.932,13.998,4.749,16.3,2.446c0.006-0.006,0.012-0.012,0.018-0.018   c0.254-0.253,0.421-0.421,0.483-0.483c0.026-0.026,0.055-0.049,0.085-0.068c0.206-0.207,0.403-0.411,0.595-0.609   c0.335-0.347,0.654-0.678,0.982-0.984c0.197-0.184,0.506-0.181,0.695,0.012l4.537,4.547c0.195,0.195,0.195,0.512,0,0.707   L5.541,23.705C5.447,23.799,5.32,23.852,5.188,23.852z M1.364,18.796l3.824,3.848L22.635,5.196L18.799,1.35   c-0.198,0.197-0.396,0.401-0.6,0.612c-0.366,0.38-0.751,0.778-1.187,1.186C14.721,5.441,5.524,14.636,2.199,17.961L1.364,18.796z"/>
		<g>
			<path d="M2.914,19.492c-0.128,0-0.256-0.049-0.354-0.146l-1.232-1.232c-0.195-0.195-0.195-0.512,0-0.707s0.512-0.195,0.707,0    l1.232,1.232c0.195,0.195,0.195,0.512,0,0.707C3.17,19.444,3.042,19.492,2.914,19.492z"/>
			<path d="M6.129,16.278c-0.128,0-0.256-0.049-0.354-0.146l-1.232-1.232c-0.195-0.195-0.195-0.512,0-0.707s0.512-0.195,0.707,0    l1.232,1.232c0.195,0.195,0.195,0.512,0,0.707C6.385,16.229,6.257,16.278,6.129,16.278z"/>
			<path d="M9.344,13.063c-0.128,0-0.256-0.049-0.354-0.146l-1.232-1.232c-0.195-0.195-0.195-0.512,0-0.707s0.512-0.195,0.707,0    l1.232,1.232c0.195,0.195,0.195,0.512,0,0.707C9.6,13.014,9.472,13.063,9.344,13.063z"/>
			<path d="M12.559,9.848c-0.128,0-0.256-0.049-0.354-0.146l-1.232-1.232c-0.195-0.195-0.195-0.512,0-0.707s0.512-0.195,0.707,0    l1.232,1.232c0.195,0.195,0.195,0.512,0,0.707C12.815,9.799,12.687,9.848,12.559,9.848z"/>
			<path d="M15.773,6.633c-0.128,0-0.256-0.049-0.354-0.146l-1.232-1.232c-0.195-0.195-0.195-0.512,0-0.707s0.512-0.195,0.707,0    l1.232,1.232c0.195,0.195,0.195,0.512,0,0.707C16.029,6.584,15.901,6.633,15.773,6.633z"/>
			<path d="M18.987,3.419c-0.128,0-0.256-0.049-0.354-0.146L17.401,2.04c-0.195-0.195-0.195-0.512,0-0.707s0.512-0.195,0.707,0    l1.232,1.232c0.195,0.195,0.195,0.512,0,0.707C19.243,3.37,19.115,3.419,18.987,3.419z"/>
		</g>
		<g>
			<path d="M5.564,18.927c-0.128,0-0.256-0.049-0.354-0.146l-2.269-2.269c-0.195-0.195-0.195-0.512,0-0.707s0.512-0.195,0.707,0    l2.269,2.269c0.195,0.195,0.195,0.512,0,0.707C5.819,18.878,5.691,18.927,5.564,18.927z"/>
			<path d="M8.778,15.712c-0.128,0-0.256-0.049-0.354-0.146l-2.269-2.269c-0.195-0.195-0.195-0.512,0-0.707s0.512-0.195,0.707,0    l2.269,2.269c0.195,0.195,0.195,0.512,0,0.707C9.034,15.663,8.906,15.712,8.778,15.712z"/>
			<path d="M11.993,12.497c-0.128,0-0.256-0.049-0.354-0.146l-2.269-2.269c-0.195-0.195-0.195-0.512,0-0.707s0.512-0.195,0.707,0    l2.269,2.269c0.195,0.195,0.195,0.512,0,0.707C12.249,12.448,12.121,12.497,11.993,12.497z"/>
			<path d="M18.422,6.068c-0.128,0-0.256-0.049-0.354-0.146L15.8,3.653c-0.195-0.195-0.195-0.512,0-0.707s0.512-0.195,0.707,0    l2.269,2.269c0.195,0.195,0.195,0.512,0,0.707C18.678,6.019,18.55,6.068,18.422,6.068z"/>
			<path d="M15.208,9.282c-0.128,0-0.256-0.049-0.354-0.146l-2.269-2.269c-0.195-0.195-0.195-0.512,0-0.707s0.512-0.195,0.707,0    l2.269,2.269c0.195,0.195,0.195,0.512,0,0.707C15.464,9.234,15.336,9.282,15.208,9.282z"/>
		</g>
	</g>
</svg>