<?xml version="1.0" encoding="utf-8"?>
<!-- Generator: Adobe Illustrator 24.0.2, SVG Export Plug-In . SVG Version: 6.00 Build 0)  -->
<svg version="1.1" xmlns="http://www.w3.org/2000/svg" xmlns:xlink="http://www.w3.org/1999/xlink" x="0px" y="0px"
	 viewBox="0 0 40 40" style="enable-background:new 0 0 40 40;" xml:space="preserve">
<g id="Capa_1">
</g>
<g id="Modo_de_aislamiento">
	<path d="M57.12,13.44c-2.6,3.06-5.1,6.85-5.12,9.68c-0.01,1.07,0.33,2,1.15,2.7c1.17,1.02,2.47,1.37,3.76,1.38
		c1.88,0,3.75-0.76,5.21-1.34c2.47-0.99,29.71-12.82,29.71-12.82c0.26-0.13,0.21-0.3-0.12-0.21c-0.14,0.03-29.66,8.03-29.66,8.03
		c-0.56,0.16-1.14,0.24-1.72,0.25c-2.27,0.01-4.29-1.25-4.27-3.9C56.07,16.17,56.39,14.91,57.12,13.44"/>
</g>
<g id="Layer_1">
	<g>
		<g id="XMLID_1_">
			<g>
				<path d="M39.8,28.32h-1.15h-0.6c-0.05-0.29-0.14-0.49-0.25-0.61c-0.19-0.19-0.51-0.28-0.95-0.28c-0.43,0-0.73,0.07-0.9,0.22
					c-0.13,0.11-0.19,0.26-0.19,0.45c0,0.26,0.37,0.48,1.1,0.64c0.83,0.18,1.43,0.34,1.79,0.46c0.1,0.04,0.18,0.07,0.24,0.1
					c0.74,0.35,1.11,0.88,1.11,1.59c0,0.87-0.36,1.5-1.08,1.9c-0.09,0.05-0.17,0.09-0.27,0.13c-0.46,0.2-1,0.3-1.61,0.3
					c-0.91,0-1.64-0.16-2.2-0.48c-0.35-0.2-0.62-0.46-0.79-0.77c-0.18-0.31-0.26-0.67-0.26-1.09h1.83c0,0.31,0.11,0.56,0.34,0.73
					c0.22,0.17,0.6,0.27,1.14,0.27c0.4,0,0.7-0.08,0.9-0.25c0.16-0.13,0.23-0.28,0.23-0.45c0-0.28-0.36-0.51-1.08-0.66
					c-1.07-0.23-1.75-0.42-2.02-0.55c-0.73-0.34-1.1-0.87-1.1-1.61c0-0.59,0.19-1.09,0.57-1.5c0.48-0.51,1.2-0.76,2.16-0.76
					c0.79,0,1.42,0.11,1.9,0.34c0.04,0.02,0.08,0.04,0.11,0.06c0.34,0.19,0.6,0.43,0.77,0.74C39.71,27.52,39.8,27.89,39.8,28.32z"/>
				<path d="M38.87,24.06c0-0.04-0.01-0.07-0.02-0.09c-0.02-0.03-0.04-0.05-0.08-0.06c-0.02-0.01-0.06-0.01-0.11-0.02h-0.07h-0.21
					v0.34h0.22c0.02,0,0.04,0,0.05,0c0.08-0.01,0.13-0.02,0.16-0.05C38.85,24.15,38.87,24.1,38.87,24.06z M39.01,23.88
					c0.04,0.05,0.05,0.1,0.05,0.16c0,0.08-0.03,0.16-0.09,0.22c-0.06,0.06-0.14,0.1-0.23,0.1c0.04,0.02,0.07,0.04,0.1,0.06
					l0.17,0.22l0.13,0.22h-0.22l-0.1-0.18c-0.07-0.11-0.12-0.2-0.17-0.24c-0.01-0.01-0.01-0.01-0.02-0.02l-0.14-0.04h-0.11v0.48
					h-0.18v-1.13h0.39c0.02,0,0.05,0.01,0.07,0.01c0.1,0,0.17,0.01,0.22,0.03C38.93,23.79,38.98,23.82,39.01,23.88z"/>
				<path d="M39.52,24.29c0-0.16-0.04-0.3-0.11-0.44c-0.08-0.14-0.19-0.25-0.33-0.33c-0.14-0.07-0.28-0.11-0.43-0.11
					c-0.01,0-0.01,0-0.01,0c-0.14,0-0.29,0.04-0.43,0.11c-0.14,0.08-0.25,0.19-0.33,0.33c-0.08,0.14-0.12,0.28-0.12,0.44
					c0,0.15,0.04,0.29,0.12,0.43c0.07,0.13,0.18,0.24,0.32,0.32c0.14,0.08,0.28,0.11,0.43,0.11c0,0,0,0,0.01,0
					c0.15,0,0.3-0.04,0.43-0.11c0.14-0.08,0.25-0.19,0.32-0.32C39.49,24.58,39.52,24.44,39.52,24.29z M39.7,24.29
					c0,0.17-0.04,0.35-0.14,0.52c-0.09,0.17-0.22,0.3-0.38,0.38c-0.17,0.1-0.34,0.14-0.52,0.14c-0.01,0-0.01,0-0.01,0
					c-0.18,0-0.35-0.04-0.52-0.14c-0.17-0.09-0.3-0.22-0.39-0.38c-0.1-0.17-0.14-0.34-0.14-0.52c0-0.19,0.04-0.36,0.14-0.53
					c0.1-0.17,0.22-0.29,0.39-0.38c0.17-0.09,0.34-0.13,0.51-0.14c0,0,0,0,0.01,0c0.17,0,0.34,0.05,0.51,0.14
					c0.17,0.09,0.3,0.22,0.39,0.38C39.66,23.92,39.7,24.1,39.7,24.29z"/>
				<polygon points="29.46,15.78 34.4,24.01 29.46,24.01 26.46,24.01 21.75,16.15 18.17,10.2 21.75,8.05 24,6.69 				"/>
				<path d="M33.05,29.73v3.38h-1.64v-0.37c-0.55,0.36-1.22,0.57-1.93,0.57c-0.01,0-0.01,0-0.02,0c-1.96-0.01-3.56-1.61-3.56-3.58
					c0-1.96,1.6-3.56,3.56-3.57c0.01,0,0.01,0,0.02,0c0.71,0,1.37,0.21,1.93,0.57v-0.39h1.64V29.73z M31.41,30.11v-0.75
					c-0.17-0.9-0.97-1.59-1.93-1.59c-0.01,0-0.01,0-0.02,0c-1.08,0.01-1.95,0.89-1.95,1.96c0,1.08,0.87,1.96,1.95,1.97
					c0.01,0,0.01,0,0.02,0C30.43,31.7,31.23,31.01,31.41,30.11z"/>
				<path d="M25.33,29.73v3.38h-1.64v-0.37c-0.56,0.36-1.22,0.57-1.93,0.57c-0.01,0-0.01,0-0.02,0c-1.96-0.01-3.56-1.61-3.56-3.58
					c0-1.96,1.59-3.56,3.56-3.57c0.01,0,0.01,0,0.02,0c0.71,0,1.37,0.21,1.93,0.57v-2.71h1.64V29.73z M23.69,30.11v-0.75
					c-0.17-0.9-0.98-1.59-1.93-1.59c-0.01,0-0.01,0-0.02,0c-1.08,0.01-1.95,0.89-1.95,1.96c0,1.08,0.87,1.96,1.95,1.97
					c0.01,0,0.01,0,0.02,0C22.71,31.7,23.51,31.01,23.69,30.11z"/>
				<polygon points="21.75,20.78 23.68,24.01 21.75,24.01 15.75,24.01 11.35,16.68 11.15,16.36 11.35,16.25 16.98,12.86 				"/>
				<rect x="15.76" y="26.16" width="1.79" height="6.95"/>
				<rect x="15.76" y="24.05" width="1.79" height="1.57"/>
				<path d="M14.94,29.73v3.38H13.3v-0.37c-0.56,0.36-1.22,0.57-1.93,0.57c-0.01,0-0.01,0-0.02,0c-1.96-0.01-3.56-1.61-3.56-3.58
					c0-1.96,1.6-3.56,3.56-3.57c0.01,0,0.01,0,0.02,0c0.71,0,1.37,0.21,1.93,0.57v-2.71h1.64V29.73z M13.3,30.11v-0.75
					c-0.17-0.9-0.97-1.59-1.93-1.59c-0.01,0-0.01,0-0.02,0c-1.08,0.01-1.95,0.89-1.95,1.96c0,1.08,0.87,1.96,1.95,1.97
					c0.01,0,0.01,0,0.02,0C12.32,31.7,13.12,31.01,13.3,30.11z"/>
				<polygon points="11.35,21.31 12.97,24.01 11.35,24.01 5.03,24.01 4.14,22.53 9.97,19.02 				"/>
				<path d="M7.14,29.73v3.38H5.5v-0.37c-0.56,0.36-1.22,0.57-1.93,0.57c-0.01,0-0.01,0-0.02,0C1.59,33.3,0,31.69,0,29.73
					c0-1.96,1.59-3.56,3.55-3.57c0.01,0,0.01,0,0.02,0c0.71,0,1.37,0.21,1.93,0.57v-0.39h1.64V29.73z M5.5,30.11v-0.75
					c-0.17-0.9-0.97-1.59-1.93-1.59c-0.01,0-0.01,0-0.02,0c-1.07,0.01-1.94,0.89-1.94,1.96c0,1.08,0.87,1.96,1.94,1.97
					c0.01,0,0.01,0,0.02,0C4.53,31.7,5.33,31.01,5.5,30.11z"/>
			</g>
		</g>
	</g>
</g>
</svg>
