<?xml version="1.0" encoding="utf-8"?>
<!-- Generator: Adobe Illustrator 24.0.2, SVG Export Plug-In . SVG Version: 6.00 Build 0)  -->
<svg version="1.1" id="Capa_1" xmlns="http://www.w3.org/2000/svg" xmlns:xlink="http://www.w3.org/1999/xlink" x="0px" y="0px"
	 viewBox="0 0 40 40" style="enable-background:new 0 0 40 40;" xml:space="preserve">
<style type="text/css">
	.st0{fill:#FFFFFF;}
</style>
<g id="Capa_1_1_">
</g>
<g id="Modo_de_aislamiento">
	<path d="M57.1,13.4c-2.6,3.1-5.1,6.8-5.1,9.7c0,1.1,0.3,2,1.2,2.7c1.2,1,2.5,1.4,3.8,1.4c1.9,0,3.8-0.8,5.2-1.3
		c2.5-1,29.7-12.8,29.7-12.8c0.3-0.1,0.2-0.3-0.1-0.2c-0.1,0-29.7,8-29.7,8c-0.6,0.2-1.1,0.2-1.7,0.3c-2.3,0-4.3-1.3-4.3-3.9
		C56.1,16.2,56.4,14.9,57.1,13.4"/>
</g>
<g id="Layer_1">
	<g>
		<g id="XMLID_1_">
			<g>
				<path class="st0" d="M39.8,28.3h-1.2H38c0-0.3-0.1-0.5-0.3-0.6c-0.2-0.2-0.5-0.3-1-0.3c-0.4,0-0.7,0.1-0.9,0.2
					c-0.1,0.1-0.2,0.3-0.2,0.5c0,0.3,0.4,0.5,1.1,0.6c0.8,0.2,1.4,0.3,1.8,0.5c0.1,0,0.2,0.1,0.2,0.1c0.7,0.4,1.1,0.9,1.1,1.6
					c0,0.9-0.4,1.5-1.1,1.9c-0.1,0-0.2,0.1-0.3,0.1c-0.5,0.2-1,0.3-1.6,0.3c-0.9,0-1.6-0.2-2.2-0.5c-0.3-0.2-0.6-0.5-0.8-0.8
					c-0.2-0.3-0.3-0.7-0.3-1.1h1.8c0,0.3,0.1,0.6,0.3,0.7c0.2,0.2,0.6,0.3,1.1,0.3c0.4,0,0.7-0.1,0.9-0.3c0.2-0.1,0.2-0.3,0.2-0.5
					c0-0.3-0.4-0.5-1.1-0.7c-1.1-0.2-1.8-0.4-2-0.5c-0.7-0.3-1.1-0.9-1.1-1.6c0-0.6,0.2-1.1,0.6-1.5c0.5-0.5,1.2-0.8,2.2-0.8
					c0.8,0,1.4,0.1,1.9,0.3c0,0,0.1,0,0.1,0.1c0.3,0.2,0.6,0.4,0.8,0.7C39.7,27.5,39.8,27.9,39.8,28.3z"/>
				<path class="st0" d="M38.9,24.1C38.9,24,38.9,24,38.9,24.1c0-0.1-0.1-0.1-0.1-0.1c0,0-0.1,0-0.1,0h-0.1h-0.2v0.3h0.2
					c0,0,0,0,0,0c0.1,0,0.1,0,0.2,0C38.8,24.1,38.9,24.1,38.9,24.1z M39,23.9c0,0,0,0.1,0,0.2c0,0.1,0,0.2-0.1,0.2s-0.1,0.1-0.2,0.1
					c0,0,0.1,0,0.1,0.1l0.2,0.2l0.1,0.2h-0.2l-0.1-0.2c-0.1-0.1-0.1-0.2-0.2-0.2c0,0,0,0,0,0l-0.1,0h-0.1v0.5h-0.2v-1.1h0.4
					c0,0,0,0,0.1,0c0.1,0,0.2,0,0.2,0C38.9,23.8,39,23.8,39,23.9z"/>
				<path class="st0" d="M39.5,24.3c0-0.2,0-0.3-0.1-0.4c-0.1-0.1-0.2-0.3-0.3-0.3c-0.1-0.1-0.3-0.1-0.4-0.1c0,0,0,0,0,0
					c-0.1,0-0.3,0-0.4,0.1c-0.1,0.1-0.3,0.2-0.3,0.3s-0.1,0.3-0.1,0.4c0,0.1,0,0.3,0.1,0.4c0.1,0.1,0.2,0.2,0.3,0.3s0.3,0.1,0.4,0.1
					c0,0,0,0,0,0c0.2,0,0.3,0,0.4-0.1c0.1-0.1,0.3-0.2,0.3-0.3C39.5,24.6,39.5,24.4,39.5,24.3z M39.7,24.3c0,0.2,0,0.4-0.1,0.5
					c-0.1,0.2-0.2,0.3-0.4,0.4c-0.2,0.1-0.3,0.1-0.5,0.1c0,0,0,0,0,0c-0.2,0-0.3,0-0.5-0.1c-0.2-0.1-0.3-0.2-0.4-0.4
					c-0.1-0.2-0.1-0.3-0.1-0.5c0-0.2,0-0.4,0.1-0.5s0.2-0.3,0.4-0.4c0.2-0.1,0.3-0.1,0.5-0.1c0,0,0,0,0,0c0.2,0,0.3,0,0.5,0.1
					s0.3,0.2,0.4,0.4C39.7,23.9,39.7,24.1,39.7,24.3z"/>
				<polygon class="st0" points="29.5,15.8 34.4,24 29.5,24 26.5,24 21.8,16.1 18.2,10.2 21.8,8.1 24,6.7 				"/>
				<path class="st0" d="M33,29.7v3.4h-1.6v-0.4c-0.5,0.4-1.2,0.6-1.9,0.6c0,0,0,0,0,0c-2,0-3.6-1.6-3.6-3.6c0-2,1.6-3.6,3.6-3.6
					c0,0,0,0,0,0c0.7,0,1.4,0.2,1.9,0.6v-0.4H33V29.7z M31.4,30.1v-0.8c-0.2-0.9-1-1.6-1.9-1.6c0,0,0,0,0,0c-1.1,0-2,0.9-2,2
					c0,1.1,0.9,2,2,2c0,0,0,0,0,0C30.4,31.7,31.2,31,31.4,30.1z"/>
				<path class="st0" d="M25.3,29.7v3.4h-1.6v-0.4c-0.6,0.4-1.2,0.6-1.9,0.6c0,0,0,0,0,0c-2,0-3.6-1.6-3.6-3.6c0-2,1.6-3.6,3.6-3.6
					c0,0,0,0,0,0c0.7,0,1.4,0.2,1.9,0.6V24h1.6V29.7z M23.7,30.1v-0.8c-0.2-0.9-1-1.6-1.9-1.6c0,0,0,0,0,0c-1.1,0-2,0.9-2,2
					c0,1.1,0.9,2,2,2c0,0,0,0,0,0C22.7,31.7,23.5,31,23.7,30.1z"/>
				<polygon class="st0" points="21.8,20.8 23.7,24 21.8,24 15.8,24 11.4,16.7 11.1,16.4 11.4,16.3 17,12.9 				"/>
				<rect x="15.8" y="26.2" class="st0" width="1.8" height="7"/>
				<rect x="15.8" y="24" class="st0" width="1.8" height="1.6"/>
				<path class="st0" d="M14.9,29.7v3.4h-1.6v-0.4c-0.6,0.4-1.2,0.6-1.9,0.6c0,0,0,0,0,0c-2,0-3.6-1.6-3.6-3.6c0-2,1.6-3.6,3.6-3.6
					c0,0,0,0,0,0c0.7,0,1.4,0.2,1.9,0.6V24h1.6C14.9,24,14.9,29.7,14.9,29.7z M13.3,30.1v-0.8c-0.2-0.9-1-1.6-1.9-1.6c0,0,0,0,0,0
					c-1.1,0-1.9,0.9-1.9,2c0,1.1,0.9,2,1.9,2c0,0,0,0,0,0C12.3,31.7,13.1,31,13.3,30.1z"/>
				<polygon class="st0" points="11.4,21.3 13,24 11.4,24 5,24 4.1,22.5 10,19 				"/>
				<path class="st0" d="M7.1,29.7v3.4H5.5v-0.4c-0.6,0.4-1.2,0.6-1.9,0.6c0,0,0,0,0,0c-2,0-3.6-1.6-3.6-3.6s1.6-3.6,3.5-3.6
					c0,0,0,0,0,0c0.7,0,1.4,0.2,1.9,0.6v-0.4h1.6V29.7z M5.5,30.1v-0.8c-0.2-0.9-1-1.6-1.9-1.6c0,0,0,0,0,0c-1.1,0-1.9,0.9-1.9,2
					c0,1.1,0.9,2,1.9,2c0,0,0,0,0,0C4.5,31.7,5.3,31,5.5,30.1z"/>
			</g>
		</g>
	</g>
</g>
</svg>
