<?xml version="1.0" encoding="utf-8"?>
<!-- Generator: Adobe Illustrator 24.0.2, SVG Export Plug-In . SVG Version: 6.00 Build 0)  -->
<svg version="1.1" xmlns="http://www.w3.org/2000/svg" xmlns:xlink="http://www.w3.org/1999/xlink" x="0px" y="0px"
	 viewBox="0 0 40 40" style="enable-background:new 0 0 40 40;" xml:space="preserve">
<style type="text/css">
	.st0{fill-rule:evenodd;clip-rule:evenodd;}
</style>
<g id="Capa_1">
</g>
<g id="Modo_de_aislamiento">
	<path d="M103.63,13.44c-2.6,3.06-5.1,6.85-5.12,9.68c-0.01,1.07,0.33,2,1.15,2.7c1.17,1.02,2.47,1.37,3.76,1.38
		c1.88,0,3.75-0.76,5.21-1.34c2.47-0.99,29.71-12.82,29.71-12.82c0.26-0.13,0.21-0.3-0.12-0.21c-0.14,0.03-29.66,8.03-29.66,8.03
		c-0.56,0.16-1.14,0.24-1.72,0.25c-2.27,0.01-4.29-1.25-4.27-3.9C102.57,16.17,102.89,14.91,103.63,13.44"/>
	<g>
		<path class="st0" d="M117.71,71.69c-0.13,0.02-0.26,0.5-0.51,0.75c-0.19,0.18-0.42,0.17-0.54,0.39c-0.05,0.08-0.03,0.23-0.08,0.36
			c-0.1,0.27-0.47,0.3-0.47,0.6c0,0.32,0.3,0.38,0.57,0.61c0.21,0.18,0.23,0.31,0.48,0.4c0.21,0.07,0.53-0.16,0.81-0.08
			c0.23,0.07,0.46,0.12,0.51,0.36c0.05,0.22,0,0.57-0.29,0.53c-0.1-0.01-0.51-0.15-1.02-0.1c-0.62,0.07-1.32,0.27-1.39,0.96
			c-0.04,0.38,0.44,0.83,0.89,0.74c0.32-0.06,0.17-0.44,0.34-0.62c0.23-0.23,1.51,0.81,2.7,0.81c0.5,0,0.87-0.13,1.24-0.51
			c0.03-0.03,0.08-0.09,0.13-0.1c0.05,0,0.14,0.05,0.17,0.07c0.96,0.77,1.68,2.31,5.2,2.33c0.5,0,1.06,0.24,1.52,0.66
			c0.41,0.38,0.65,0.97,0.88,1.57c0.35,0.9,0.98,1.77,1.94,2.75c0.05,0.05,0.84,0.66,0.9,0.71c0.01,0.01,0.07,0.15,0.05,0.22
			c-0.02,0.58-0.11,2.28,1.16,2.36c0.31,0.02,0.23-0.2,0.23-0.35c0-0.3-0.05-0.59,0.1-0.89c0.21-0.42-0.45-0.61-0.43-1.51
			c0.01-0.67-0.55-0.56-0.84-1.07c-0.16-0.3-0.31-0.45-0.3-0.82c0.06-2.04-0.43-3.38-0.68-3.71c-0.19-0.25-0.35-0.35-0.18-0.46
			c1.06-0.7,1.3-1.35,1.3-1.35c0.56-1.32,1.07-2.53,1.76-3.06c0.14-0.11,0.5-0.38,0.72-0.48c0.65-0.31,0.99-0.49,1.18-0.68
			c0.3-0.29,0.53-0.9,0.25-1.27c-0.36-0.45-0.97-0.09-1.24,0.07c-1.94,1.15-2.23,3.19-2.9,4.35c-0.54,0.93-1.41,1.62-2.19,1.67
			c-0.58,0.04-1.22-0.07-1.84-0.35c-1.53-0.67-2.36-1.53-2.56-1.69c-0.41-0.32-3.59-3.44-6.17-3.57c0,0-0.32-0.64-0.4-0.65
			c-0.19-0.02-0.38,0.38-0.52,0.43C118.06,72.16,117.84,71.67,117.71,71.69L117.71,71.69z"/>
		<path class="st0" d="M106.36,90.35c-0.24-0.01-0.45-0.21-0.45-0.45l0-8.05h-2.65v8.87c0,0.44,0.35,0.79,0.78,0.79h4.64
			c0.44,0,0.78-0.35,0.78-0.79v-8.87h-2.65l0,8.05C106.81,90.14,106.6,90.34,106.36,90.35L106.36,90.35z"/>
		<path class="st0" d="M115.24,81.85h-4.01c-0.48,0-0.86,0.39-0.86,0.87v8.79h2.65v-8.07c0-0.25,0.2-0.44,0.45-0.44
			c0.25,0,0.45,0.19,0.45,0.44v8.07h2.64v-8.07c0-0.24,0.2-0.44,0.45-0.44c0.25,0,0.45,0.2,0.45,0.44v8.07h2.66v-8.79
			c0-0.48-0.39-0.87-0.86-0.87H115.24L115.24,81.85z"/>
		<path class="st0" d="M101.49,89.08h-2.68v2.43h-2.65v-9.66h5.35c0.48,0,0.85,0.39,0.85,0.87v5.49
			C102.35,88.7,101.97,89.08,101.49,89.08L101.49,89.08z M99.71,83.46c0-0.27-0.22-0.46-0.45-0.46h-0.45v4.89h0.45
			c0.23,0,0.45-0.19,0.45-0.45V83.46L99.71,83.46z"/>
		<path class="st0" d="M124.56,91.51v-2.43h-0.9v2.43h-2.65v-8.79c0-0.48,0.39-0.87,0.86-0.87h4.48c0.48,0,0.86,0.39,0.86,0.87v8.79
			H124.56L124.56,91.51z M124.56,87.89v-4.45c-0.01-0.25-0.2-0.43-0.45-0.43c-0.24,0-0.45,0.2-0.45,0.44v4.44H124.56L124.56,87.89z"
			/>
	</g>
</g>
<g id="Layer_1">
	<g>
		<g id="XMLID_2_">
			<g>
				<path d="M135.3,58.32h-1.15h-0.6c-0.05-0.29-0.14-0.49-0.25-0.61c-0.19-0.19-0.51-0.28-0.95-0.28c-0.43,0-0.73,0.07-0.9,0.22
					c-0.13,0.11-0.19,0.26-0.19,0.45c0,0.26,0.37,0.48,1.1,0.64c0.83,0.18,1.43,0.34,1.79,0.46c0.1,0.04,0.18,0.07,0.24,0.1
					c0.74,0.35,1.11,0.88,1.11,1.59c0,0.87-0.36,1.5-1.08,1.9c-0.09,0.05-0.17,0.09-0.27,0.13c-0.46,0.2-1,0.3-1.61,0.3
					c-0.91,0-1.64-0.16-2.2-0.48c-0.35-0.2-0.62-0.46-0.79-0.77c-0.18-0.31-0.26-0.67-0.26-1.09h1.83c0,0.31,0.11,0.56,0.34,0.73
					c0.22,0.17,0.6,0.27,1.14,0.27c0.4,0,0.7-0.08,0.9-0.25c0.16-0.13,0.23-0.28,0.23-0.45c0-0.28-0.36-0.51-1.08-0.66
					c-1.07-0.23-1.75-0.42-2.02-0.55c-0.73-0.34-1.1-0.87-1.1-1.61c0-0.59,0.19-1.09,0.57-1.5c0.48-0.51,1.2-0.76,2.16-0.76
					c0.79,0,1.42,0.11,1.9,0.34c0.04,0.02,0.08,0.04,0.11,0.06c0.34,0.19,0.6,0.43,0.77,0.74C135.22,57.52,135.3,57.89,135.3,58.32z
					"/>
				<path d="M134.37,54.06c0-0.04-0.01-0.07-0.02-0.09c-0.02-0.03-0.04-0.05-0.08-0.06c-0.02-0.01-0.06-0.01-0.11-0.02h-0.07h-0.21
					v0.34h0.22c0.02,0,0.04,0,0.05,0c0.08-0.01,0.13-0.02,0.16-0.05C134.35,54.15,134.37,54.1,134.37,54.06z M134.52,53.88
					c0.04,0.05,0.05,0.1,0.05,0.16c0,0.08-0.03,0.16-0.09,0.22c-0.06,0.06-0.14,0.1-0.23,0.1c0.04,0.02,0.07,0.04,0.1,0.06
					l0.17,0.22l0.13,0.22h-0.22l-0.1-0.18c-0.07-0.11-0.12-0.2-0.17-0.24c-0.01-0.01-0.01-0.01-0.02-0.02l-0.14-0.04h-0.11v0.48
					h-0.18v-1.13h0.39c0.02,0,0.05,0.01,0.07,0.01c0.1,0,0.17,0.01,0.22,0.03C134.43,53.79,134.48,53.82,134.52,53.88z"/>
				<path d="M135.03,54.29c0-0.16-0.04-0.3-0.11-0.44c-0.08-0.14-0.19-0.25-0.33-0.33c-0.14-0.07-0.28-0.11-0.43-0.11
					c-0.01,0-0.01,0-0.01,0c-0.14,0-0.29,0.04-0.43,0.11c-0.14,0.08-0.25,0.19-0.33,0.33c-0.08,0.14-0.12,0.28-0.12,0.44
					c0,0.15,0.04,0.29,0.12,0.43c0.07,0.13,0.18,0.24,0.32,0.32c0.14,0.08,0.28,0.11,0.43,0.11c0,0,0,0,0.01,0
					c0.15,0,0.3-0.04,0.43-0.11c0.14-0.08,0.25-0.19,0.32-0.32C134.99,54.58,135.03,54.44,135.03,54.29z M135.2,54.29
					c0,0.17-0.04,0.35-0.14,0.52c-0.09,0.17-0.22,0.3-0.38,0.38c-0.17,0.1-0.34,0.14-0.52,0.14c-0.01,0-0.01,0-0.01,0
					c-0.18,0-0.35-0.04-0.52-0.14c-0.17-0.09-0.3-0.22-0.39-0.38c-0.1-0.17-0.14-0.34-0.14-0.52c0-0.19,0.04-0.36,0.14-0.53
					c0.1-0.17,0.22-0.29,0.39-0.38c0.17-0.09,0.34-0.13,0.51-0.14c0,0,0,0,0.01,0c0.17,0,0.34,0.05,0.51,0.14
					c0.17,0.09,0.3,0.22,0.39,0.38C135.16,53.92,135.2,54.1,135.2,54.29z"/>
				<polygon points="124.96,45.78 129.91,54.01 124.96,54.01 121.97,54.01 117.25,46.15 113.67,40.2 117.25,38.05 119.5,36.69 				
					"/>
				<path d="M128.55,59.73v3.38h-1.64v-0.37c-0.55,0.36-1.22,0.57-1.93,0.57c-0.01,0-0.01,0-0.02,0c-1.96-0.01-3.56-1.61-3.56-3.58
					c0-1.96,1.6-3.56,3.56-3.57c0.01,0,0.01,0,0.02,0c0.71,0,1.37,0.21,1.93,0.57v-0.39h1.64V59.73z M126.91,60.11v-0.75
					c-0.17-0.9-0.97-1.59-1.93-1.59c-0.01,0-0.01,0-0.02,0c-1.08,0.01-1.95,0.89-1.95,1.96c0,1.08,0.87,1.96,1.95,1.97
					c0.01,0,0.01,0,0.02,0C125.93,61.7,126.73,61.01,126.91,60.11z"/>
				<path d="M120.84,59.73v3.38h-1.64v-0.37c-0.56,0.36-1.22,0.57-1.93,0.57c-0.01,0-0.01,0-0.02,0c-1.96-0.01-3.56-1.61-3.56-3.58
					c0-1.96,1.59-3.56,3.56-3.57c0.01,0,0.01,0,0.02,0c0.71,0,1.37,0.21,1.93,0.57v-2.71h1.64V59.73z M119.19,60.11v-0.75
					c-0.17-0.9-0.98-1.59-1.93-1.59c-0.01,0-0.01,0-0.02,0c-1.08,0.01-1.95,0.89-1.95,1.96c0,1.08,0.87,1.96,1.95,1.97
					c0.01,0,0.01,0,0.02,0C118.22,61.7,119.02,61.01,119.19,60.11z"/>
				<polygon points="117.25,50.78 119.19,54.01 117.25,54.01 111.25,54.01 106.85,46.68 106.66,46.36 106.85,46.25 112.49,42.86 
									"/>
				<rect x="111.26" y="56.16" width="1.79" height="6.95"/>
				<rect x="111.26" y="54.05" width="1.79" height="1.57"/>
				<path d="M110.44,59.73v3.38h-1.64v-0.37c-0.56,0.36-1.22,0.57-1.93,0.57c-0.01,0-0.01,0-0.02,0c-1.96-0.01-3.56-1.61-3.56-3.58
					c0-1.96,1.6-3.56,3.56-3.57c0.01,0,0.01,0,0.02,0c0.71,0,1.37,0.21,1.93,0.57v-2.71h1.64V59.73z M108.8,60.11v-0.75
					c-0.17-0.9-0.97-1.59-1.93-1.59c-0.01,0-0.01,0-0.02,0c-1.08,0.01-1.95,0.89-1.95,1.96c0,1.08,0.87,1.96,1.95,1.97
					c0.01,0,0.01,0,0.02,0C107.82,61.7,108.62,61.01,108.8,60.11z"/>
				<polygon points="106.85,51.31 108.47,54.01 106.85,54.01 100.53,54.01 99.64,52.53 105.48,49.02 				"/>
				<path d="M102.65,59.73v3.38H101v-0.37c-0.56,0.36-1.22,0.57-1.93,0.57c-0.01,0-0.01,0-0.02,0c-1.96-0.01-3.55-1.61-3.55-3.58
					c0-1.96,1.59-3.56,3.55-3.57c0.01,0,0.01,0,0.02,0c0.71,0,1.37,0.21,1.93,0.57v-0.39h1.64V59.73z M101,60.11v-0.75
					c-0.17-0.9-0.97-1.59-1.93-1.59c-0.01,0-0.01,0-0.02,0c-1.07,0.01-1.94,0.89-1.94,1.96c0,1.08,0.87,1.96,1.94,1.97
					c0.01,0,0.01,0,0.02,0C100.03,61.7,100.83,61.01,101,60.11z"/>
			</g>
		</g>
	</g>
	<g>
		<path d="M100.76-11.16c0-0.31,0.18-0.51,1.28-0.51c0.73,0,1.48,0.02,2.41,0.31v-1.06c-0.46-0.14-1.21-0.26-2.38-0.26
			c-1.99,0-2.57,0.6-2.57,1.52c0,1.12,0.83,1.41,2.54,1.59c0.94,0.1,1.42,0.12,1.42,0.48c0,0.32-0.24,0.46-1.31,0.47
			c-0.75,0-1.65-0.09-2.49-0.38v1.12c0.88,0.23,1.59,0.3,2.5,0.3c1.5,0,2.56-0.3,2.56-1.54c0-1.18-0.85-1.34-2.5-1.52
			C101.42-10.71,100.76-10.77,100.76-11.16 M109-9.48c0,0.72-0.62,0.87-1.49,0.87c-1.02,0-1.22-0.19-1.22-0.48
			c0-0.31,0.33-0.38,1.15-0.5c0.68-0.09,1.39-0.26,1.56-0.43V-9.48z M110.13-9.25v-1.78c0-1.47-1.29-1.68-2.49-1.68
			c-0.59,0-1.44,0.13-2.12,0.29v1.05c0.85-0.17,1.63-0.28,2.12-0.28c0.55,0,1.25,0.04,1.25,0.43c0,0.34-0.42,0.46-1.25,0.56
			c-1.5,0.2-2.58,0.39-2.58,1.55c0,1.2,0.94,1.54,2.58,1.54C109.48-7.55,110.13-8.2,110.13-9.25 M112.81-7.64
			c0.41,0,0.94-0.01,1.32-0.07l-0.17-0.99c-0.31,0.04-0.78,0.06-1.15,0.06c-0.65,0-1.09-0.26-1.09-0.76v-3.24h-1.13v3.33
			C110.6-7.93,111.81-7.64,112.81-7.64L112.81-7.64z M118.23-10.09c-0.01,0.21-0.02,0.4-0.04,0.58c-0.08,0.6-0.43,0.89-1.09,0.89
			h-0.6c-0.65,0-1.01-0.29-1.09-0.89c-0.02-0.18-0.04-0.38-0.04-0.58c0.01-0.21,0.02-0.41,0.04-0.58c0.08-0.6,0.43-0.9,1.09-0.9h0.6
			c0.65,0,1.01,0.29,1.09,0.9C118.21-10.49,118.23-10.3,118.23-10.09 M119.29-9.04c0.06-0.3,0.08-0.63,0.09-0.97v-0.08v-0.08
			c-0.01-0.35-0.03-0.68-0.09-0.97c-0.15-1.03-0.87-1.54-2.19-1.54h-0.6c-1.32,0-2.04,0.51-2.19,1.54
			c-0.06,0.29-0.08,0.62-0.09,0.97v0.08v0.08c0.01,0.34,0.03,0.67,0.09,0.97c0.15,1.02,0.87,1.53,2.19,1.53h0.6
			C118.42-7.51,119.14-8.02,119.29-9.04 M127.25-7.68h1.15v-2.33c0-0.4-0.02-0.78-0.09-1.12c-0.15-1.02-0.87-1.53-2.19-1.53h-0.32
			c-0.77,0-1.34,0.17-1.71,0.52c-0.36-0.35-0.93-0.52-1.7-0.52h-0.32c-1.32,0-2.04,0.51-2.19,1.53c-0.06,0.35-0.09,0.73-0.09,1.12
			v2.33h1.15v-2.33c0-0.23,0.02-0.46,0.05-0.66c0.07-0.6,0.43-0.89,1.08-0.89h0.32c0.65,0,1.01,0.29,1.09,0.89
			c0.03,0.21,0.04,0.43,0.04,0.66v2.33h1.15v-2.33c0-0.23,0.01-0.46,0.04-0.66c0.08-0.6,0.43-0.89,1.09-0.89h0.32
			c0.65,0,1.01,0.29,1.08,0.89c0.04,0.21,0.05,0.43,0.05,0.66V-7.68z M132.87-10.09c0,0.21-0.01,0.4-0.04,0.58
			c-0.07,0.6-0.43,0.89-1.09,0.89h-0.6c-0.65,0-1.02-0.29-1.09-0.89c-0.03-0.18-0.04-0.38-0.04-0.58c0-0.21,0.01-0.41,0.04-0.58
			c0.07-0.6,0.43-0.9,1.09-0.9h0.6c0.65,0,1.02,0.29,1.09,0.9C132.86-10.49,132.87-10.3,132.87-10.09 M133.94-9.04
			c0.05-0.3,0.07-0.63,0.08-0.97v-0.08v-0.08c-0.01-0.35-0.03-0.68-0.08-0.97c-0.15-1.03-0.88-1.54-2.2-1.54h-0.6
			c-1.33,0-2.05,0.51-2.2,1.54c-0.05,0.29-0.08,0.62-0.08,0.97v0.08v0.08c0,0.34,0.03,0.67,0.08,0.97c0.15,1.02,0.87,1.53,2.2,1.53
			h0.6C133.06-7.51,133.79-8.02,133.94-9.04 M139.5-7.68v-2.33c0-0.41-0.03-0.78-0.09-1.12c-0.15-1.03-0.87-1.54-2.19-1.54h-0.53
			c-1.32,0-2.05,0.51-2.2,1.54c-0.06,0.34-0.08,0.72-0.08,1.12v2.33h1.15v-2.33c0-0.24,0.01-0.46,0.04-0.66
			c0.08-0.6,0.43-0.9,1.09-0.9h0.53c0.65,0,1.01,0.29,1.08,0.9c0.03,0.2,0.04,0.42,0.04,0.66v2.33H139.5z"/>
		<path d="M126.59-32.49c0.91,0,1.64,0.73,1.64,1.64v14.34c0,0.91-0.73,1.64-1.64,1.64h-14.34c-0.91,0-1.64-0.73-1.64-1.64v-14.34
			c0-0.91,0.73-1.64,1.64-1.64H126.59 M118.14-19.38c-0.17,0-0.38-0.06-0.61-0.19l-1.41-0.79c-0.21-0.12-0.44-0.19-0.62-0.19h-1.82
			c-0.18,0-0.32,0.15-0.32,0.32v1.86c0,0.36,0.3,0.63,0.65,0.68c3.62,0.35,7.19,0.35,10.82,0c0.36-0.04,0.65-0.32,0.65-0.68v-3.09
			c0-0.51-0.28-0.99-0.7-1.23l-7.31-4.11c-0.17-0.09-0.29-0.31-0.29-0.53c0-0.35,0.22-0.63,0.57-0.63h2.95
			c0.17,0,0.38,0.06,0.61,0.19l1.41,0.79c0.21,0.12,0.44,0.19,0.62,0.19h1.82c0.18,0,0.32-0.15,0.32-0.32v-1.86
			c0-0.36-0.3-0.63-0.65-0.68c-3.62-0.35-7.19-0.35-10.82,0c-0.36,0.04-0.65,0.32-0.65,0.68v3.09c0,0.51,0.28,0.99,0.7,1.23
			l7.31,4.11c0.17,0.09,0.29,0.31,0.29,0.53c0,0.35-0.22,0.63-0.57,0.63H118.14z"/>
	</g>
	<text transform="matrix(1 0 0 1 -45.7778 23.9307)" style="font-family:'Gilroy-ExtraBold'; font-size:13.4112px;">TODO</text>
	<g>
		<path d="M-39.82,30.09v1.84h-2.15v6.51h-1.91v-6.51h-2.15v-1.84H-39.82z"/>
		<path d="M-31.92,37.36c-0.84,0.83-1.87,1.25-3.08,1.25c-1.21,0-2.24-0.42-3.08-1.25c-0.84-0.84-1.26-1.87-1.26-3.09
			s0.42-2.25,1.26-3.09c0.84-0.83,1.87-1.25,3.08-1.25c1.21,0,2.23,0.42,3.08,1.25c0.84,0.84,1.26,1.87,1.26,3.09
			S-31.08,36.52-31.92,37.36z M-36.74,36.06c0.47,0.46,1.04,0.69,1.74,0.69s1.27-0.23,1.74-0.69c0.47-0.46,0.7-1.06,0.7-1.79
			s-0.23-1.33-0.7-1.79c-0.47-0.46-1.04-0.69-1.74-0.69s-1.27,0.23-1.74,0.69c-0.47,0.46-0.7,1.06-0.7,1.79S-37.2,35.6-36.74,36.06z
			"/>
		<path d="M-25.77,30.09c1.15,0,2.12,0.4,2.89,1.2c0.78,0.8,1.16,1.79,1.16,2.98c0,1.18-0.39,2.18-1.16,2.98
			c-0.78,0.8-1.74,1.2-2.89,1.2h-3.34v-8.35H-25.77z M-25.77,36.61c0.66,0,1.19-0.21,1.6-0.64c0.41-0.43,0.61-0.99,0.61-1.7
			c0-0.71-0.2-1.27-0.61-1.7c-0.41-0.43-0.94-0.64-1.6-0.64h-1.43v4.68H-25.77z"/>
		<path d="M-15.15,38.44l-0.42-1.31h-3.1l-0.42,1.31h-2.09l2.84-8.35h2.43l2.84,8.35H-15.15z M-18.1,35.34h1.96l-0.98-3.07
			L-18.1,35.34z"/>
		<path d="M-9.13,38.61c-0.85,0-1.56-0.19-2.13-0.56c-0.57-0.37-0.97-0.87-1.21-1.51l1.65-0.95c0.33,0.77,0.92,1.16,1.75,1.16
			c0.76,0,1.13-0.23,1.13-0.68c0-0.25-0.12-0.44-0.36-0.58c-0.24-0.14-0.7-0.3-1.37-0.48c-0.35-0.1-0.66-0.2-0.92-0.32
			c-0.26-0.12-0.52-0.28-0.77-0.47c-0.25-0.19-0.44-0.44-0.57-0.73c-0.13-0.29-0.2-0.63-0.2-1.01c0-0.77,0.28-1.39,0.83-1.85
			c0.55-0.46,1.21-0.69,1.97-0.69c0.68,0,1.29,0.16,1.81,0.48c0.52,0.32,0.94,0.79,1.24,1.4l-1.61,0.94
			c-0.15-0.32-0.34-0.56-0.56-0.72c-0.22-0.16-0.52-0.24-0.88-0.24c-0.29,0-0.51,0.06-0.66,0.19c-0.16,0.12-0.23,0.27-0.23,0.45
			c0,0.21,0.1,0.39,0.29,0.54c0.19,0.15,0.6,0.32,1.21,0.5c0.33,0.1,0.59,0.19,0.78,0.25c0.18,0.06,0.42,0.17,0.7,0.32
			c0.28,0.15,0.5,0.3,0.64,0.47c0.15,0.16,0.28,0.38,0.39,0.64c0.12,0.27,0.17,0.57,0.17,0.91c0,0.8-0.29,1.42-0.86,1.88
			C-7.46,38.38-8.2,38.61-9.13,38.61z"/>
	</g>
	<g>
		<polygon points="55.68,0.02 58.6,0.02 53.82,15.08 50.22,15.08 45.34,0.1 48.29,0.11 52.11,11.62 		"/>
		<rect x="55.69" class="st0" width="27.09" height="2.59"/>
		<path d="M59.06,15.06h-2.64l2.95-10.21h2.73l2.95,10.21h-2.68l-0.31-1.33h-2.68L59.06,15.06z M61.61,11.57l-0.89-3.66l-0.85,3.66
			H61.61z"/>
		<polygon points="68.49,4.86 71.44,10.4 71.35,8.07 71.35,4.86 73.95,4.86 73.95,15.06 71.4,15.06 68.45,9.52 68.58,11.85 
			68.58,15.06 65.99,15.06 65.99,4.86 		"/>
		<path d="M82.35,7.8H79.8c-0.03-0.33-0.16-0.55-0.4-0.67c-0.15-0.15-0.37-0.22-0.67-0.22c-0.6,0-0.89,0.2-0.89,0.61
			c0,0.37,0.54,0.72,1.61,1.05c2.08,0.63,3.13,1.7,3.13,3.22c-0.06,2.26-1.34,3.4-3.84,3.44c-2.18-0.11-3.4-1.22-3.66-3.33h2.59
			c0.09,0.37,0.24,0.65,0.45,0.83c0.21,0.15,0.46,0.22,0.76,0.22c0.77,0,1.16-0.24,1.16-0.72c0-0.41-0.52-0.76-1.56-1.05
			c-2.12-0.63-3.17-1.74-3.17-3.33c0.06-2.11,1.24-3.2,3.53-3.27C80.9,4.62,82.08,5.69,82.35,7.8z"/>
		<path d="M85.23,4.59h-0.12c0,0.45-0.37,0.82-0.82,0.82c-0.45,0-0.82-0.37-0.82-0.82c0-0.45,0.37-0.82,0.82-0.82
			c0.45,0,0.82,0.37,0.82,0.82H85.23h0.12c0-0.59-0.47-1.06-1.06-1.06c-0.59,0-1.06,0.47-1.06,1.06c0,0.59,0.47,1.06,1.06,1.06
			c0.59,0,1.06-0.47,1.06-1.06H85.23z"/>
		<path d="M84.88,5.1v0.03H84.6l-0.4-0.52l-0.1,0.01v0.33c-0.01,0.11,0.04,0.16,0.15,0.15v0.03h-0.47V5.1
			c0.11,0.01,0.16-0.05,0.15-0.17V4.2c0.01-0.11-0.04-0.16-0.15-0.15V4.02h0.47c0.28,0,0.43,0.1,0.43,0.29c0,0.16-0.1,0.25-0.3,0.28
			l0.34,0.43C84.77,5.08,84.82,5.1,84.88,5.1z M84.1,4.14v0.42c0.26,0.01,0.4-0.07,0.4-0.24c0-0.15-0.1-0.23-0.29-0.23
			C84.13,4.07,84.1,4.09,84.1,4.14z"/>
	</g>
</g>
<g id="Calque_1">
	<g>
		<g>
			<path d="M74.35-18.7c-0.08-0.1-0.21-0.15-0.3-0.19c-0.09-0.04-0.07-0.13-0.15-0.15c-0.07-0.02-0.21,0.13-0.31,0.1
				c-0.1-0.03-0.09-0.22-0.18-0.25c-0.09-0.03-0.24,0.11-0.32,0.09c-0.08-0.02-0.09-0.22-0.17-0.25c-0.08-0.02-0.24,0.12-0.32,0.09
				c-0.08-0.03-0.08-0.22-0.17-0.25c-0.09-0.03-0.24,0.12-0.32,0.09c-0.08-0.02-0.09-0.22-0.17-0.25c-0.08-0.03-0.24,0.12-0.32,0.09
				c-0.08-0.03-0.1-0.22-0.18-0.25c-0.07-0.02-0.22,0.09-0.34,0.09c-0.82-0.08-1.14-0.6-1.2-0.44c-0.06,0.15,0.17,0.52,0.46,0.64
				c0.23,0.1,2.68,0.78,2.75,0.81c0.06,0.03,0.22,0.1,0.16,0.19c-0.09,0.11-0.33,0-0.39-0.05c-0.06-0.05-0.05-0.07-0.11-0.09
				c-0.13-0.03-0.2,0.21-0.34,0.18c-0.13-0.03-0.12-0.28-0.25-0.31c-0.14-0.03-0.21,0.21-0.34,0.18c-0.11-0.03-0.13-0.28-0.25-0.31
				c-0.14-0.03-0.2,0.21-0.34,0.17c-0.12-0.03-0.12-0.28-0.25-0.31c-0.13-0.03-0.22,0.2-0.34,0.18c-0.12-0.03-0.14-0.29-0.25-0.31
				c-0.11-0.02-0.2,0.11-0.35,0.13c0,0-0.43,0.12-1.11-0.59c-0.68-0.71-0.96-0.85-1.35-0.56c-0.63,0.47-1.02,0.16-1.14,0.02
				c-0.14-0.16,0.01-0.31,0.01-0.31s0.2,0.31,0.45,0.32c0.41,0.01,0.71-0.54,1.41-0.55c0.88-0.03,1.11,0.28,1.36,0.31
				c0.22,0.02,0.3-0.01,0.45-0.1h0c0.13-0.04,0.23,0.2,0.37,0.15c0.14-0.05,0.04-0.3,0.19-0.35c0.14-0.05,0.23,0.2,0.36,0.15
				c0.14-0.05,0.05-0.3,0.19-0.35c0.14-0.05,0.22,0.2,0.36,0.14c0.14-0.05,0.05-0.3,0.18-0.35c0.14-0.05,0.23,0.19,0.37,0.15
				c0.13-0.05,0.05-0.31,0.19-0.35c0.14-0.05,0.23,0.2,0.37,0.14c0.12-0.04,0.05-0.3,0.18-0.35c0.12-0.05,0.24,0.19,0.37,0.15
				c0.12-0.04,0.05-0.3,0.18-0.35c0.14-0.05,0.24,0.19,0.37,0.15c0.13-0.05,0.03-0.25,0.2-0.34c0,0,0.23-0.08,0.22-0.25
				c0-0.03-0.05-0.39-0.43-0.47c-0.37-0.07-3.25,0.73-3.29,0.68c-0.27-0.53-0.61-0.38-0.66-0.37c-0.05,0.01-0.38,0.15-0.73,0.01
				c-0.7-0.32-1.26,0.49-1.65,0.38c-0.35-0.1-0.62-0.04-0.77,0.01c-0.14,0.05-0.36,0.22-0.82,0.06c-3.61-1.23-6.42-0.15-6.42-0.15
				c-1.59,0.53-1.79,0-1.79,0s-0.52-0.71,3.16-1.56c5.29-1.22,5.45-3.23,5.39-3.35c-0.09-0.18-0.12,0.03-0.29,0.23
				c-0.15,0.17-0.32,0.08-0.32,0.08c-0.17-0.08-0.27,0.11-0.27,0.11s-0.21,0.33-0.4,0.14c-0.18-0.18-0.42,0.23-0.51,0.25
				c-0.11,0.02-0.16-0.03-0.31-0.1c-0.22-0.1-0.45,0.3-0.57,0.33c-0.18,0.04-0.31-0.22-0.47-0.11c-0.47,0.32-0.54,0.37-0.67,0.24
				c-0.09-0.1-0.11-0.2-0.42,0.1c-0.27,0.26-0.4,0.3-0.5,0.14c-0.11-0.16-0.08-0.39-0.54,0.05c-0.22,0.21-0.33,0.21-0.46,0.12
				c-0.09-0.07-0.09-0.41-0.42-0.1c-0.3,0.28-0.52,0.4-0.6,0.15c-0.09-0.28-0.45,0.05-0.53,0.13c-0.08,0.08-0.27,0.28-0.39,0.07
				c-0.13-0.21-0.43,0.1-0.61,0.3c-0.14,0.16-0.25,0.04-0.4-0.06c-0.17-0.11-0.67,0.58-0.71,0.62c-0.05,0.04-0.08,0-0.2-0.1
				c-0.18-0.15-0.65,0.68-0.73,0.73c0,0-0.03,0.07-0.16-0.05c-0.18-0.18-1.16,1.11-1.53,2.57c-0.47,1.87,0.28,3.3,0.28,3.3
				s0.23,0.01,0.32-0.15l0.15-0.33c0.12-0.28,0.31-0.19,0.31-0.19l-0.46,1.37c-0.07,0.18-0.03,0.44,0.13,0.68
				c0.15,0.24,0.26,0.41,0.38,0.52c0.37,0.35,0.34-0.06,0.35-0.12c0.04-0.22,0.29-0.05,0.48,0.06c0.35,0.2,0.31-0.24,0.39-0.38
				c0.05-0.1,0.23-0.11,0.41,0.05c0.15,0.12,0.29-0.29,0.29-0.29c0.18-0.88-0.25-0.98-0.48-1l-0.47-0.02c0,0,0.03-0.13,0.08-0.26
				l0.02-0.09c0.51-1.28-0.34-1.52-0.6-1.5c-0.28,0.03-0.26-0.15-0.26-0.15s1.55-0.3,1.26,1.34c0,0-0.06,0.29-0.09,0.43l0.42,0.05
				c0.37,0.05,0.43,0.48,0.43,0.48s1.35,0.36,2.11,0.21c0,0,0.34-0.08,0.44-0.29c0,0,0.49-1.16,1.94-1.21c0,0,0.05,0.15-0.18,0.23
				c-0.28,0.09-1.2,0.17-1.39,1.22v0c-0.02,0.17,0.03,0.54,0.4,0.71c0.32,0.14,0.43,0.73,0.5,0.89c0.19,0.45,0.47,0.02,0.47,0.02
				s0.18-0.36,0.33-0.16c0.26,0.34,0.38,0.17,0.43-0.05c0.06-0.23,0.16-0.33,0.43-0.05c0.11,0.12,0.34,0.03,0.36-0.18
				c0.05-0.46,0.36-0.09,0.4-0.08c0.05,0.02,0.38-0.05,0.2-0.57c0,0-0.25-0.5-1.36-0.71c-0.26-0.05-0.22-0.24-0.22-0.24l0.25,0.03
				c0.07,0.01,0.72,0.08,0.79,0.09c2.72,0.27,4.78-0.65,4.84-0.72c2.11,0.4,4.98,0.27,5.52,0.07C74.38-18.3,74.42-18.61,74.35-18.7z
				 M70-22.06c0.04-0.07,0.09-0.11,0.12-0.13c0.16-0.09,0.27,0.2,0.25,0.21c0,0,0,0-0.01,0c0,0,0,0,0,0
				c-0.03,0.01-0.34,0.1-0.37,0.08C69.93-21.94,70-22.06,70-22.06z M68.8-21.97c0,0,0.04-0.05,0.12-0.08
				c0.08-0.03,0.2-0.03,0.35,0.07c0.18,0.11,0.17,0.2,0.17,0.2c-0.01,0-0.01,0.01-0.02,0.01c-0.13,0.05-0.66,0.12-0.66,0.12
				C68.65-21.84,68.8-21.97,68.8-21.97z M58.85-24.55c0.09,0.07,0,0.47-0.06,0.41l-0.46-0.24C58.33-24.39,58.76-24.62,58.85-24.55z
				 M58.1-24.3c0.09,0.07,0.01,0.47-0.06,0.41l-0.46-0.24C57.58-24.13,58.01-24.37,58.1-24.3z M57.84-23.52
				c0.09,0.07,0.01,0.47-0.06,0.41l-0.46-0.25C57.32-23.36,57.75-23.59,57.84-23.52z M57.4-22.48l-0.46-0.24
				c0,0,0.43-0.23,0.52-0.16C57.55-22.82,57.47-22.42,57.4-22.48z M57.32-21.69l-0.46-0.24c0,0,0.43-0.23,0.52-0.16
				C57.47-22.03,57.38-21.63,57.32-21.69z M57.31-24.02c0.09,0.07,0.01,0.46-0.06,0.41l-0.46-0.25
				C56.79-23.86,57.22-24.09,57.31-24.02z M56.91-23.41c0.09,0.07,0,0.46-0.06,0.41l-0.46-0.24C56.39-23.25,56.82-23.48,56.91-23.41
				z M56.09-22.46c0,0,0.43-0.23,0.52-0.16c0.09,0.07,0.01,0.47-0.06,0.41L56.09-22.46z M56.44-21.47l-0.46-0.25
				c0,0,0.43-0.23,0.52-0.16C56.59-21.81,56.51-21.41,56.44-21.47z M56.11-23.14c0.09,0.07,0,0.46-0.06,0.41l-0.46-0.25
				C55.6-22.98,56.02-23.21,56.11-23.14z M55.7-22.34c0.09,0.07,0.01,0.47-0.06,0.41l-0.46-0.24C55.18-22.17,55.61-22.4,55.7-22.34z
				 M55.1-21.39c0,0,0.43-0.23,0.52-0.16c0.09,0.07,0,0.47-0.06,0.41L55.1-21.39z M55.92-20.49l-0.46-0.24c0,0,0.43-0.23,0.52-0.16
				C56.07-20.83,55.98-20.43,55.92-20.49z M56.58-19.95l-0.46-0.24c0,0,0.43-0.23,0.52-0.16C56.73-20.29,56.64-19.89,56.58-19.95z
				 M56.78-20.79l-0.46-0.25c0,0,0.43-0.23,0.52-0.16C56.93-21.13,56.85-20.73,56.78-20.79z M57.39-19.59l-0.46-0.24
				c0,0,0.43-0.23,0.52-0.16C57.54-19.93,57.46-19.54,57.39-19.59z M57.61-20.36l-0.46-0.24c0,0,0.43-0.23,0.52-0.16
				C57.76-20.7,57.68-20.3,57.61-20.36z M57.77-21.09l-0.46-0.25c0,0,0.43-0.23,0.52-0.16C57.92-21.43,57.83-21.03,57.77-21.09z
				 M58.41-19.69l-0.46-0.25c0,0,0.43-0.23,0.52-0.16C58.56-20.03,58.48-19.63,58.41-19.69z M58.61-20.45l-0.46-0.24
				c0,0,0.43-0.23,0.52-0.16C58.76-20.79,58.67-20.39,58.61-20.45z M58.78-21.26l-0.46-0.24c0,0,0.43-0.23,0.52-0.16
				C58.93-21.6,58.84-21.2,58.78-21.26z M59.42-19.83l-0.46-0.24c0,0,0.43-0.23,0.52-0.16C59.57-20.17,59.48-19.77,59.42-19.83z
				 M59.58-20.65l-0.46-0.25c0,0,0.43-0.23,0.52-0.16C59.73-20.99,59.64-20.59,59.58-20.65z M59.74-21.49l-0.46-0.25
				c0,0,0.43-0.23,0.52-0.16C59.89-21.83,59.8-21.43,59.74-21.49z M60.43-20.15l-0.46-0.24c0,0,0.43-0.23,0.52-0.16
				C60.58-20.49,60.49-20.09,60.43-20.15z M60.55-20.96l-0.46-0.24c0,0,0.43-0.23,0.52-0.16C60.71-21.3,60.62-20.9,60.55-20.96z
				 M60.71-21.75l-0.46-0.24c0,0,0.43-0.23,0.52-0.17C60.86-22.09,60.78-21.69,60.71-21.75z M61.42-20.32l-0.46-0.25
				c0,0,0.43-0.23,0.52-0.16C61.57-20.66,61.48-20.27,61.42-20.32z M61.54-21.07l-0.46-0.24c0,0,0.43-0.23,0.52-0.16
				C61.69-21.42,61.61-21.02,61.54-21.07z M61.69-21.88l-0.46-0.24c0,0,0.43-0.23,0.52-0.16C61.84-22.22,61.76-21.82,61.69-21.88z
				 M62.33-20.31l-0.46-0.24c0,0,0.43-0.23,0.52-0.16C62.48-20.65,62.4-20.25,62.33-20.31z M62.48-21.12l-0.46-0.24
				c0,0,0.43-0.23,0.52-0.16C62.63-21.46,62.55-21.06,62.48-21.12z M62.65-21.92l-0.46-0.24c0,0,0.43-0.23,0.52-0.16
				C62.81-22.26,62.72-21.86,62.65-21.92z M63.29-20.31l-0.46-0.25c0,0,0.43-0.23,0.52-0.16C63.44-20.65,63.35-20.25,63.29-20.31z
				 M63.44-21.07l-0.46-0.25c0,0,0.43-0.23,0.52-0.16C63.59-21.41,63.5-21.01,63.44-21.07z M63.61-21.85l-0.46-0.24
				c0,0,0.43-0.23,0.52-0.16C63.76-22.19,63.67-21.79,63.61-21.85z M64.19-20.19l-0.46-0.25c0,0,0.43-0.23,0.52-0.16
				C64.34-20.54,64.25-20.14,64.19-20.19z M64.35-20.93l-0.46-0.24c0,0,0.43-0.23,0.52-0.16C64.5-21.27,64.41-20.87,64.35-20.93z
				 M64.53-21.69l-0.46-0.24c0,0,0.43-0.23,0.52-0.17C64.68-22.03,64.59-21.63,64.53-21.69z M65.24-20.77l-0.46-0.24
				c0,0,0.43-0.23,0.52-0.17C65.39-21.11,65.31-20.71,65.24-20.77z"/>
		</g>
		<g>
			<path d="M53.16-13.81c-0.1-0.25-0.28-0.36-0.61-0.37c-0.03,0-1.58,0-1.58,0l-2.29,6.23c0,0,1.11,0,1.11,0
				c0.1,0.01,0.19-0.01,0.27-0.04c0.22-0.1,0.32-0.35,0.35-0.44c0,0,0.31-0.87,0.33-0.92c0.16,0,2.18,0,2.3,0
				c0.05,0.15,0.47,1.4,0.47,1.4h1.51l-0.96-3.03L53.16-13.81 M52.7-10.63c-0.23,0-1.46,0-1.55,0c0.17-0.46,0.58-1.62,0.76-2.09
				C52.07-12.24,52.7-10.65,52.7-10.63z"/>
			<path d="M64.01-14.23L64.01-14.23L64.01-14.23c-1.78,0-3.08,1.34-3.08,3.18c0,1.8,1.32,3.16,3.08,3.16
				c1.75,0,3.13-1.39,3.13-3.16C67.14-12.83,65.76-14.23,64.01-14.23 M64.05-9.27c-0.91,0-1.62-0.79-1.62-1.79
				c0-0.99,0.7-1.74,1.62-1.74c0.92,0,1.58,0.73,1.58,1.74C65.63-10.04,64.95-9.27,64.05-9.27z"/>
			<path d="M71.17-11.6l-0.06-0.02c0,0-0.58-0.18-0.58-0.18l-0.09-0.03c-0.47-0.17-0.81-0.32-0.81-0.59c0-0.01,0-0.01,0-0.02
				c0.05-0.46,0.9-0.46,0.91-0.46c0.47,0,0.83,0.07,1.29,0.26l0.01,0l0.02,0.01c0.11,0.02,0.2,0.02,0.27,0.01l0.13-0.05
				c0.18-0.1,0.36-0.63,0.43-0.85l0.02-0.07l-0.06-0.05c-0.02-0.02-0.16-0.13-0.64-0.31c-0.49-0.18-1.19-0.21-1.19-0.21l-0.34,0
				c-1.8,0-2.48,1.11-2.51,1.85c-0.01,0.74,0.41,1.12,1.05,1.47c0.27,0.15,0.76,0.28,1.11,0.38c0,0,0.37,0.11,0.37,0.11
				c0.67,0.21,0.93,0.44,0.88,0.81c-0.02,0.12-0.25,0.32-0.76,0.32c-0.39,0-0.74-0.06-1.11-0.19c-0.18-0.07-0.36-0.16-0.55-0.28
				l-0.01-0.01l-0.02-0.01c-0.11-0.04-0.2-0.06-0.28-0.05l-0.14,0.03c-0.21,0.08-0.49,0.6-0.61,0.82l-0.05,0.09l0.08,0.06
				c0.01,0.01,0.33,0.26,0.6,0.42c0.32,0.18,0.68,0.31,1.1,0.39c0.17,0.03,0.44,0.07,0.87,0.07c1.39,0,2.41-0.71,2.52-1.76
				C73.06-10.59,72.47-11.21,71.17-11.6z"/>
			<path d="M74.15-14.17c-0.06,0-0.36,0.01-0.54,0.17c-0.08,0.07-0.12,0.17-0.12,0.28l0,0.99c0,0,1.68,0,1.9,0c0,0.23,0,4.79,0,4.79
				l1.56,0c0,0,0-4.56,0-4.79c0.21,0,1.22,0,1.22,0c0.06,0,0.36-0.01,0.54-0.17c0.08-0.08,0.12-0.17,0.12-0.28v-0.98H74.15z"/>
			<path d="M47.44-9.36c0,0-1.31,0-1.75,0c0-0.23,0-4.24,0-4.24c0-0.18-0.05-0.32-0.16-0.41c-0.17-0.16-0.42-0.16-0.52-0.16l-0.92,0
				l0,6.22h3.9l0-0.99C47.99-9.06,47.94-9.36,47.44-9.36z"/>
			<path d="M58.58-12.85c0.38-0.03,0.7,0,1,0.08c0.16,0.05,0.31,0.06,0.43,0.03c0,0,0.12-0.06,0.12-0.06
				c0.17-0.11,0.3-0.65,0.36-0.97l0.01-0.07l-0.06-0.05c-0.02-0.01-0.07-0.05-0.63-0.2c-0.51-0.14-0.97-0.16-1.2-0.15l-0.02,0
				c-1.29,0-3.23,0.85-3.29,3.2v0.01c0.06,2.34,2,3.2,3.29,3.2l0.02,0c0.23,0,0.68-0.02,1.2-0.16c0.56-0.15,0.61-0.19,0.63-0.2
				l0.06-0.04L60.49-8.3c-0.06-0.32-0.18-0.86-0.36-0.97v0l0,0l0,0L60-9.32c-0.12-0.03-0.27-0.02-0.43,0.03
				c-0.3,0.08-0.62,0.11-1,0.08c-0.98-0.1-1.56-0.76-1.61-1.82C57.01-12.09,57.6-12.75,58.58-12.85z"/>
			<path d="M83.44-7.95c0.24-0.01,0.65-0.15,0.65-0.63l0-0.78l-2.74,0c0,0,0-0.9,0-1.04c0.23,0,2.27,0,2.27,0l0-1.44
				c0,0-2.03,0-2.26,0c0-0.17,0-0.72,0-0.9c0.22,0,2.08,0,2.08,0c0.06,0,0.37,0,0.54-0.17c0.12-0.12,0.12-0.33,0.12-0.44v-0.82
				h-4.32l0,6.22L83.44-7.95z"/>
		</g>
	</g>
</g>
<g id="svg3153">
	<g id="g3284" transform="matrix(3.3946588,0,0,3.3946588,-20.16715,-25.345386)">
		<g id="g3222">
			<path id="path3086" d="M10.36,13.83l0-1.2l1.14-0.42l-1.15-0.38l-0.02-1.18l-0.7,0.95l-1.14-0.35l0.66,1l-0.65,1l1.13-0.37
				L10.36,13.83z"/>
			<path id="path3088" d="M10.5,15.09h2.05l2.57-2.84L12.54,9.4h-2.03l2.41,2.84L10.5,15.09z"/>
		</g>
		<g id="g3274">
			<path id="path3226" d="M5.94,16.61c0-0.37,0.31-0.73,0.74-0.73c0.29,0,0.62,0.33,0.62,0.33l-0.35,0.21c0,0-0.06-0.15-0.28-0.15
				c-0.22,0-0.35,0.18-0.35,0.35c0,0.18,0.15,0.35,0.34,0.35c0.15,0,0.31-0.16,0.31-0.16l0.3,0.22c0,0-0.23,0.28-0.6,0.28
				C6.28,17.29,5.94,17.06,5.94,16.61L5.94,16.61z"/>
			<path id="path3231" d="M8.14,15.9c-0.4,0-0.72,0.32-0.72,0.71c0,0.39,0.32,0.71,0.72,0.71c0.4,0,0.72-0.32,0.72-0.71
				C8.86,16.22,8.54,15.9,8.14,15.9z M8.14,16.25c0.2,0,0.36,0.16,0.36,0.35c0,0.2-0.16,0.35-0.36,0.35c-0.2,0-0.36-0.16-0.36-0.35
				C7.78,16.41,7.94,16.25,8.14,16.25z"/>
			<path id="rect3234" d="M9.13,15.92v1.32h0.35v-0.71l0.57,0.71h0.34v-1.32h-0.35v0.77l-0.56-0.77H9.13z"/>
			<path id="path3239" d="M10.67,15.92l0.47,1.32h0.52l0.47-1.32h-0.38l-0.35,1.05l-0.35-1.05H10.67z"/>
			<path id="path3246" d="M12.37,15.92v1.32h1.06v-0.3h-0.72v-0.22h0.64v-0.27h-0.64v-0.21h0.72v-0.32H12.37z"/>
			<path id="path3258" d="M16.66,15.92v1.32h1.06v-0.3h-0.72v-0.22h0.64v-0.27h-0.64v-0.21h0.72v-0.32H16.66z"/>
			<path id="rect3260" d="M13.83,15.95v1.3h0.31v-0.51h0.18l0.27,0.51h0.4l-0.27-0.56c0.35-0.21,0.28-0.64-0.11-0.75H13.83z
				 M14.13,16.26h0.35c0.12,0,0.12,0.19,0,0.19h-0.35V16.26z"/>
			<path id="path3272" d="M15.16,17.07c0.01,0.08,0.34,0.24,0.65,0.24c0.29,0,0.53-0.14,0.53-0.42c0-0.34-0.4-0.42-0.4-0.42
				s-0.33,0-0.34-0.16c0-0.07,0.1-0.11,0.19-0.11c0.15,0,0.31,0.15,0.31,0.15l0.23-0.25c0,0-0.29-0.23-0.54-0.23
				c-0.24,0-0.57,0.15-0.57,0.48c0,0.27,0.39,0.4,0.39,0.4s0.41,0.04,0.41,0.17c0,0.09-0.15,0.11-0.24,0.11
				c-0.21,0-0.39-0.19-0.39-0.19L15.16,17.07z"/>
		</g>
	</g>
</g>
</svg>
