<?xml version="1.0" encoding="utf-8"?>
<!-- Generator: Adobe Illustrator 24.0.2, SVG Export Plug-In . SVG Version: 6.00 Build 0)  -->
<svg version="1.1" id="Capa_1" xmlns="http://www.w3.org/2000/svg" xmlns:xlink="http://www.w3.org/1999/xlink" x="0px" y="0px"
	 viewBox="0 0 40 40" style="enable-background:new 0 0 40 40;" xml:space="preserve">
<style type="text/css">
	.st0{fill-rule:evenodd;clip-rule:evenodd;}
	.st1{fill:#FFFFFF;}
</style>
<g id="Capa_1_1_">
</g>
<g id="Modo_de_aislamiento">
	<path d="M103.6,13.4c-2.6,3.1-5.1,6.8-5.1,9.7c0,1.1,0.3,2,1.2,2.7c1.2,1,2.5,1.4,3.8,1.4c1.9,0,3.8-0.8,5.2-1.3
		c2.5-1,29.7-12.8,29.7-12.8c0.3-0.1,0.2-0.3-0.1-0.2c-0.1,0-29.7,8-29.7,8c-0.6,0.2-1.1,0.2-1.7,0.3c-2.3,0-4.3-1.3-4.3-3.9
		C102.6,16.2,102.9,14.9,103.6,13.4"/>
	<g>
		<path class="st0" d="M117.7,71.7c-0.1,0-0.3,0.5-0.5,0.8c-0.2,0.2-0.4,0.2-0.5,0.4c-0.1,0.1,0,0.2-0.1,0.4
			c-0.1,0.3-0.5,0.3-0.5,0.6c0,0.3,0.3,0.4,0.6,0.6c0.2,0.2,0.2,0.3,0.5,0.4c0.2,0.1,0.5-0.2,0.8-0.1c0.2,0.1,0.5,0.1,0.5,0.4
			c0.1,0.2,0,0.6-0.3,0.5c-0.1,0-0.5-0.2-1-0.1c-0.6,0.1-1.3,0.3-1.4,1c0,0.4,0.4,0.8,0.9,0.7c0.3-0.1,0.2-0.4,0.3-0.6
			c0.2-0.2,1.5,0.8,2.7,0.8c0.5,0,0.9-0.1,1.2-0.5c0,0,0.1-0.1,0.1-0.1c0.1,0,0.1,0.1,0.2,0.1c1,0.8,1.7,2.3,5.2,2.3
			c0.5,0,1.1,0.2,1.5,0.7c0.4,0.4,0.7,1,0.9,1.6c0.4,0.9,1,1.8,1.9,2.8c0.1,0.1,0.8,0.7,0.9,0.7c0,0,0.1,0.2,0.1,0.2
			c0,0.6-0.1,2.3,1.2,2.4c0.3,0,0.2-0.2,0.2-0.3c0-0.3-0.1-0.6,0.1-0.9c0.2-0.4-0.4-0.6-0.4-1.5c0-0.7-0.6-0.6-0.8-1.1
			c-0.2-0.3-0.3-0.4-0.3-0.8c0.1-2-0.4-3.4-0.7-3.7c-0.2-0.3-0.4-0.3-0.2-0.5c1.1-0.7,1.3-1.3,1.3-1.3c0.6-1.3,1.1-2.5,1.8-3.1
			c0.1-0.1,0.5-0.4,0.7-0.5c0.6-0.3,1-0.5,1.2-0.7c0.3-0.3,0.5-0.9,0.3-1.3c-0.4-0.4-1-0.1-1.2,0.1c-1.9,1.2-2.2,3.2-2.9,4.3
			c-0.5,0.9-1.4,1.6-2.2,1.7c-0.6,0-1.2-0.1-1.8-0.3c-1.5-0.7-2.4-1.5-2.6-1.7c-0.4-0.3-3.6-3.4-6.2-3.6c0,0-0.3-0.6-0.4-0.7
			c-0.2,0-0.4,0.4-0.5,0.4C118.1,72.2,117.8,71.7,117.7,71.7L117.7,71.7z"/>
		<path class="st0" d="M106.4,90.3c-0.2,0-0.4-0.2-0.4-0.4v-8.1h-2.7v8.9c0,0.4,0.3,0.8,0.8,0.8h4.6c0.4,0,0.8-0.3,0.8-0.8v-8.9
			h-2.7v8.1C106.8,90.1,106.6,90.3,106.4,90.3L106.4,90.3z"/>
		<path class="st0" d="M115.2,81.8h-4c-0.5,0-0.9,0.4-0.9,0.9v8.8h2.7v-8.1c0-0.3,0.2-0.4,0.4-0.4s0.4,0.2,0.4,0.4v8.1h2.6v-8.1
			c0-0.2,0.2-0.4,0.4-0.4s0.4,0.2,0.4,0.4v8.1h2.7v-8.8c0-0.5-0.4-0.9-0.9-0.9H115.2L115.2,81.8z"/>
		<path class="st0" d="M101.5,89.1h-2.7v2.4h-2.7v-9.7h5.3c0.5,0,0.8,0.4,0.8,0.9v5.5C102.3,88.7,102,89.1,101.5,89.1L101.5,89.1z
			 M99.7,83.5c0-0.3-0.2-0.5-0.4-0.5h-0.4v4.9h0.4c0.2,0,0.4-0.2,0.4-0.4V83.5L99.7,83.5z"/>
		<path class="st0" d="M124.6,91.5v-2.4h-0.9v2.4H121v-8.8c0-0.5,0.4-0.9,0.9-0.9h4.5c0.5,0,0.9,0.4,0.9,0.9v8.8H124.6L124.6,91.5z
			 M124.6,87.9v-4.4c0-0.3-0.2-0.4-0.4-0.4c-0.2,0-0.4,0.2-0.4,0.4v4.4L124.6,87.9L124.6,87.9z"/>
	</g>
</g>
<g id="Layer_1">
	<g>
		<g id="XMLID_2_">
			<g>
				<path d="M135.3,58.3h-1.1h-0.6c-0.1-0.3-0.1-0.5-0.3-0.6c-0.2-0.2-0.5-0.3-0.9-0.3c-0.4,0-0.7,0.1-0.9,0.2
					c-0.1,0.1-0.2,0.3-0.2,0.5c0,0.3,0.4,0.5,1.1,0.6c0.8,0.2,1.4,0.3,1.8,0.5c0.1,0,0.2,0.1,0.2,0.1c0.7,0.3,1.1,0.9,1.1,1.6
					c0,0.9-0.4,1.5-1.1,1.9c-0.1,0-0.2,0.1-0.3,0.1c-0.5,0.2-1,0.3-1.6,0.3c-0.9,0-1.6-0.2-2.2-0.5c-0.4-0.2-0.6-0.5-0.8-0.8
					c-0.2-0.3-0.3-0.7-0.3-1.1h1.8c0,0.3,0.1,0.6,0.3,0.7c0.2,0.2,0.6,0.3,1.1,0.3c0.4,0,0.7-0.1,0.9-0.3c0.2-0.1,0.2-0.3,0.2-0.5
					c0-0.3-0.4-0.5-1.1-0.7c-1.1-0.2-1.8-0.4-2-0.5c-0.7-0.3-1.1-0.9-1.1-1.6c0-0.6,0.2-1.1,0.6-1.5c0.5-0.5,1.2-0.8,2.2-0.8
					c0.8,0,1.4,0.1,1.9,0.3c0,0,0.1,0,0.1,0.1c0.3,0.2,0.6,0.4,0.8,0.7C135.2,57.5,135.3,57.9,135.3,58.3z"/>
				<path d="M134.4,54.1C134.4,54,134.4,54,134.4,54.1c0-0.1-0.1-0.1-0.1-0.2c0,0-0.1,0-0.1,0h-0.1h-0.2v0.3h0.2c0,0,0,0,0.1,0
					c0.1,0,0.1,0,0.2,0C134.4,54.2,134.4,54.1,134.4,54.1z M134.5,53.9c0,0,0.1,0.1,0.1,0.2c0,0.1,0,0.2-0.1,0.2s-0.1,0.1-0.2,0.1
					c0,0,0.1,0,0.1,0.1l0.2,0.2l0.1,0.2h-0.2l-0.1-0.2c-0.1-0.1-0.1-0.2-0.2-0.2c0,0,0,0,0,0l-0.1,0h-0.1v0.5h-0.2v-1.1h0.4
					c0,0,0.1,0,0.1,0c0.1,0,0.2,0,0.2,0C134.4,53.8,134.5,53.8,134.5,53.9z"/>
				<path d="M135,54.3c0-0.2,0-0.3-0.1-0.4c-0.1-0.1-0.2-0.3-0.3-0.3c-0.1-0.1-0.3-0.1-0.4-0.1c0,0,0,0,0,0c-0.1,0-0.3,0-0.4,0.1
					c-0.1,0.1-0.3,0.2-0.3,0.3c-0.1,0.1-0.1,0.3-0.1,0.4c0,0.2,0,0.3,0.1,0.4c0.1,0.1,0.2,0.2,0.3,0.3c0.1,0.1,0.3,0.1,0.4,0.1
					c0,0,0,0,0,0c0.1,0,0.3,0,0.4-0.1c0.1-0.1,0.3-0.2,0.3-0.3C135,54.6,135,54.4,135,54.3z M135.2,54.3c0,0.2,0,0.3-0.1,0.5
					c-0.1,0.2-0.2,0.3-0.4,0.4c-0.2,0.1-0.3,0.1-0.5,0.1c0,0,0,0,0,0c-0.2,0-0.4,0-0.5-0.1c-0.2-0.1-0.3-0.2-0.4-0.4
					c-0.1-0.2-0.1-0.3-0.1-0.5c0-0.2,0-0.4,0.1-0.5s0.2-0.3,0.4-0.4s0.3-0.1,0.5-0.1c0,0,0,0,0,0c0.2,0,0.3,0,0.5,0.1
					s0.3,0.2,0.4,0.4C135.2,53.9,135.2,54.1,135.2,54.3z"/>
				<polygon points="125,45.8 129.9,54 125,54 122,54 117.3,46.2 113.7,40.2 117.3,38 119.5,36.7 				"/>
				<path d="M128.6,59.7v3.4h-1.6v-0.4c-0.6,0.4-1.2,0.6-1.9,0.6c0,0,0,0,0,0c-2,0-3.6-1.6-3.6-3.6c0-2,1.6-3.6,3.6-3.6c0,0,0,0,0,0
					c0.7,0,1.4,0.2,1.9,0.6v-0.4h1.6V59.7z M126.9,60.1v-0.8c-0.2-0.9-1-1.6-1.9-1.6c0,0,0,0,0,0c-1.1,0-1.9,0.9-1.9,2
					c0,1.1,0.9,2,1.9,2c0,0,0,0,0,0C125.9,61.7,126.7,61,126.9,60.1z"/>
				<path d="M120.8,59.7v3.4h-1.6v-0.4c-0.6,0.4-1.2,0.6-1.9,0.6c0,0,0,0,0,0c-2,0-3.6-1.6-3.6-3.6c0-2,1.6-3.6,3.6-3.6c0,0,0,0,0,0
					c0.7,0,1.4,0.2,1.9,0.6V54h1.6V59.7z M119.2,60.1v-0.8c-0.2-0.9-1-1.6-1.9-1.6c0,0,0,0,0,0c-1.1,0-1.9,0.9-1.9,2
					c0,1.1,0.9,2,1.9,2c0,0,0,0,0,0C118.2,61.7,119,61,119.2,60.1z"/>
				<polygon points="117.3,50.8 119.2,54 117.3,54 111.3,54 106.8,46.7 106.7,46.4 106.8,46.3 112.5,42.9 				"/>
				<rect x="111.3" y="56.2" width="1.8" height="7"/>
				<rect x="111.3" y="54" width="1.8" height="1.6"/>
				<path d="M110.4,59.7v3.4h-1.6v-0.4c-0.6,0.4-1.2,0.6-1.9,0.6c0,0,0,0,0,0c-2,0-3.6-1.6-3.6-3.6c0-2,1.6-3.6,3.6-3.6c0,0,0,0,0,0
					c0.7,0,1.4,0.2,1.9,0.6V54h1.6V59.7z M108.8,60.1v-0.8c-0.2-0.9-1-1.6-1.9-1.6c0,0,0,0,0,0c-1.1,0-1.9,0.9-1.9,2
					c0,1.1,0.9,2,1.9,2c0,0,0,0,0,0C107.8,61.7,108.6,61,108.8,60.1z"/>
				<polygon points="106.8,51.3 108.5,54 106.8,54 100.5,54 99.6,52.5 105.5,49 				"/>
				<path d="M102.7,59.7v3.4H101v-0.4c-0.6,0.4-1.2,0.6-1.9,0.6c0,0,0,0,0,0c-2,0-3.6-1.6-3.6-3.6c0-2,1.6-3.6,3.6-3.6c0,0,0,0,0,0
					c0.7,0,1.4,0.2,1.9,0.6v-0.4h1.6L102.7,59.7L102.7,59.7z M101,60.1v-0.8c-0.2-0.9-1-1.6-1.9-1.6c0,0,0,0,0,0
					c-1.1,0-1.9,0.9-1.9,2c0,1.1,0.9,2,1.9,2c0,0,0,0,0,0C100,61.7,100.8,61,101,60.1z"/>
			</g>
		</g>
	</g>
	<g>
		<path d="M100.8-11.2c0-0.3,0.2-0.5,1.3-0.5c0.7,0,1.5,0,2.4,0.3v-1.1c-0.5-0.1-1.2-0.3-2.4-0.3c-2,0-2.6,0.6-2.6,1.5
			c0,1.1,0.8,1.4,2.5,1.6c0.9,0.1,1.4,0.1,1.4,0.5c0,0.3-0.2,0.5-1.3,0.5c-0.8,0-1.7-0.1-2.5-0.4v1.1c0.9,0.2,1.6,0.3,2.5,0.3
			c1.5,0,2.6-0.3,2.6-1.5c0-1.2-0.8-1.3-2.5-1.5C101.4-10.7,100.8-10.8,100.8-11.2 M109-9.5c0,0.7-0.6,0.9-1.5,0.9
			c-1,0-1.2-0.2-1.2-0.5c0-0.3,0.3-0.4,1.2-0.5c0.7-0.1,1.4-0.3,1.6-0.4V-9.5z M110.1-9.3V-11c0-1.5-1.3-1.7-2.5-1.7
			c-0.6,0-1.4,0.1-2.1,0.3v1.1c0.8-0.2,1.6-0.3,2.1-0.3c0.6,0,1.3,0,1.3,0.4c0,0.3-0.4,0.5-1.3,0.6c-1.5,0.2-2.6,0.4-2.6,1.6
			c0,1.2,0.9,1.5,2.6,1.5C109.5-7.6,110.1-8.2,110.1-9.3 M112.8-7.6c0.4,0,0.9,0,1.3-0.1l-0.2-1c-0.3,0-0.8,0.1-1.2,0.1
			c-0.7,0-1.1-0.3-1.1-0.8v-3.2h-1.1v3.3C110.6-7.9,111.8-7.6,112.8-7.6L112.8-7.6z M118.2-10.1c0,0.2,0,0.4,0,0.6
			c-0.1,0.6-0.4,0.9-1.1,0.9h-0.6c-0.7,0-1-0.3-1.1-0.9c0-0.2,0-0.4,0-0.6c0-0.2,0-0.4,0-0.6c0.1-0.6,0.4-0.9,1.1-0.9h0.6
			c0.7,0,1,0.3,1.1,0.9C118.2-10.5,118.2-10.3,118.2-10.1 M119.3-9c0.1-0.3,0.1-0.6,0.1-1v-0.1v-0.1c0-0.4,0-0.7-0.1-1
			c-0.2-1-0.9-1.5-2.2-1.5h-0.6c-1.3,0-2,0.5-2.2,1.5c-0.1,0.3-0.1,0.6-0.1,1v0.1v0.1c0,0.3,0,0.7,0.1,1c0.2,1,0.9,1.5,2.2,1.5h0.6
			C118.4-7.5,119.1-8,119.3-9 M127.3-7.7h1.1V-10c0-0.4,0-0.8-0.1-1.1c-0.1-1-0.9-1.5-2.2-1.5h-0.3c-0.8,0-1.3,0.2-1.7,0.5
			c-0.4-0.4-0.9-0.5-1.7-0.5h-0.3c-1.3,0-2,0.5-2.2,1.5c-0.1,0.4-0.1,0.7-0.1,1.1v2.3h1.2V-10c0-0.2,0-0.5,0.1-0.7
			c0.1-0.6,0.4-0.9,1.1-0.9h0.3c0.7,0,1,0.3,1.1,0.9c0,0.2,0,0.4,0,0.7v2.3h1.2V-10c0-0.2,0-0.5,0-0.7c0.1-0.6,0.4-0.9,1.1-0.9h0.3
			c0.7,0,1,0.3,1.1,0.9c0,0.2,0.1,0.4,0.1,0.7C127.3-10,127.3-7.7,127.3-7.7z M132.9-10.1c0,0.2,0,0.4,0,0.6
			c-0.1,0.6-0.4,0.9-1.1,0.9h-0.6c-0.6,0-1-0.3-1.1-0.9c0-0.2,0-0.4,0-0.6c0-0.2,0-0.4,0-0.6c0.1-0.6,0.4-0.9,1.1-0.9h0.6
			c0.6,0,1,0.3,1.1,0.9C132.9-10.5,132.9-10.3,132.9-10.1 M133.9-9c0.1-0.3,0.1-0.6,0.1-1v-0.1v-0.1c0-0.4,0-0.7-0.1-1
			c-0.1-1-0.9-1.5-2.2-1.5h-0.6c-1.3,0-2.1,0.5-2.2,1.5c-0.1,0.3-0.1,0.6-0.1,1v0.1v0.1c0,0.3,0,0.7,0.1,1c0.1,1,0.9,1.5,2.2,1.5
			h0.6C133.1-7.5,133.8-8,133.9-9 M139.5-7.7V-10c0-0.4,0-0.8-0.1-1.1c-0.1-1-0.9-1.5-2.2-1.5h-0.5c-1.3,0-2.1,0.5-2.2,1.5
			c-0.1,0.3-0.1,0.7-0.1,1.1v2.3h1.1V-10c0-0.2,0-0.5,0-0.7c0.1-0.6,0.4-0.9,1.1-0.9h0.5c0.6,0,1,0.3,1.1,0.9c0,0.2,0,0.4,0,0.7v2.3
			C138.3-7.7,139.5-7.7,139.5-7.7z"/>
		<path d="M126.6-32.5c0.9,0,1.6,0.7,1.6,1.6v14.3c0,0.9-0.7,1.6-1.6,1.6h-14.3c-0.9,0-1.6-0.7-1.6-1.6v-14.3c0-0.9,0.7-1.6,1.6-1.6
			H126.6 M118.1-19.4c-0.2,0-0.4-0.1-0.6-0.2l-1.4-0.8c-0.2-0.1-0.4-0.2-0.6-0.2h-1.8c-0.2,0-0.3,0.1-0.3,0.3v1.9
			c0,0.4,0.3,0.6,0.7,0.7c3.6,0.4,7.2,0.4,10.8,0c0.4,0,0.7-0.3,0.7-0.7v-3.1c0-0.5-0.3-1-0.7-1.2l-7.3-4.1
			c-0.2-0.1-0.3-0.3-0.3-0.5c0-0.4,0.2-0.6,0.6-0.6h2.9c0.2,0,0.4,0.1,0.6,0.2l1.4,0.8c0.2,0.1,0.4,0.2,0.6,0.2h1.8
			c0.2,0,0.3-0.1,0.3-0.3V-29c0-0.4-0.3-0.6-0.7-0.7c-3.6-0.4-7.2-0.4-10.8,0c-0.4,0-0.7,0.3-0.7,0.7v3.1c0,0.5,0.3,1,0.7,1.2
			l7.3,4.1c0.2,0.1,0.3,0.3,0.3,0.5c0,0.4-0.2,0.6-0.6,0.6H118.1z"/>
	</g>
	<text transform="matrix(1 0 0 1 -45.7778 23.9307)" style="font-family:'Gilroy-ExtraBold'; font-size:13.4112px;">TODO</text>
	<g>
		<path d="M-39.8,30.1v1.8H-42v6.5h-1.9v-6.5H-46v-1.8C-46,30.1-39.8,30.1-39.8,30.1z"/>
		<path d="M-31.9,37.4c-0.8,0.8-1.9,1.3-3.1,1.3s-2.2-0.4-3.1-1.3c-0.8-0.8-1.3-1.9-1.3-3.1s0.4-2.3,1.3-3.1
			c0.8-0.8,1.9-1.3,3.1-1.3c1.2,0,2.2,0.4,3.1,1.3c0.8,0.8,1.3,1.9,1.3,3.1S-31.1,36.5-31.9,37.4z M-36.7,36.1
			c0.5,0.5,1,0.7,1.7,0.7s1.3-0.2,1.7-0.7s0.7-1.1,0.7-1.8s-0.2-1.3-0.7-1.8s-1-0.7-1.7-0.7s-1.3,0.2-1.7,0.7s-0.7,1.1-0.7,1.8
			S-37.2,35.6-36.7,36.1z"/>
		<path d="M-25.8,30.1c1.1,0,2.1,0.4,2.9,1.2c0.8,0.8,1.2,1.8,1.2,3c0,1.2-0.4,2.2-1.2,3c-0.8,0.8-1.7,1.2-2.9,1.2h-3.3v-8.4
			L-25.8,30.1L-25.8,30.1z M-25.8,36.6c0.7,0,1.2-0.2,1.6-0.6s0.6-1,0.6-1.7s-0.2-1.3-0.6-1.7s-0.9-0.6-1.6-0.6h-1.4v4.7H-25.8z"/>
		<path d="M-15.1,38.4l-0.4-1.3h-3.1l-0.4,1.3h-2.1l2.8-8.4h2.4l2.8,8.4H-15.1z M-18.1,35.3h2l-1-3.1L-18.1,35.3z"/>
		<path d="M-9.1,38.6c-0.9,0-1.6-0.2-2.1-0.6c-0.6-0.4-1-0.9-1.2-1.5l1.6-1c0.3,0.8,0.9,1.2,1.8,1.2c0.8,0,1.1-0.2,1.1-0.7
			c0-0.3-0.1-0.4-0.4-0.6C-8.5,35.3-9,35.2-9.7,35c-0.4-0.1-0.7-0.2-0.9-0.3s-0.5-0.3-0.8-0.5c-0.3-0.2-0.4-0.4-0.6-0.7
			s-0.2-0.6-0.2-1c0-0.8,0.3-1.4,0.8-1.9c0.6-0.5,1.2-0.7,2-0.7c0.7,0,1.3,0.2,1.8,0.5s0.9,0.8,1.2,1.4l-1.6,0.9
			C-8,32.4-8.2,32.2-8.4,32s-0.5-0.2-0.9-0.2c-0.3,0-0.5,0.1-0.7,0.2c-0.2,0.1-0.2,0.3-0.2,0.5c0,0.2,0.1,0.4,0.3,0.5
			s0.6,0.3,1.2,0.5c0.3,0.1,0.6,0.2,0.8,0.3c0.2,0.1,0.4,0.2,0.7,0.3c0.3,0.2,0.5,0.3,0.6,0.5c0.2,0.2,0.3,0.4,0.4,0.6
			c0.1,0.3,0.2,0.6,0.2,0.9c0,0.8-0.3,1.4-0.9,1.9C-7.5,38.4-8.2,38.6-9.1,38.6z"/>
	</g>
	<g>
		<polygon points="55.7,0 58.6,0 53.8,15.1 50.2,15.1 45.3,0.1 48.3,0.1 52.1,11.6 		"/>
		<rect x="55.7" class="st0" width="27.1" height="2.6"/>
		<path d="M59.1,15.1h-2.6l3-10.2h2.7l3,10.2h-2.7l-0.3-1.3h-2.7L59.1,15.1z M61.6,11.6l-0.9-3.7l-0.8,3.7H61.6z"/>
		<polygon points="68.5,4.9 71.4,10.4 71.3,8.1 71.3,4.9 73.9,4.9 73.9,15.1 71.4,15.1 68.4,9.5 68.6,11.9 68.6,15.1 66,15.1 
			66,4.9 		"/>
		<path d="M82.3,7.8h-2.5c0-0.3-0.2-0.6-0.4-0.7C79.3,7,79,6.9,78.7,6.9c-0.6,0-0.9,0.2-0.9,0.6c0,0.4,0.5,0.7,1.6,1.1
			c2.1,0.6,3.1,1.7,3.1,3.2c-0.1,2.3-1.3,3.4-3.8,3.4c-2.2-0.1-3.4-1.2-3.7-3.3h2.6c0.1,0.4,0.2,0.6,0.4,0.8
			c0.2,0.1,0.5,0.2,0.8,0.2c0.8,0,1.2-0.2,1.2-0.7c0-0.4-0.5-0.8-1.6-1.1c-2.1-0.6-3.2-1.7-3.2-3.3c0.1-2.1,1.2-3.2,3.5-3.3
			C80.9,4.6,82.1,5.7,82.3,7.8z"/>
		<path d="M85.2,4.6h-0.1c0,0.4-0.4,0.8-0.8,0.8S83.5,5,83.5,4.6c0-0.4,0.4-0.8,0.8-0.8s0.8,0.4,0.8,0.8H85.2h0.1
			c0-0.6-0.5-1.1-1.1-1.1S83.2,4,83.2,4.6s0.5,1.1,1.1,1.1s1.1-0.5,1.1-1.1H85.2z"/>
		<path d="M84.9,5.1L84.9,5.1l-0.3,0l-0.4-0.5l-0.1,0V5c0,0.1,0,0.2,0.2,0.2v0h-0.5v0c0.1,0,0.2-0.1,0.2-0.2V4.2
			c0-0.1,0-0.2-0.2-0.2v0h0.5c0.3,0,0.4,0.1,0.4,0.3c0,0.2-0.1,0.3-0.3,0.3L84.7,5C84.8,5.1,84.8,5.1,84.9,5.1z M84.1,4.1v0.4
			c0.3,0,0.4-0.1,0.4-0.2c0-0.2-0.1-0.2-0.3-0.2C84.1,4.1,84.1,4.1,84.1,4.1z"/>
	</g>
</g>
<g id="Calque_1">
	<g>
		<g>
			<path d="M74.3-18.7c-0.1-0.1-0.2-0.1-0.3-0.2C74-18.9,74-19,73.9-19c-0.1,0-0.2,0.1-0.3,0.1c-0.1,0-0.1-0.2-0.2-0.3
				c-0.1,0-0.2,0.1-0.3,0.1s-0.1-0.2-0.2-0.3c-0.1,0-0.2,0.1-0.3,0.1s-0.1-0.2-0.2-0.3s-0.2,0.1-0.3,0.1c-0.1,0-0.1-0.2-0.2-0.3
				s-0.2,0.1-0.3,0.1s-0.1-0.2-0.2-0.3c-0.1,0-0.2,0.1-0.3,0.1c-0.8-0.1-1.1-0.6-1.2-0.4c-0.1,0.1,0.2,0.5,0.5,0.6
				c0.2,0.1,2.7,0.8,2.8,0.8c0.1,0,0.2,0.1,0.2,0.2c-0.1,0.1-0.3,0-0.4,0s-0.1-0.1-0.1-0.1c-0.1,0-0.2,0.2-0.3,0.2
				c-0.1,0-0.1-0.3-0.3-0.3c-0.1,0-0.2,0.2-0.3,0.2c-0.1,0-0.1-0.3-0.3-0.3c-0.1,0-0.2,0.2-0.3,0.2c-0.1,0-0.1-0.3-0.3-0.3
				c-0.1,0-0.2,0.2-0.3,0.2c-0.1,0-0.1-0.3-0.3-0.3c-0.1,0-0.2,0.1-0.3,0.1c0,0-0.4,0.1-1.1-0.6c-0.7-0.7-1-0.9-1.3-0.6
				c-0.6,0.5-1,0.2-1.1,0c-0.1-0.2,0-0.3,0-0.3s0.2,0.3,0.4,0.3c0.4,0,0.7-0.5,1.4-0.5c0.9,0,1.1,0.3,1.4,0.3c0.2,0,0.3,0,0.4-0.1
				l0,0c0.1,0,0.2,0.2,0.4,0.1c0.1,0,0-0.3,0.2-0.4c0.1,0,0.2,0.2,0.4,0.1c0.1,0,0.1-0.3,0.2-0.4c0.1,0,0.2,0.2,0.4,0.1
				c0.1,0,0.1-0.3,0.2-0.4c0.1,0,0.2,0.2,0.4,0.1c0.1,0,0.1-0.3,0.2-0.4c0.1,0,0.2,0.2,0.4,0.1c0.1,0,0.1-0.3,0.2-0.4
				c0.1,0,0.2,0.2,0.4,0.1c0.1,0,0.1-0.3,0.2-0.4c0.1,0,0.2,0.2,0.4,0.1c0.1,0,0-0.3,0.2-0.3c0,0,0.2-0.1,0.2-0.3
				c0,0-0.1-0.4-0.4-0.5c-0.4-0.1-3.3,0.7-3.3,0.7c-0.3-0.5-0.6-0.4-0.7-0.4c-0.1,0-0.4,0.1-0.7,0c-0.7-0.3-1.3,0.5-1.7,0.4
				c-0.3-0.1-0.6,0-0.8,0c-0.1,0-0.4,0.2-0.8,0.1c-3.6-1.2-6.4-0.1-6.4-0.1c-1.6,0.5-1.8,0-1.8,0s-0.5-0.7,3.2-1.6
				c5.3-1.2,5.5-3.2,5.4-3.4c-0.1-0.2-0.1,0-0.3,0.2c-0.2,0.2-0.3,0.1-0.3,0.1c-0.2-0.1-0.3,0.1-0.3,0.1s-0.2,0.3-0.4,0.1
				c-0.2-0.2-0.4,0.2-0.5,0.3c-0.1,0-0.2,0-0.3-0.1c-0.2-0.1-0.5,0.3-0.6,0.3c-0.2,0-0.3-0.2-0.5-0.1c-0.5,0.3-0.5,0.4-0.7,0.2
				c-0.1-0.1-0.1-0.2-0.4,0.1c-0.3,0.3-0.4,0.3-0.5,0.1c-0.1-0.2-0.1-0.4-0.5,0c-0.2,0.2-0.3,0.2-0.5,0.1c-0.1-0.1-0.1-0.4-0.4-0.1
				c-0.3,0.3-0.5,0.4-0.6,0.1c-0.1-0.3-0.5,0-0.5,0.1c-0.1,0.1-0.3,0.3-0.4,0.1c-0.1-0.2-0.4,0.1-0.6,0.3c-0.1,0.2-0.3,0-0.4-0.1
				c-0.2-0.1-0.7,0.6-0.7,0.6c0,0-0.1,0-0.2-0.1c-0.2-0.1-0.7,0.7-0.7,0.7c0,0,0,0.1-0.2,0c-0.2-0.2-1.2,1.1-1.5,2.6
				c-0.5,1.9,0.3,3.3,0.3,3.3s0.2,0,0.3-0.1l0.2-0.3c0.1-0.3,0.3-0.2,0.3-0.2l-0.5,1.4c-0.1,0.2,0,0.4,0.1,0.7
				c0.2,0.2,0.3,0.4,0.4,0.5c0.4,0.4,0.3-0.1,0.3-0.1c0-0.2,0.3,0,0.5,0.1c0.3,0.2,0.3-0.2,0.4-0.4c0-0.1,0.2-0.1,0.4,0
				c0.2,0.1,0.3-0.3,0.3-0.3c0.2-0.9-0.3-1-0.5-1l-0.5,0c0,0,0-0.1,0.1-0.3l0-0.1c0.5-1.3-0.3-1.5-0.6-1.5c-0.3,0-0.3-0.1-0.3-0.1
				s1.5-0.3,1.3,1.3c0,0-0.1,0.3-0.1,0.4l0.4,0c0.4,0,0.4,0.5,0.4,0.5s1.3,0.4,2.1,0.2c0,0,0.3-0.1,0.4-0.3c0,0,0.5-1.2,1.9-1.2
				c0,0,0,0.1-0.2,0.2c-0.3,0.1-1.2,0.2-1.4,1.2l0,0c0,0.2,0,0.5,0.4,0.7c0.3,0.1,0.4,0.7,0.5,0.9c0.2,0.4,0.5,0,0.5,0
				s0.2-0.4,0.3-0.2c0.3,0.3,0.4,0.2,0.4-0.1c0.1-0.2,0.2-0.3,0.4-0.1c0.1,0.1,0.3,0,0.4-0.2c0-0.5,0.4-0.1,0.4-0.1
				c0,0,0.4,0,0.2-0.6c0,0-0.3-0.5-1.4-0.7c-0.3,0-0.2-0.2-0.2-0.2l0.3,0c0.1,0,0.7,0.1,0.8,0.1c2.7,0.3,4.8-0.6,4.8-0.7
				c2.1,0.4,5,0.3,5.5,0.1C74.4-18.3,74.4-18.6,74.3-18.7z M70-22.1c0-0.1,0.1-0.1,0.1-0.1c0.2-0.1,0.3,0.2,0.3,0.2c0,0,0,0,0,0l0,0
				c0,0-0.3,0.1-0.4,0.1C69.9-21.9,70-22.1,70-22.1z M68.8-22c0,0,0,0,0.1-0.1s0.2,0,0.3,0.1c0.2,0.1,0.2,0.2,0.2,0.2c0,0,0,0,0,0
				c-0.1,0-0.7,0.1-0.7,0.1C68.7-21.8,68.8-22,68.8-22z M58.8-24.5c0.1,0.1,0,0.5-0.1,0.4l-0.5-0.2C58.3-24.4,58.8-24.6,58.8-24.5z
				 M58.1-24.3c0.1,0.1,0,0.5-0.1,0.4l-0.5-0.2C57.6-24.1,58-24.4,58.1-24.3z M57.8-23.5c0.1,0.1,0,0.5-0.1,0.4l-0.5-0.3
				C57.3-23.4,57.8-23.6,57.8-23.5z M57.4-22.5l-0.5-0.2c0,0,0.4-0.2,0.5-0.2C57.5-22.8,57.5-22.4,57.4-22.5z M57.3-21.7l-0.5-0.2
				c0,0,0.4-0.2,0.5-0.2C57.5-22,57.4-21.6,57.3-21.7z M57.3-24c0.1,0.1,0,0.5-0.1,0.4l-0.5-0.3C56.8-23.9,57.2-24.1,57.3-24z
				 M56.9-23.4c0.1,0.1,0,0.5-0.1,0.4l-0.5-0.2C56.4-23.3,56.8-23.5,56.9-23.4z M56.1-22.5c0,0,0.4-0.2,0.5-0.2s0,0.5-0.1,0.4
				L56.1-22.5z M56.4-21.5L56-21.7c0,0,0.4-0.2,0.5-0.2S56.5-21.4,56.4-21.5z M56.1-23.1c0.1,0.1,0,0.5-0.1,0.4L55.6-23
				C55.6-23,56-23.2,56.1-23.1z M55.7-22.3c0.1,0.1,0,0.5-0.1,0.4l-0.5-0.2C55.2-22.2,55.6-22.4,55.7-22.3z M55.1-21.4
				c0,0,0.4-0.2,0.5-0.2s0,0.5-0.1,0.4L55.1-21.4z M55.9-20.5l-0.5-0.2c0,0,0.4-0.2,0.5-0.2C56.1-20.8,56-20.4,55.9-20.5z M56.6-20
				l-0.5-0.2c0,0,0.4-0.2,0.5-0.2C56.7-20.3,56.6-19.9,56.6-20z M56.8-20.8L56.3-21c0,0,0.4-0.2,0.5-0.2
				C56.9-21.1,56.8-20.7,56.8-20.8z M57.4-19.6l-0.5-0.2c0,0,0.4-0.2,0.5-0.2C57.5-19.9,57.5-19.5,57.4-19.6z M57.6-20.4l-0.5-0.2
				c0,0,0.4-0.2,0.5-0.2C57.8-20.7,57.7-20.3,57.6-20.4z M57.8-21.1l-0.5-0.3c0,0,0.4-0.2,0.5-0.2C57.9-21.4,57.8-21,57.8-21.1z
				 M58.4-19.7L58-19.9c0,0,0.4-0.2,0.5-0.2S58.5-19.6,58.4-19.7z M58.6-20.5l-0.5-0.2c0,0,0.4-0.2,0.5-0.2
				C58.8-20.8,58.7-20.4,58.6-20.5z M58.8-21.3l-0.5-0.2c0,0,0.4-0.2,0.5-0.2C58.9-21.6,58.8-21.2,58.8-21.3z M59.4-19.8L59-20.1
				c0,0,0.4-0.2,0.5-0.2C59.6-20.2,59.5-19.8,59.4-19.8z M59.6-20.6l-0.5-0.3c0,0,0.4-0.2,0.5-0.2C59.7-21,59.6-20.6,59.6-20.6z
				 M59.7-21.5l-0.5-0.3c0,0,0.4-0.2,0.5-0.2C59.9-21.8,59.8-21.4,59.7-21.5z M60.4-20.1L60-20.4c0,0,0.4-0.2,0.5-0.2
				C60.6-20.5,60.5-20.1,60.4-20.1z M60.5-21l-0.5-0.2c0,0,0.4-0.2,0.5-0.2C60.7-21.3,60.6-20.9,60.5-21z M60.7-21.8L60.3-22
				c0,0,0.4-0.2,0.5-0.2C60.9-22.1,60.8-21.7,60.7-21.8z M61.4-20.3L61-20.6c0,0,0.4-0.2,0.5-0.2S61.5-20.3,61.4-20.3z M61.5-21.1
				l-0.5-0.2c0,0,0.4-0.2,0.5-0.2C61.7-21.4,61.6-21,61.5-21.1z M61.7-21.9l-0.5-0.2c0,0,0.4-0.2,0.5-0.2
				C61.8-22.2,61.8-21.8,61.7-21.9z M62.3-20.3l-0.5-0.2c0,0,0.4-0.2,0.5-0.2C62.5-20.6,62.4-20.3,62.3-20.3z M62.5-21.1L62-21.4
				c0,0,0.4-0.2,0.5-0.2C62.6-21.5,62.5-21.1,62.5-21.1z M62.7-21.9l-0.5-0.2c0,0,0.4-0.2,0.5-0.2C62.8-22.3,62.7-21.9,62.7-21.9z
				 M63.3-20.3l-0.5-0.3c0,0,0.4-0.2,0.5-0.2C63.4-20.6,63.3-20.3,63.3-20.3z M63.4-21.1L63-21.3c0,0,0.4-0.2,0.5-0.2
				S63.5-21,63.4-21.1z M63.6-21.9l-0.5-0.2c0,0,0.4-0.2,0.5-0.2C63.8-22.2,63.7-21.8,63.6-21.9z M64.2-20.2l-0.5-0.3
				c0,0,0.4-0.2,0.5-0.2C64.3-20.5,64.3-20.1,64.2-20.2z M64.3-20.9l-0.5-0.2c0,0,0.4-0.2,0.5-0.2C64.5-21.3,64.4-20.9,64.3-20.9z
				 M64.5-21.7l-0.5-0.2c0,0,0.4-0.2,0.5-0.2C64.7-22,64.6-21.6,64.5-21.7z M65.2-20.8L64.8-21c0,0,0.4-0.2,0.5-0.2
				C65.4-21.1,65.3-20.7,65.2-20.8z"/>
		</g>
		<g>
			<path d="M53.2-13.8c-0.1-0.3-0.3-0.4-0.6-0.4c0,0-1.6,0-1.6,0L48.7-8h1.1c0.1,0,0.2,0,0.3,0c0.2-0.1,0.3-0.3,0.3-0.4
				c0,0,0.3-0.9,0.3-0.9c0.2,0,2.2,0,2.3,0c0,0.1,0.5,1.4,0.5,1.4H55l-1-3L53.2-13.8 M52.7-10.6c-0.2,0-1.5,0-1.5,0
				c0.2-0.5,0.6-1.6,0.8-2.1C52.1-12.2,52.7-10.6,52.7-10.6z"/>
			<path d="M64-14.2L64-14.2L64-14.2c-1.8,0-3.1,1.3-3.1,3.2c0,1.8,1.3,3.2,3.1,3.2c1.8,0,3.1-1.4,3.1-3.2
				C67.1-12.8,65.8-14.2,64-14.2 M64.1-9.3c-0.9,0-1.6-0.8-1.6-1.8c0-1,0.7-1.7,1.6-1.7s1.6,0.7,1.6,1.7C65.6-10,64.9-9.3,64.1-9.3z
				"/>
			<path d="M71.2-11.6L71.2-11.6l-0.6-0.2l-0.1,0c-0.5-0.2-0.8-0.3-0.8-0.6c0,0,0,0,0,0c0.1-0.5,0.9-0.5,0.9-0.5
				c0.5,0,0.8,0.1,1.3,0.3h0l0,0c0.1,0,0.2,0,0.3,0l0.1-0.1c0.2-0.1,0.4-0.6,0.4-0.9l0-0.1l-0.1-0.1c0,0-0.2-0.1-0.6-0.3
				c-0.5-0.2-1.2-0.2-1.2-0.2h-0.3c-1.8,0-2.5,1.1-2.5,1.9c0,0.7,0.4,1.1,1.1,1.5c0.3,0.1,0.8,0.3,1.1,0.4l0.4,0.1
				c0.7,0.2,0.9,0.4,0.9,0.8c0,0.1-0.3,0.3-0.8,0.3c-0.4,0-0.7-0.1-1.1-0.2c-0.2-0.1-0.4-0.2-0.6-0.3l0,0l0,0
				c-0.1,0-0.2-0.1-0.3-0.1l-0.1,0c-0.2,0.1-0.5,0.6-0.6,0.8l-0.1,0.1l0.1,0.1c0,0,0.3,0.3,0.6,0.4C68.8-8.2,69.2-8,69.6-8
				c0.2,0,0.4,0.1,0.9,0.1c1.4,0,2.4-0.7,2.5-1.8C73.1-10.6,72.5-11.2,71.2-11.6z"/>
			<path d="M74.2-14.2c-0.1,0-0.4,0-0.5,0.2c-0.1,0.1-0.1,0.2-0.1,0.3v1c0,0,1.7,0,1.9,0c0,0.2,0,4.8,0,4.8h1.6c0,0,0-4.6,0-4.8
				c0.2,0,1.2,0,1.2,0c0.1,0,0.4,0,0.5-0.2c0.1-0.1,0.1-0.2,0.1-0.3v-1L74.2-14.2L74.2-14.2z"/>
			<path d="M47.4-9.4c0,0-1.3,0-1.8,0c0-0.2,0-4.2,0-4.2c0-0.2,0-0.3-0.2-0.4c-0.2-0.2-0.4-0.2-0.5-0.2h-0.9v6.2H48v-1
				C48-9.1,47.9-9.4,47.4-9.4z"/>
			<path d="M58.6-12.9c0.4,0,0.7,0,1,0.1c0.2,0.1,0.3,0.1,0.4,0l0.1-0.1c0.2-0.1,0.3-0.6,0.4-1l0-0.1l-0.1-0.1c0,0-0.1-0.1-0.6-0.2
				c-0.5-0.1-1-0.2-1.2-0.1h0c-1.3,0-3.2,0.9-3.3,3.2v0c0.1,2.3,2,3.2,3.3,3.2h0c0.2,0,0.7,0,1.2-0.2c0.6-0.1,0.6-0.2,0.6-0.2l0.1,0
				l0-0.1c-0.1-0.3-0.2-0.9-0.4-1l0,0l0,0l0,0l-0.1,0c-0.1,0-0.3,0-0.4,0c-0.3,0.1-0.6,0.1-1,0.1C57.6-9.3,57-10,57-11
				C57-12.1,57.6-12.8,58.6-12.9z"/>
			<path d="M83.4-7.9c0.2,0,0.7-0.1,0.7-0.6v-0.8h-2.7c0,0,0-0.9,0-1c0.2,0,2.3,0,2.3,0v-1.4c0,0-2,0-2.3,0c0-0.2,0-0.7,0-0.9
				c0.2,0,2.1,0,2.1,0c0.1,0,0.4,0,0.5-0.2c0.1-0.1,0.1-0.3,0.1-0.4v-0.8h-4.3v6.2L83.4-7.9z"/>
		</g>
	</g>
</g>
<g id="svg3153">
	<g id="g3284" transform="matrix(3.3946588,0,0,3.3946588,-20.16715,-25.345386)">
		<g id="g3222">
			<path id="path3086" class="st1" d="M10.4,13.8v-1.2l1.1-0.4l-1.1-0.4l0-1.2l-0.7,0.9l-1.1-0.4l0.7,1l-0.6,1l1.1-0.4L10.4,13.8z"
				/>
			<path id="path3088" class="st1" d="M10.5,15.1h2.1l2.6-2.8l-2.6-2.8h-2l2.4,2.8L10.5,15.1z"/>
		</g>
		<g id="g3274">
			<path id="path3226" class="st1" d="M5.9,16.6c0-0.4,0.3-0.7,0.7-0.7c0.3,0,0.6,0.3,0.6,0.3l-0.3,0.2c0,0-0.1-0.1-0.3-0.1
				c-0.2,0-0.3,0.2-0.3,0.4c0,0.2,0.2,0.4,0.3,0.4C6.8,17,7,16.8,7,16.8L7.3,17c0,0-0.2,0.3-0.6,0.3C6.3,17.3,5.9,17.1,5.9,16.6
				L5.9,16.6z"/>
			<path id="path3231" class="st1" d="M8.1,15.9c-0.4,0-0.7,0.3-0.7,0.7s0.3,0.7,0.7,0.7s0.7-0.3,0.7-0.7
				C8.9,16.2,8.5,15.9,8.1,15.9z M8.1,16.3c0.2,0,0.4,0.2,0.4,0.4c0,0.2-0.2,0.4-0.4,0.4c-0.2,0-0.4-0.2-0.4-0.4S7.9,16.3,8.1,16.3z
				"/>
			<path id="rect3234" class="st1" d="M9.1,15.9v1.3h0.4v-0.7l0.6,0.7h0.3v-1.3H10v0.8l-0.6-0.8H9.1z"/>
			<path id="path3239" class="st1" d="M10.7,15.9l0.5,1.3h0.5l0.5-1.3h-0.4L11.4,17L11,15.9C11,15.9,10.7,15.9,10.7,15.9z"/>
			<path id="path3246" class="st1" d="M12.4,15.9v1.3h1.1v-0.3h-0.7v-0.2h0.6v-0.3h-0.6v-0.2h0.7v-0.3
				C13.4,15.9,12.4,15.9,12.4,15.9z"/>
			<path id="path3258" class="st1" d="M16.7,15.9v1.3h1.1v-0.3H17v-0.2h0.6v-0.3H17v-0.2h0.7v-0.3C17.7,15.9,16.7,15.9,16.7,15.9z"
				/>
			<path id="rect3260" class="st1" d="M13.8,15.9v1.3h0.3v-0.5h0.2l0.3,0.5H15l-0.3-0.6c0.4-0.2,0.3-0.6-0.1-0.8L13.8,15.9
				L13.8,15.9z M14.1,16.3h0.4c0.1,0,0.1,0.2,0,0.2h-0.4V16.3z"/>
			<path id="path3272" class="st1" d="M15.2,17.1c0,0.1,0.3,0.2,0.6,0.2c0.3,0,0.5-0.1,0.5-0.4c0-0.3-0.4-0.4-0.4-0.4
				s-0.3,0-0.3-0.2c0-0.1,0.1-0.1,0.2-0.1c0.1,0,0.3,0.1,0.3,0.1l0.2-0.3c0,0-0.3-0.2-0.5-0.2c-0.2,0-0.6,0.2-0.6,0.5
				c0,0.3,0.4,0.4,0.4,0.4s0.4,0,0.4,0.2c0,0.1-0.1,0.1-0.2,0.1c-0.2,0-0.4-0.2-0.4-0.2L15.2,17.1z"/>
		</g>
	</g>
</g>
</svg>
