<?xml version="1.0" encoding="utf-8"?>
<!-- Generator: Adobe Illustrator 24.0.2, SVG Export Plug-In . SVG Version: 6.00 Build 0)  -->
<svg version="1.1" xmlns="http://www.w3.org/2000/svg" xmlns:xlink="http://www.w3.org/1999/xlink" x="0px" y="0px"
	 viewBox="0 0 40 40" style="enable-background:new 0 0 40 40;" xml:space="preserve">
<g id="Capa_1">
	<g id="Capa_1_1_">
	</g>
</g>
<g id="Ebene_1">
	<g>
		<path d="M40,34.5c-0.1-0.1-0.5-0.3-0.6-0.3c-0.2,0-0.7,0.4-0.8,0.4c-0.1,0.1-0.4,0.2-0.4,0.2c-0.1,0-0.8,0-1,0c-0.2,0-0.4,0-0.5,0
			c-0.1,0-0.3,0-0.4,0c0,0-0.1-0.1,0-0.1c0.1-0.1,0.2-0.3,0.3-0.4c0.1-0.1,0.3-0.3,0.4-0.3c0.1-0.1,0.3-0.1,0.3-0.2
			c0-0.1-0.3-0.1-0.5,0c-0.2,0.1-0.4,0.3-0.5,0.4c-0.1,0.1-0.1,0.1-0.2,0.1c-0.1,0-0.2,0.1-0.2,0.1c0,0-0.2,0.1-0.3,0.1
			c-0.1,0-0.3-0.1-0.3-0.2c-0.1,0-0.2-0.1-0.2-0.1c-0.1,0-0.2,0-0.3-0.1c-0.1-0.1-0.1-0.2-0.1-0.2c0,0,0.1-0.2,0.1-0.2
			c0-0.1-0.1-0.1-0.1-0.1c-0.1,0-0.6-0.4-1.1-0.8c-0.4-0.3-1.1-0.8-1.4-1.1c-0.2-0.2-1.6-1.2-2.4-1.8c-0.8-0.5-1.6-1-1.9-1.1
			c-0.3,0-0.4-0.1-0.4-0.2c-0.1-0.1-1.2-1.2-1.9-1.5c-0.7-0.4-2-1-2.1-1.1c0.1-0.2,0.1-0.5,0.1-0.7c-0.1-0.2-0.5-0.5-0.7-0.7
			c-0.2-0.1-0.3-0.2-0.3-0.2s-0.3-0.6-0.3-0.7c0.1-0.3,0.3-1.5,0.3-2.9c0-1.5-0.2-1.7-0.3-2c-0.2-0.3-0.4-0.6-0.6-1.3
			c-0.2-0.7-0.2-1.3-0.1-1.6c0.1-0.3,0.3-0.7,0.5-1.3c0.2-0.6,0.1-1,0.1-1.2c0-0.2,0.2-0.4,0.2-0.9c0-0.5,0.2-0.5,0.3-1.2
			c0.1-0.7,0.2-1.1,0.2-1.1s0.2,0,0.3-0.2c0-0.2,0.1-0.4,0.1-0.7c0.1-0.3,0.1-0.7,0.1-0.8c0-0.1-0.1-0.2-0.1-0.2s0.1-1.3,0.1-1.7
			c0-0.3,0.1-0.6,0.1-0.7c0-0.1,0-0.2-0.1-0.5c0-0.1,0.1-0.1,0.1-0.2c0,0,0,0,0.1,0c1.2,0,2.2-1,2.2-2.2c0-1.2-1-2.2-2.2-2.2
			c-1.2,0-2.2,1-2.2,2.2c0,0.4,0.1,0.7,0.2,1c0,0.1,0.1,0.3,0.1,0.3c0.1,0.1,0.1,0.2,0.2,0.3c0,0.1,0.2,0.3,0.2,0.4
			c0,0.1,0.1,0.3,0.1,0.4c0,0.1,0.1,0.2,0.1,0.3c0,0.1,0,0.3,0,0.5c0,0.2-0.3,1.3-0.4,1.6c-0.1,0.1-0.2,0.2-0.2,0.3
			c0,0.1-0.1,0.6-0.2,0.8c-0.1,0.2-0.1,0.5-0.1,0.6c0,0.1,0,0.3-0.1,0.4c-0.1,0.1-0.1,0.3-0.2,0.4c-0.1,0.1-0.1,0.5-0.1,0.6
			c0,0.1,0,0.5-0.1,0.6c-0.1,0.2-0.1,0.5-0.2,0.6c-0.1,0.1-0.2,0.8-0.3,1c0,0.1-0.3,0.4-0.4,0.5c-0.1,0.1-0.3,0.5-0.4,0.6
			c0-0.2-0.1-0.2-0.1-0.3c0-0.1-0.2-0.1-0.2-0.1c0,0,0-0.1,0.1-0.2c0-0.1,0-0.2-0.2-0.3c-0.2-0.1-0.3-0.1-0.4-0.2
			c-0.1-0.1-0.3-0.1-0.4-0.2c-0.2-0.2-0.5-0.5-1.1-0.5c0,0-0.4,0-0.8,0.2c-0.3,0.2-0.9,0.6-1,1.5c-0.1,0.9,0.7,1.4,0.7,1.5
			c0.1,0.1,0.3,0.2,0.1,0.3c-0.1,0.1-0.1,0.2-0.1,0.2c0,0.1-0.1,0.2-0.2,0.3c-0.1,0.1-0.3,0.3-0.3,0.3s-0.5,0-0.9,0.5
			c-0.1,0.2-0.2,0.4-0.3,0.5c-0.1,0.1-0.4,0.7-0.5,0.9c-0.1,0.2-0.2,0.4-0.4,0.7c-0.1,0.2-0.3,0.3-0.5,1c0,0-0.7,0.9-1,1.3
			c-0.3,0.4-0.7,1.2-0.7,1.3c0,0.1-0.2,0.5-0.3,0.6c-0.1,0.1-0.1,0.3-0.1,0.3c-0.1,0.1-0.3,0.4-0.5,0.6c-0.2,0.2-0.3,0.3-0.3,0.4
			c-0.1,0.1-0.1,0.2-0.5,0.4c-0.3,0.2-0.5,0.3-1,0.4c-0.5,0.1-0.8,0-0.8,0.2c0,0.2,0.9,0.2,1.2,0.2c0.4,0,0.6-0.3,0.7-0.2
			c0,0-0.1,0.3-0.4,0.4c-0.3,0.1-0.3,0.2-0.3,0.3c0,0.1,0.2,0.1,0.5,0c0.3-0.1,0.9-0.3,0.9-0.3c0,0.1-0.1,0.3-0.2,0.4
			c-0.1,0.1,0,0.2,0.1,0.2c0.1,0,0.3,0,0.5-0.3c0.2-0.3,0.4-0.5,0.5-0.5c0.1,0,0.4,0.3,0.6,0.4c0.2,0.1,0.6,0.1,0.7-0.1
			c0-0.2-0.3-0.2-0.3-0.2c-0.1,0-0.3-0.2-0.3-0.3c0-0.1,0-0.4,0-0.5c0-0.1,0.1-0.6,0.2-0.9c0.1-0.3,0.5-1,0.8-1.2
			c0.3-0.2,1.3-0.9,1.6-1.5c0.3-0.6,0.4-1,0.5-1c0.1,0,0.3-0.1,0.4-0.3c0.1-0.2,0.2-0.3,0.3-0.3c0.1,0,0.1,0,0.4,0.4
			c0.3,0.5,0.4,0.6,0.5,0.6c0,0.1-0.1,0.2,0,0.4c0.1,0.3,0.3,0.3,0.3,0.4c0,0.1,0,0.4,0.1,0.5c0.1,0.2,0.2,0.4,0.1,0.6
			c-0.1,0.1-0.3,0.4-0.4,0.5c-0.3,0-0.7,0.2-0.7,0.7c-0.1,0.6,0,1.1,0,1.2c0,0.1-0.4,0.5-0.5,0.5c-0.1,0.1-0.5,0.1-0.6,0.3
			c-0.1,0.2-0.1,0.3-0.4,0.4c-0.2,0.1-1.6,1.3-2.5,2.6c0,0-0.1,0.1-0.2,0.1c-0.4,0.1-0.6,0.2-0.6,0.2c-0.1,0-0.2,0.2-0.4,0.4
			c-0.1,0.1-0.2,0.1-0.2,0.2c-0.4,0.1-1.6,0.8-2.4,1.3c-0.8,0.5-2.2,1.8-2.7,2.4c-0.3,0.4-0.4,0.4-0.4,0.4c-0.1,0,0,0.2,0,0.3
			c0,0-0.1,0.2-0.2,0.2c-0.1,0-0.2-0.2-0.3-0.2c-0.1,0-0.3,0.2-0.3,0.3c0,0.1-0.1,0.2-0.2,0.2c-0.1,0-0.2-0.1-0.3-0.3
			c0-0.2-0.2-0.5-0.2-0.5c-0.1,0-0.2,0.2-0.2,0.2c0,0.1,0.1,0.2,0.1,0.3c0.1,0.1,0,0.2,0,0.3c0,0.1,0.1,0.1,0.1,0.2c0,0,0,0.2,0,0.2
			c-0.1,0-0.2,0-0.3,0.1C3,35.9,3,36,3,36.1c0,0.1,0,0.2-0.2,0.3c-0.3,0.1-0.5,0.1-0.6,0.2c-0.1,0-0.5,0.2-0.6,0.3
			c-0.1,0-0.2,0-0.3,0c-0.1,0-0.2,0.1-0.3,0.1c-0.1,0-0.4,0.2-0.6,0.3c-0.2,0.1-0.4,0.4-0.3,0.7c0.1,0.3,0.5,0.6,0.6,0.8
			c0.1,0.1,0.3,0.2,0.7,0.3c0.4,0,0.6-0.1,0.8-0.2c0.2-0.1,0.6-0.2,0.8-0.2c0.2,0,0.5,0.2,0.8,0C4.1,38.2,4,38.1,4.1,38
			c0.1,0,0.1,0,0.2-0.2c0.1-0.1,0.2-0.3,0.3-0.3c0.2,0,0.3-0.2,0.4-0.4c0.1-0.2,0.3-0.4,0.4-0.4c0.1,0,0.1-0.1,0.2-0.2
			c0-0.1,0.2-0.1,0.3-0.2c0.1-0.1,0.2-0.1,0.2-0.1c0,0,0.1,0,0.2-0.1c0.2-0.1,0.3-0.3,0.4-0.3c0.1,0,0.3,0.1,0.4,0
			c0.1-0.1,1.5-1.2,2-1.6c0.3-0.2,0.6-0.3,1.2-0.7c0.5-0.3,1.3-0.8,1.5-1c0.2-0.1,1-0.7,1.1-0.8c0.2-0.2,0.5-0.2,1.3-0.6
			c0.6-0.3,1.9-1,3-1.7c0.6-0.3,1.5-0.8,1.6-0.8c0.1,0,0.5,0.2,0.8,0.4c0.4,0.2,0.7,0.2,1.3,0.4c0.6,0.2,2.3,0.9,2.7,1.1
			c0.4,0.2,1,0.4,1.7,0.4c0.4,0.1,0.6,0.1,0.7,0.2c0.1,0,0.2,0,0.4,0.1c0.1,0.1,0.5,0.3,0.7,0.4c0.2,0.1,1.1,0.7,1.3,0.8
			c0.2,0.2,1.2,0.9,1.4,1.1c0.2,0.1,0.4,0.3,0.6,0.3c0.2,0,0.4,0.1,0.6,0.3c0.2,0.2,0.7,0.5,0.9,0.7c0.1,0.1,0.4,0.3,0.6,0.3
			c0.3,0,0.4,0.1,0.6,0.3c0.2,0.2,0.5,0.5,0.6,0.6c0.1,0.1,0.3,0.2,0.3,0.3c0.1,0.1,0.4,0.5,0.5,0.6c0.1,0.1,0.2,0.2,0.2,0.3
			c0,0.2,0.2,0.5,0.3,0.7c0.1,0.2,0.1,0.3,0.4,0.1c0.4-0.3,0.7-0.6,1.2-0.9c0.5-0.3,0.8-0.5,1.1-0.7c0.4-0.3,1.3-1.2,1.5-1.4
			C39.9,34.7,40,34.6,40,34.5z"/>
	</g>
</g>
</svg>
