<?xml version="1.0" encoding="utf-8"?>
<!-- Generator: Adobe Illustrator 24.0.2, SVG Export Plug-In . SVG Version: 6.00 Build 0)  -->
<svg version="1.1" xmlns="http://www.w3.org/2000/svg" xmlns:xlink="http://www.w3.org/1999/xlink" x="0px" y="0px"
	 viewBox="0 0 40 40" style="enable-background:new 0 0 40 40;" xml:space="preserve">
<style type="text/css">
	.st0{fill-rule:evenodd;clip-rule:evenodd;}
</style>
<g id="Capa_1">
</g>
<g id="Modo_de_aislamiento">
	<path d="M57.12,13.44c-2.6,3.06-5.1,6.85-5.12,9.68c-0.01,1.07,0.33,2,1.15,2.7c1.17,1.02,2.47,1.37,3.76,1.38
		c1.88,0,3.75-0.76,5.21-1.34c2.47-0.99,29.71-12.82,29.71-12.82c0.26-0.13,0.21-0.3-0.12-0.21c-0.14,0.03-29.66,8.03-29.66,8.03
		c-0.56,0.16-1.14,0.24-1.72,0.25c-2.27,0.01-4.29-1.25-4.27-3.9C56.07,16.17,56.39,14.91,57.12,13.44"/>
	<g>
		<path class="st0" d="M71.21,71.69c-0.13,0.02-0.26,0.5-0.51,0.75c-0.19,0.18-0.42,0.17-0.54,0.39c-0.05,0.08-0.03,0.23-0.08,0.36
			c-0.1,0.27-0.47,0.3-0.47,0.6c0,0.32,0.3,0.38,0.57,0.61c0.21,0.18,0.23,0.31,0.48,0.4c0.21,0.07,0.53-0.16,0.81-0.08
			c0.23,0.07,0.46,0.12,0.51,0.36c0.05,0.22,0,0.57-0.29,0.53c-0.1-0.01-0.51-0.15-1.02-0.1c-0.62,0.07-1.32,0.27-1.39,0.96
			c-0.04,0.38,0.44,0.83,0.89,0.74c0.32-0.06,0.17-0.44,0.34-0.62c0.23-0.23,1.51,0.81,2.7,0.81c0.5,0,0.87-0.13,1.24-0.51
			c0.03-0.03,0.08-0.09,0.13-0.1c0.05,0,0.14,0.05,0.17,0.07c0.96,0.77,1.68,2.31,5.2,2.33c0.5,0,1.06,0.24,1.52,0.66
			c0.41,0.38,0.65,0.97,0.88,1.57c0.35,0.9,0.98,1.77,1.94,2.75c0.05,0.05,0.84,0.66,0.9,0.71c0.01,0.01,0.07,0.15,0.05,0.22
			c-0.02,0.58-0.11,2.28,1.16,2.36c0.31,0.02,0.23-0.2,0.23-0.35c0-0.3-0.05-0.59,0.1-0.89c0.21-0.42-0.45-0.61-0.43-1.51
			c0.01-0.67-0.55-0.56-0.84-1.07c-0.16-0.3-0.31-0.45-0.3-0.82c0.06-2.04-0.43-3.38-0.68-3.71c-0.19-0.25-0.35-0.35-0.18-0.46
			c1.06-0.7,1.3-1.35,1.3-1.35c0.56-1.32,1.07-2.53,1.76-3.06c0.14-0.11,0.5-0.38,0.72-0.48c0.65-0.31,0.99-0.49,1.18-0.68
			c0.3-0.29,0.53-0.9,0.25-1.27c-0.36-0.45-0.97-0.09-1.24,0.07c-1.94,1.15-2.23,3.19-2.9,4.35c-0.54,0.93-1.41,1.62-2.19,1.67
			c-0.58,0.04-1.22-0.07-1.84-0.35c-1.53-0.67-2.36-1.53-2.56-1.69c-0.41-0.32-3.59-3.44-6.17-3.57c0,0-0.32-0.64-0.4-0.65
			c-0.19-0.02-0.38,0.38-0.52,0.43C71.56,72.16,71.34,71.67,71.21,71.69L71.21,71.69z"/>
		<path class="st0" d="M59.85,90.35c-0.24-0.01-0.45-0.21-0.45-0.45l0-8.05h-2.65v8.87c0,0.44,0.35,0.79,0.78,0.79h4.64
			c0.44,0,0.78-0.35,0.78-0.79v-8.87h-2.65l0,8.05C60.3,90.14,60.1,90.34,59.85,90.35L59.85,90.35z"/>
		<path class="st0" d="M68.73,81.85h-4.01c-0.48,0-0.86,0.39-0.86,0.87v8.79h2.65v-8.07c0-0.25,0.2-0.44,0.45-0.44
			c0.25,0,0.45,0.19,0.45,0.44v8.07h2.64v-8.07c0-0.24,0.2-0.44,0.45-0.44c0.25,0,0.45,0.2,0.45,0.44v8.07h2.66v-8.79
			c0-0.48-0.39-0.87-0.86-0.87H68.73L68.73,81.85z"/>
		<path class="st0" d="M54.98,89.08H52.3v2.43h-2.65v-9.66H55c0.48,0,0.85,0.39,0.85,0.87v5.49C55.85,88.7,55.46,89.08,54.98,89.08
			L54.98,89.08z M53.2,83.46c0-0.27-0.22-0.46-0.45-0.46H52.3v4.89h0.45c0.23,0,0.45-0.19,0.45-0.45V83.46L53.2,83.46z"/>
		<path class="st0" d="M78.06,91.51v-2.43h-0.9v2.43h-2.65v-8.79c0-0.48,0.39-0.87,0.86-0.87h4.48c0.48,0,0.86,0.39,0.86,0.87v8.79
			H78.06L78.06,91.51z M78.06,87.89v-4.45c-0.01-0.25-0.2-0.43-0.45-0.43c-0.24,0-0.45,0.2-0.45,0.44v4.44H78.06L78.06,87.89z"/>
	</g>
</g>
<g id="Layer_1">
	<g>
		<g id="XMLID_1_">
			<g>
				<path d="M88.8,58.32h-1.15h-0.6c-0.05-0.29-0.14-0.49-0.25-0.61c-0.19-0.19-0.51-0.28-0.94-0.28c-0.43,0-0.73,0.07-0.9,0.22
					c-0.13,0.11-0.19,0.26-0.19,0.45c0,0.26,0.37,0.48,1.1,0.64c0.83,0.18,1.43,0.34,1.79,0.46c0.1,0.04,0.18,0.07,0.24,0.1
					c0.74,0.35,1.11,0.88,1.11,1.59c0,0.87-0.36,1.5-1.08,1.9c-0.09,0.05-0.17,0.09-0.27,0.13c-0.46,0.2-1,0.3-1.61,0.3
					c-0.91,0-1.64-0.16-2.2-0.48c-0.35-0.2-0.62-0.46-0.79-0.77c-0.18-0.31-0.26-0.67-0.26-1.09h1.83c0,0.31,0.11,0.56,0.34,0.73
					c0.22,0.17,0.6,0.27,1.14,0.27c0.4,0,0.7-0.08,0.9-0.25c0.16-0.13,0.23-0.28,0.23-0.45c0-0.28-0.36-0.51-1.08-0.66
					c-1.07-0.23-1.75-0.42-2.02-0.55c-0.73-0.34-1.1-0.87-1.1-1.61c0-0.59,0.19-1.09,0.57-1.5c0.48-0.51,1.2-0.76,2.16-0.76
					c0.79,0,1.42,0.11,1.9,0.34c0.04,0.02,0.08,0.04,0.11,0.06c0.34,0.19,0.6,0.43,0.77,0.74C88.71,57.52,88.8,57.89,88.8,58.32z"/>
				<path d="M87.87,54.06c0-0.04-0.01-0.07-0.02-0.09c-0.02-0.03-0.04-0.05-0.08-0.06c-0.02-0.01-0.06-0.01-0.11-0.02h-0.07h-0.21
					v0.34h0.22c0.02,0,0.04,0,0.05,0c0.08-0.01,0.13-0.02,0.16-0.05C87.85,54.15,87.87,54.1,87.87,54.06z M88.01,53.88
					c0.04,0.05,0.05,0.1,0.05,0.16c0,0.08-0.03,0.16-0.09,0.22c-0.06,0.06-0.14,0.1-0.23,0.1c0.04,0.02,0.07,0.04,0.1,0.06
					l0.17,0.22l0.13,0.22h-0.22l-0.1-0.18c-0.07-0.11-0.12-0.2-0.17-0.24c-0.01-0.01-0.01-0.01-0.02-0.02l-0.14-0.04h-0.11v0.48
					h-0.18v-1.13h0.39c0.02,0,0.05,0.01,0.07,0.01c0.1,0,0.17,0.01,0.22,0.03C87.93,53.79,87.98,53.82,88.01,53.88z"/>
				<path d="M88.52,54.29c0-0.16-0.04-0.3-0.11-0.44c-0.08-0.14-0.19-0.25-0.33-0.33c-0.14-0.07-0.28-0.11-0.43-0.11
					c-0.01,0-0.01,0-0.01,0c-0.14,0-0.29,0.04-0.43,0.11c-0.14,0.08-0.25,0.19-0.33,0.33c-0.08,0.14-0.12,0.28-0.12,0.44
					c0,0.15,0.04,0.29,0.12,0.43c0.07,0.13,0.18,0.24,0.32,0.32c0.14,0.08,0.28,0.11,0.43,0.11c0,0,0,0,0.01,0
					c0.15,0,0.3-0.04,0.43-0.11c0.14-0.08,0.25-0.19,0.32-0.32C88.49,54.58,88.52,54.44,88.52,54.29z M88.7,54.29
					c0,0.17-0.04,0.35-0.14,0.52c-0.09,0.17-0.22,0.3-0.38,0.38c-0.17,0.1-0.34,0.14-0.52,0.14c-0.01,0-0.01,0-0.01,0
					c-0.18,0-0.35-0.04-0.52-0.14c-0.17-0.09-0.3-0.22-0.39-0.38c-0.1-0.17-0.14-0.34-0.14-0.52c0-0.19,0.04-0.36,0.14-0.53
					c0.1-0.17,0.22-0.29,0.39-0.38c0.17-0.09,0.34-0.13,0.51-0.14c0,0,0,0,0.01,0c0.17,0,0.34,0.05,0.51,0.14
					c0.17,0.09,0.3,0.22,0.39,0.38C88.66,53.92,88.7,54.1,88.7,54.29z"/>
				<polygon points="78.46,45.78 83.4,54.01 78.46,54.01 75.46,54.01 70.75,46.15 67.17,40.2 70.75,38.05 73,36.69 				"/>
				<path d="M82.05,59.73v3.38h-1.64v-0.37c-0.55,0.36-1.22,0.57-1.93,0.57c-0.01,0-0.01,0-0.02,0c-1.96-0.01-3.56-1.61-3.56-3.58
					c0-1.96,1.6-3.56,3.56-3.57c0.01,0,0.01,0,0.02,0c0.71,0,1.37,0.21,1.93,0.57v-0.39h1.64V59.73z M80.41,60.11v-0.75
					c-0.17-0.9-0.97-1.59-1.93-1.59c-0.01,0-0.01,0-0.02,0c-1.08,0.01-1.95,0.89-1.95,1.96c0,1.08,0.87,1.96,1.95,1.97
					c0.01,0,0.01,0,0.02,0C79.43,61.7,80.23,61.01,80.41,60.11z"/>
				<path d="M74.33,59.73v3.38h-1.64v-0.37c-0.56,0.36-1.22,0.57-1.93,0.57c-0.01,0-0.01,0-0.02,0c-1.96-0.01-3.56-1.61-3.56-3.58
					c0-1.96,1.59-3.56,3.56-3.57c0.01,0,0.01,0,0.02,0c0.71,0,1.37,0.21,1.93,0.57v-2.71h1.64V59.73z M72.69,60.11v-0.75
					c-0.17-0.9-0.98-1.59-1.93-1.59c-0.01,0-0.01,0-0.02,0c-1.08,0.01-1.95,0.89-1.95,1.96c0,1.08,0.87,1.96,1.95,1.97
					c0.01,0,0.01,0,0.02,0C71.71,61.7,72.51,61.01,72.69,60.11z"/>
				<polygon points="70.75,50.78 72.68,54.01 70.75,54.01 64.75,54.01 60.35,46.68 60.15,46.36 60.35,46.25 65.98,42.86 				"/>
				<rect x="64.76" y="56.16" width="1.79" height="6.95"/>
				<rect x="64.76" y="54.05" width="1.79" height="1.57"/>
				<path d="M63.94,59.73v3.38H62.3v-0.37c-0.56,0.36-1.22,0.57-1.93,0.57c-0.01,0-0.01,0-0.02,0c-1.96-0.01-3.56-1.61-3.56-3.58
					c0-1.96,1.6-3.56,3.56-3.57c0.01,0,0.01,0,0.02,0c0.71,0,1.37,0.21,1.93,0.57v-2.71h1.64V59.73z M62.3,60.11v-0.75
					c-0.17-0.9-0.97-1.59-1.93-1.59c-0.01,0-0.01,0-0.02,0c-1.08,0.01-1.95,0.89-1.95,1.96c0,1.08,0.87,1.96,1.95,1.97
					c0.01,0,0.01,0,0.02,0C61.32,61.7,62.12,61.01,62.3,60.11z"/>
				<polygon points="60.35,51.31 61.97,54.01 60.35,54.01 54.03,54.01 53.14,52.53 58.97,49.02 				"/>
				<path d="M56.14,59.73v3.38H54.5v-0.37c-0.56,0.36-1.22,0.57-1.93,0.57c-0.01,0-0.01,0-0.02,0C50.59,63.3,49,61.69,49,59.73
					c0-1.96,1.59-3.56,3.55-3.57c0.01,0,0.01,0,0.02,0c0.71,0,1.37,0.21,1.93,0.57v-0.39h1.64V59.73z M54.5,60.11v-0.75
					c-0.17-0.9-0.97-1.59-1.93-1.59c-0.01,0-0.01,0-0.02,0c-1.07,0.01-1.94,0.89-1.94,1.96c0,1.08,0.87,1.96,1.94,1.97
					c0.01,0,0.01,0,0.02,0C53.53,61.7,54.33,61.01,54.5,60.11z"/>
			</g>
		</g>
	</g>
	<g>
		<path d="M54.26-11.16c0-0.31,0.18-0.51,1.28-0.51c0.73,0,1.48,0.02,2.41,0.31v-1.06c-0.46-0.14-1.21-0.26-2.38-0.26
			c-1.99,0-2.57,0.6-2.57,1.52c0,1.12,0.83,1.41,2.54,1.59c0.94,0.1,1.42,0.12,1.42,0.48c0,0.32-0.24,0.46-1.31,0.47
			c-0.75,0-1.65-0.09-2.49-0.38v1.12c0.88,0.23,1.59,0.3,2.5,0.3c1.5,0,2.56-0.3,2.56-1.54c0-1.18-0.85-1.34-2.5-1.52
			C54.91-10.71,54.26-10.77,54.26-11.16 M62.5-9.48c0,0.72-0.62,0.87-1.49,0.87c-1.02,0-1.22-0.19-1.22-0.48
			c0-0.31,0.33-0.38,1.15-0.5c0.68-0.09,1.39-0.26,1.56-0.43V-9.48z M63.62-9.25v-1.78c0-1.47-1.29-1.68-2.49-1.68
			c-0.59,0-1.44,0.13-2.12,0.29v1.05c0.85-0.17,1.63-0.28,2.12-0.28c0.55,0,1.25,0.04,1.25,0.43c0,0.34-0.42,0.46-1.25,0.56
			c-1.5,0.2-2.58,0.39-2.58,1.55c0,1.2,0.94,1.54,2.58,1.54C62.98-7.55,63.62-8.2,63.62-9.25 M66.3-7.64c0.41,0,0.94-0.01,1.32-0.07
			L67.46-8.7c-0.31,0.04-0.78,0.06-1.15,0.06c-0.65,0-1.09-0.26-1.09-0.76v-3.24h-1.13v3.33C64.09-7.93,65.3-7.64,66.3-7.64
			L66.3-7.64z M71.73-10.09c-0.01,0.21-0.02,0.4-0.04,0.58c-0.08,0.6-0.43,0.89-1.09,0.89h-0.6c-0.65,0-1.01-0.29-1.09-0.89
			c-0.02-0.18-0.04-0.38-0.04-0.58c0.01-0.21,0.02-0.41,0.04-0.58c0.08-0.6,0.43-0.9,1.09-0.9h0.6c0.65,0,1.01,0.29,1.09,0.9
			C71.71-10.49,71.72-10.3,71.73-10.09 M72.79-9.04c0.06-0.3,0.08-0.63,0.09-0.97v-0.08v-0.08c-0.01-0.35-0.03-0.68-0.09-0.97
			c-0.15-1.03-0.87-1.54-2.19-1.54h-0.6c-1.32,0-2.04,0.51-2.19,1.54c-0.06,0.29-0.08,0.62-0.09,0.97v0.08v0.08
			c0.01,0.34,0.03,0.67,0.09,0.97c0.15,1.02,0.87,1.53,2.19,1.53h0.6C71.92-7.51,72.64-8.02,72.79-9.04 M80.75-7.68h1.15v-2.33
			c0-0.4-0.02-0.78-0.09-1.12c-0.15-1.02-0.87-1.53-2.19-1.53h-0.32c-0.77,0-1.34,0.17-1.71,0.52c-0.36-0.35-0.93-0.52-1.7-0.52
			h-0.32c-1.32,0-2.04,0.51-2.19,1.53c-0.06,0.35-0.09,0.73-0.09,1.12v2.33h1.15v-2.33c0-0.23,0.02-0.46,0.05-0.66
			c0.07-0.6,0.43-0.89,1.08-0.89h0.32c0.65,0,1.01,0.29,1.09,0.89c0.03,0.21,0.04,0.43,0.04,0.66v2.33h1.15v-2.33
			c0-0.23,0.01-0.46,0.04-0.66c0.08-0.6,0.43-0.89,1.09-0.89h0.32c0.65,0,1.01,0.29,1.08,0.89c0.04,0.21,0.05,0.43,0.05,0.66V-7.68z
			 M86.37-10.09c0,0.21-0.01,0.4-0.04,0.58c-0.07,0.6-0.43,0.89-1.09,0.89h-0.6c-0.65,0-1.02-0.29-1.09-0.89
			c-0.03-0.18-0.04-0.38-0.04-0.58c0-0.21,0.01-0.41,0.04-0.58c0.07-0.6,0.43-0.9,1.09-0.9h0.6c0.65,0,1.02,0.29,1.09,0.9
			C86.35-10.49,86.37-10.3,86.37-10.09 M87.44-9.04c0.05-0.3,0.07-0.63,0.08-0.97v-0.08v-0.08c-0.01-0.35-0.03-0.68-0.08-0.97
			c-0.15-1.03-0.88-1.54-2.2-1.54h-0.6c-1.33,0-2.05,0.51-2.2,1.54c-0.05,0.29-0.08,0.62-0.08,0.97v0.08v0.08
			c0,0.34,0.03,0.67,0.08,0.97c0.15,1.02,0.87,1.53,2.2,1.53h0.6C86.56-7.51,87.29-8.02,87.44-9.04 M93-7.68v-2.33
			c0-0.41-0.03-0.78-0.09-1.12c-0.15-1.03-0.87-1.54-2.19-1.54h-0.53c-1.32,0-2.05,0.51-2.2,1.54c-0.06,0.34-0.08,0.72-0.08,1.12
			v2.33h1.15v-2.33c0-0.24,0.01-0.46,0.04-0.66c0.08-0.6,0.43-0.9,1.09-0.9h0.53c0.65,0,1.01,0.29,1.08,0.9
			c0.03,0.2,0.04,0.42,0.04,0.66v2.33H93z"/>
		<path d="M80.08-32.49c0.91,0,1.64,0.73,1.64,1.64v14.34c0,0.91-0.73,1.64-1.64,1.64H65.74c-0.91,0-1.64-0.73-1.64-1.64v-14.34
			c0-0.91,0.73-1.64,1.64-1.64H80.08 M71.64-19.38c-0.17,0-0.38-0.06-0.61-0.19l-1.41-0.79c-0.21-0.12-0.44-0.19-0.62-0.19h-1.82
			c-0.18,0-0.32,0.15-0.32,0.32v1.86c0,0.36,0.3,0.63,0.65,0.68c3.62,0.35,7.19,0.35,10.82,0c0.36-0.04,0.65-0.32,0.65-0.68v-3.09
			c0-0.51-0.28-0.99-0.7-1.23l-7.31-4.11c-0.17-0.09-0.29-0.31-0.29-0.53c0-0.35,0.22-0.63,0.57-0.63h2.95
			c0.17,0,0.38,0.06,0.61,0.19l1.41,0.79c0.21,0.12,0.44,0.19,0.62,0.19h1.82c0.18,0,0.32-0.15,0.32-0.32v-1.86
			c0-0.36-0.3-0.63-0.65-0.68C74.7-30,71.13-30,67.5-29.65c-0.36,0.04-0.65,0.32-0.65,0.68v3.09c0,0.51,0.28,0.99,0.7,1.23
			l7.31,4.11c0.17,0.09,0.29,0.31,0.29,0.53c0,0.35-0.22,0.63-0.57,0.63H71.64z"/>
	</g>
	<text transform="matrix(1 0 0 1 -45.7778 23.9307)" style="font-family:'Gilroy-ExtraBold'; font-size:13.4112px;">TODO</text>
	<g>
		<path d="M-39.82,30.09v1.84h-2.15v6.51h-1.91v-6.51h-2.15v-1.84H-39.82z"/>
		<path d="M-31.92,37.36c-0.84,0.83-1.87,1.25-3.08,1.25c-1.21,0-2.24-0.42-3.08-1.25c-0.84-0.84-1.26-1.87-1.26-3.09
			s0.42-2.25,1.26-3.09c0.84-0.83,1.87-1.25,3.08-1.25c1.21,0,2.23,0.42,3.08,1.25c0.84,0.84,1.26,1.87,1.26,3.09
			S-31.08,36.52-31.92,37.36z M-36.74,36.06c0.47,0.46,1.04,0.69,1.74,0.69s1.27-0.23,1.74-0.69c0.47-0.46,0.7-1.06,0.7-1.79
			s-0.23-1.33-0.7-1.79c-0.47-0.46-1.04-0.69-1.74-0.69s-1.27,0.23-1.74,0.69c-0.47,0.46-0.7,1.06-0.7,1.79S-37.2,35.6-36.74,36.06z
			"/>
		<path d="M-25.77,30.09c1.15,0,2.12,0.4,2.89,1.2c0.78,0.8,1.16,1.79,1.16,2.98c0,1.18-0.39,2.18-1.16,2.98
			c-0.78,0.8-1.74,1.2-2.89,1.2h-3.34v-8.35H-25.77z M-25.77,36.61c0.66,0,1.19-0.21,1.6-0.64c0.41-0.43,0.61-0.99,0.61-1.7
			c0-0.71-0.2-1.27-0.61-1.7c-0.41-0.43-0.94-0.64-1.6-0.64h-1.43v4.68H-25.77z"/>
		<path d="M-15.15,38.44l-0.42-1.31h-3.1l-0.42,1.31h-2.09l2.84-8.35h2.43l2.84,8.35H-15.15z M-18.1,35.34h1.96l-0.98-3.07
			L-18.1,35.34z"/>
		<path d="M-9.13,38.61c-0.85,0-1.56-0.19-2.13-0.56c-0.57-0.37-0.97-0.87-1.21-1.51l1.65-0.95c0.33,0.77,0.92,1.16,1.75,1.16
			c0.76,0,1.13-0.23,1.13-0.68c0-0.25-0.12-0.44-0.36-0.58c-0.24-0.14-0.7-0.3-1.37-0.48c-0.35-0.1-0.66-0.2-0.92-0.32
			c-0.26-0.12-0.52-0.28-0.77-0.47c-0.25-0.19-0.44-0.44-0.57-0.73c-0.13-0.29-0.2-0.63-0.2-1.01c0-0.77,0.28-1.39,0.83-1.85
			c0.55-0.46,1.21-0.69,1.97-0.69c0.68,0,1.29,0.16,1.81,0.48c0.52,0.32,0.94,0.79,1.24,1.4l-1.61,0.94
			c-0.15-0.32-0.34-0.56-0.56-0.72c-0.22-0.16-0.52-0.24-0.88-0.24c-0.29,0-0.51,0.06-0.66,0.19c-0.16,0.12-0.23,0.27-0.23,0.45
			c0,0.21,0.1,0.39,0.29,0.54c0.19,0.15,0.6,0.32,1.21,0.5c0.33,0.1,0.59,0.19,0.78,0.25c0.18,0.06,0.42,0.17,0.7,0.32
			c0.28,0.15,0.5,0.3,0.64,0.47c0.15,0.16,0.28,0.38,0.39,0.64c0.12,0.27,0.17,0.57,0.17,0.91c0,0.8-0.29,1.42-0.86,1.88
			C-7.46,38.38-8.2,38.61-9.13,38.61z"/>
	</g>
</g>
<g id="Calque_1">
	<g>
		<g>
			<path d="M30.26,18.74c-0.08-0.1-0.21-0.15-0.3-0.19c-0.09-0.04-0.07-0.13-0.15-0.15c-0.07-0.02-0.21,0.13-0.31,0.1
				c-0.1-0.03-0.09-0.22-0.18-0.25c-0.09-0.03-0.24,0.11-0.32,0.09c-0.08-0.02-0.09-0.22-0.17-0.25c-0.08-0.02-0.24,0.12-0.32,0.09
				c-0.08-0.03-0.08-0.22-0.17-0.25c-0.09-0.03-0.24,0.12-0.32,0.09c-0.08-0.02-0.09-0.22-0.17-0.25c-0.08-0.03-0.24,0.12-0.32,0.09
				c-0.08-0.03-0.1-0.22-0.18-0.25c-0.07-0.02-0.22,0.09-0.34,0.09c-0.82-0.08-1.14-0.6-1.2-0.44c-0.06,0.15,0.17,0.52,0.46,0.64
				c0.23,0.1,2.68,0.78,2.75,0.81c0.06,0.03,0.22,0.1,0.16,0.19c-0.09,0.11-0.33,0-0.39-0.05c-0.06-0.05-0.05-0.07-0.11-0.09
				c-0.13-0.03-0.2,0.21-0.34,0.18c-0.13-0.03-0.12-0.28-0.25-0.31c-0.14-0.03-0.21,0.21-0.34,0.18c-0.11-0.03-0.13-0.28-0.25-0.31
				c-0.14-0.03-0.2,0.21-0.34,0.17c-0.12-0.03-0.12-0.28-0.25-0.31c-0.13-0.03-0.22,0.2-0.34,0.18c-0.12-0.03-0.14-0.29-0.25-0.31
				c-0.11-0.02-0.2,0.11-0.35,0.13c0,0-0.43,0.12-1.11-0.59c-0.68-0.71-0.96-0.85-1.35-0.56c-0.63,0.47-1.02,0.16-1.14,0.02
				c-0.14-0.16,0.01-0.31,0.01-0.31s0.2,0.31,0.45,0.32c0.41,0.01,0.71-0.54,1.41-0.55c0.88-0.03,1.11,0.28,1.36,0.31
				c0.22,0.02,0.3-0.01,0.45-0.1h0c0.13-0.04,0.23,0.2,0.37,0.15c0.14-0.05,0.04-0.3,0.19-0.35c0.14-0.05,0.23,0.2,0.36,0.15
				c0.14-0.05,0.05-0.3,0.19-0.35c0.14-0.05,0.22,0.2,0.36,0.14c0.14-0.05,0.05-0.3,0.18-0.35c0.14-0.05,0.23,0.19,0.37,0.15
				c0.13-0.05,0.05-0.31,0.19-0.35c0.14-0.05,0.23,0.2,0.37,0.14c0.12-0.04,0.05-0.3,0.18-0.35c0.12-0.05,0.24,0.19,0.37,0.15
				c0.12-0.04,0.05-0.3,0.18-0.35c0.14-0.05,0.24,0.19,0.37,0.15c0.13-0.05,0.03-0.25,0.2-0.34c0,0,0.23-0.08,0.22-0.25
				c0-0.03-0.05-0.39-0.43-0.47c-0.37-0.07-3.25,0.73-3.29,0.68c-0.27-0.53-0.61-0.38-0.66-0.37c-0.05,0.01-0.38,0.15-0.73,0.01
				c-0.7-0.32-1.26,0.49-1.65,0.38c-0.35-0.1-0.62-0.04-0.77,0.01c-0.14,0.05-0.36,0.22-0.82,0.06c-3.61-1.23-6.42-0.15-6.42-0.15
				c-1.59,0.53-1.79,0-1.79,0s-0.52-0.71,3.16-1.56c5.29-1.22,5.45-3.23,5.39-3.35c-0.09-0.18-0.12,0.03-0.29,0.23
				c-0.15,0.17-0.32,0.08-0.32,0.08c-0.17-0.08-0.27,0.11-0.27,0.11s-0.21,0.33-0.4,0.14c-0.18-0.18-0.42,0.23-0.51,0.25
				c-0.11,0.02-0.16-0.03-0.31-0.1c-0.22-0.1-0.45,0.3-0.57,0.33c-0.18,0.04-0.31-0.22-0.47-0.11c-0.47,0.32-0.54,0.37-0.67,0.24
				c-0.09-0.1-0.11-0.2-0.42,0.1c-0.27,0.26-0.4,0.3-0.5,0.14c-0.11-0.16-0.08-0.39-0.54,0.05c-0.22,0.21-0.33,0.21-0.46,0.12
				c-0.09-0.07-0.09-0.41-0.42-0.1c-0.3,0.28-0.52,0.4-0.6,0.15c-0.09-0.28-0.45,0.05-0.53,0.13c-0.08,0.08-0.27,0.28-0.39,0.07
				c-0.13-0.21-0.43,0.1-0.61,0.3c-0.14,0.16-0.25,0.04-0.4-0.06c-0.17-0.11-0.67,0.58-0.71,0.62c-0.05,0.04-0.08,0-0.2-0.1
				c-0.18-0.15-0.65,0.68-0.73,0.73c0,0-0.03,0.07-0.16-0.05c-0.18-0.18-1.16,1.11-1.53,2.57c-0.47,1.87,0.28,3.3,0.28,3.3
				s0.23,0.01,0.32-0.15l0.15-0.33c0.12-0.28,0.31-0.19,0.31-0.19l-0.46,1.37c-0.07,0.18-0.03,0.44,0.13,0.68
				c0.15,0.24,0.26,0.41,0.38,0.52c0.37,0.35,0.34-0.06,0.35-0.12c0.04-0.22,0.29-0.05,0.48,0.06c0.35,0.2,0.31-0.24,0.39-0.38
				c0.05-0.1,0.23-0.11,0.41,0.05c0.15,0.12,0.29-0.29,0.29-0.29c0.18-0.88-0.25-0.98-0.48-1l-0.47-0.02c0,0,0.03-0.13,0.08-0.26
				l0.02-0.09c0.51-1.28-0.34-1.52-0.6-1.5c-0.28,0.03-0.26-0.15-0.26-0.15s1.55-0.3,1.26,1.34c0,0-0.06,0.29-0.09,0.43l0.43,0.05
				c0.37,0.05,0.43,0.48,0.43,0.48s1.35,0.36,2.11,0.21c0,0,0.34-0.08,0.44-0.29c0,0,0.49-1.16,1.94-1.21c0,0,0.05,0.15-0.18,0.23
				c-0.28,0.09-1.2,0.17-1.39,1.22v0c-0.02,0.17,0.03,0.54,0.4,0.71c0.32,0.14,0.43,0.73,0.5,0.89c0.19,0.45,0.47,0.02,0.47,0.02
				s0.18-0.36,0.33-0.16c0.26,0.34,0.38,0.17,0.43-0.05c0.06-0.23,0.16-0.33,0.43-0.05c0.11,0.12,0.34,0.03,0.36-0.18
				c0.05-0.46,0.36-0.09,0.4-0.08c0.05,0.02,0.38-0.05,0.2-0.57c0,0-0.25-0.5-1.36-0.71c-0.26-0.05-0.22-0.24-0.22-0.24l0.25,0.03
				c0.07,0.01,0.72,0.08,0.79,0.09c2.72,0.27,4.78-0.65,4.84-0.72c2.11,0.4,4.98,0.27,5.52,0.07
				C30.29,19.14,30.33,18.83,30.26,18.74z M25.91,15.38c0.04-0.07,0.09-0.11,0.12-0.13c0.16-0.09,0.27,0.2,0.25,0.21c0,0,0,0-0.01,0
				c0,0,0,0,0,0c-0.03,0.01-0.34,0.1-0.37,0.08C25.84,15.5,25.91,15.38,25.91,15.38z M24.71,15.47c0,0,0.04-0.05,0.12-0.08
				c0.08-0.03,0.2-0.03,0.35,0.07c0.18,0.11,0.17,0.2,0.17,0.2c-0.01,0-0.01,0.01-0.02,0.01c-0.13,0.05-0.66,0.12-0.66,0.12
				C24.56,15.59,24.71,15.47,24.71,15.47z M14.76,12.89c0.09,0.07,0,0.47-0.06,0.41l-0.46-0.24C14.24,13.05,14.67,12.82,14.76,12.89
				z M14.01,13.14c0.09,0.07,0.01,0.47-0.06,0.41l-0.46-0.24C13.49,13.3,13.92,13.07,14.01,13.14z M13.75,13.92
				c0.09,0.07,0.01,0.47-0.06,0.41l-0.46-0.25C13.23,14.08,13.66,13.85,13.75,13.92z M13.31,14.96l-0.46-0.24
				c0,0,0.43-0.23,0.52-0.16C13.46,14.62,13.38,15.02,13.31,14.96z M13.23,15.75l-0.46-0.24c0,0,0.43-0.23,0.52-0.16
				C13.38,15.41,13.29,15.81,13.23,15.75z M13.22,13.42c0.09,0.07,0.01,0.46-0.06,0.41l-0.46-0.25
				C12.7,13.58,13.13,13.35,13.22,13.42z M12.82,14.02c0.09,0.07,0,0.46-0.06,0.41l-0.46-0.24C12.3,14.19,12.73,13.96,12.82,14.02z
				 M12,14.98c0,0,0.43-0.23,0.52-0.16c0.09,0.07,0.01,0.47-0.06,0.41L12,14.98z M12.35,15.97l-0.46-0.25c0,0,0.43-0.23,0.52-0.16
				C12.5,15.63,12.42,16.03,12.35,15.97z M12.02,14.3c0.09,0.07,0,0.46-0.06,0.41l-0.46-0.25C11.51,14.46,11.93,14.23,12.02,14.3z
				 M11.61,15.1c0.09,0.07,0.01,0.47-0.06,0.41l-0.46-0.24C11.09,15.27,11.52,15.04,11.61,15.1z M11.01,16.05
				c0,0,0.43-0.23,0.52-0.16c0.09,0.07,0,0.47-0.06,0.41L11.01,16.05z M11.83,16.95l-0.46-0.24c0,0,0.43-0.23,0.52-0.16
				C11.98,16.61,11.89,17.01,11.83,16.95z M12.49,17.49l-0.46-0.24c0,0,0.43-0.23,0.52-0.16C12.64,17.14,12.55,17.55,12.49,17.49z
				 M12.69,16.65l-0.46-0.25c0,0,0.43-0.23,0.52-0.16C12.84,16.31,12.76,16.71,12.69,16.65z M13.3,17.85l-0.46-0.24
				c0,0,0.43-0.23,0.52-0.16C13.45,17.51,13.37,17.9,13.3,17.85z M13.52,17.08l-0.46-0.24c0,0,0.43-0.23,0.52-0.16
				C13.67,16.74,13.59,17.14,13.52,17.08z M13.68,16.35l-0.46-0.25c0,0,0.43-0.23,0.52-0.16C13.83,16.01,13.74,16.41,13.68,16.35z
				 M14.32,17.75l-0.46-0.25c0,0,0.43-0.23,0.52-0.16C14.47,17.41,14.39,17.81,14.32,17.75z M14.52,16.99l-0.46-0.24
				c0,0,0.43-0.23,0.52-0.16C14.67,16.65,14.58,17.05,14.52,16.99z M14.69,16.18l-0.46-0.24c0,0,0.43-0.23,0.52-0.16
				C14.84,15.84,14.75,16.24,14.69,16.18z M15.33,17.61l-0.46-0.24c0,0,0.43-0.23,0.52-0.16C15.48,17.27,15.39,17.67,15.33,17.61z
				 M15.49,16.79l-0.46-0.25c0,0,0.43-0.23,0.52-0.16C15.64,16.45,15.55,16.85,15.49,16.79z M15.65,15.95l-0.46-0.25
				c0,0,0.43-0.23,0.52-0.16C15.8,15.61,15.71,16.01,15.65,15.95z M16.34,17.29l-0.46-0.24c0,0,0.43-0.23,0.52-0.16
				C16.49,16.95,16.4,17.34,16.34,17.29z M16.46,16.48L16,16.24c0,0,0.43-0.23,0.52-0.16C16.62,16.14,16.53,16.54,16.46,16.48z
				 M16.62,15.69l-0.46-0.24c0,0,0.43-0.23,0.52-0.17C16.77,15.35,16.69,15.75,16.62,15.69z M17.33,17.12l-0.46-0.25
				c0,0,0.43-0.23,0.52-0.16C17.48,16.78,17.39,17.17,17.33,17.12z M17.45,16.36l-0.46-0.24c0,0,0.43-0.23,0.52-0.16
				C17.6,16.02,17.52,16.42,17.45,16.36z M17.6,15.56l-0.46-0.24c0,0,0.43-0.23,0.52-0.16C17.75,15.22,17.67,15.62,17.6,15.56z
				 M18.24,17.13l-0.46-0.24c0,0,0.43-0.23,0.52-0.16C18.39,16.79,18.31,17.19,18.24,17.13z M18.39,16.32l-0.46-0.24
				c0,0,0.43-0.23,0.52-0.16C18.54,15.98,18.46,16.38,18.39,16.32z M18.57,15.52l-0.46-0.24c0,0,0.43-0.23,0.52-0.16
				C18.72,15.18,18.63,15.58,18.57,15.52z M19.2,17.13l-0.46-0.25c0,0,0.43-0.23,0.52-0.16C19.35,16.79,19.26,17.19,19.2,17.13z
				 M19.35,16.37l-0.46-0.25c0,0,0.43-0.23,0.52-0.16C19.5,16.03,19.41,16.43,19.35,16.37z M19.52,15.59l-0.46-0.24
				c0,0,0.43-0.23,0.52-0.16C19.67,15.25,19.58,15.65,19.52,15.59z M20.1,17.25L19.64,17c0,0,0.43-0.23,0.52-0.16
				C20.25,16.9,20.16,17.3,20.1,17.25z M20.26,16.51l-0.46-0.24c0,0,0.43-0.23,0.52-0.16C20.41,16.17,20.32,16.57,20.26,16.51z
				 M20.44,15.75l-0.46-0.24c0,0,0.43-0.23,0.52-0.17C20.59,15.41,20.5,15.81,20.44,15.75z M21.15,16.67l-0.46-0.24
				c0,0,0.43-0.23,0.52-0.17C21.3,16.33,21.22,16.72,21.15,16.67z"/>
		</g>
		<g>
			<path d="M9.08,23.63c-0.1-0.25-0.28-0.36-0.61-0.37c-0.03,0-1.58,0-1.58,0L4.6,29.49c0,0,1.11,0,1.11,0
				c0.1,0.01,0.19-0.01,0.27-0.04c0.22-0.1,0.32-0.35,0.35-0.44c0,0,0.31-0.87,0.33-0.92c0.16,0,2.18,0,2.3,0
				c0.05,0.15,0.47,1.4,0.47,1.4h1.51l-0.96-3.03L9.08,23.63 M8.61,26.81c-0.23,0-1.46,0-1.55,0c0.17-0.46,0.58-1.62,0.76-2.09
				C7.98,25.2,8.61,26.79,8.61,26.81z"/>
			<path d="M19.92,23.21L19.92,23.21L19.92,23.21c-1.78,0-3.08,1.34-3.08,3.18c0,1.8,1.32,3.16,3.08,3.16
				c1.75,0,3.13-1.39,3.13-3.16C23.05,24.61,21.67,23.21,19.92,23.21 M19.96,28.17c-0.91,0-1.62-0.79-1.62-1.79
				c0-0.99,0.7-1.74,1.62-1.74c0.92,0,1.58,0.73,1.58,1.74C21.54,27.4,20.86,28.17,19.96,28.17z"/>
			<path d="M27.08,25.83l-0.06-0.02c0,0-0.58-0.18-0.58-0.18l-0.09-0.03c-0.47-0.17-0.81-0.32-0.81-0.59c0-0.01,0-0.01,0-0.02
				c0.05-0.46,0.9-0.46,0.91-0.46c0.47,0,0.83,0.07,1.29,0.26l0.01,0l0.02,0.01c0.11,0.02,0.2,0.02,0.27,0.01l0.13-0.05
				c0.18-0.1,0.36-0.63,0.43-0.85l0.02-0.07l-0.06-0.05c-0.02-0.02-0.16-0.13-0.64-0.31c-0.49-0.18-1.19-0.21-1.19-0.21l-0.34,0
				c-1.8,0-2.48,1.11-2.51,1.85c-0.01,0.74,0.41,1.12,1.05,1.47c0.27,0.15,0.76,0.28,1.11,0.38c0,0,0.37,0.11,0.37,0.11
				c0.67,0.21,0.93,0.44,0.88,0.81c-0.02,0.12-0.25,0.32-0.76,0.32c-0.39,0-0.74-0.06-1.11-0.19c-0.18-0.07-0.36-0.16-0.55-0.28
				l-0.01-0.01l-0.02-0.01c-0.11-0.04-0.2-0.06-0.28-0.05L24.4,27.7c-0.21,0.08-0.49,0.6-0.61,0.82l-0.05,0.09l0.08,0.06
				c0.01,0.01,0.33,0.26,0.6,0.42c0.32,0.18,0.68,0.31,1.1,0.39c0.17,0.03,0.44,0.07,0.87,0.07c1.39,0,2.41-0.71,2.52-1.76
				C28.97,26.85,28.38,26.22,27.08,25.83z"/>
			<path d="M30.06,23.27c-0.06,0-0.36,0.01-0.54,0.17c-0.08,0.07-0.12,0.17-0.12,0.28l0,0.99c0,0,1.68,0,1.9,0c0,0.23,0,4.79,0,4.79
				l1.56,0c0,0,0-4.56,0-4.79c0.21,0,1.22,0,1.22,0c0.06,0,0.36-0.01,0.54-0.17c0.08-0.08,0.12-0.17,0.12-0.28v-0.98H30.06z"/>
			<path d="M3.35,28.08c0,0-1.31,0-1.75,0c0-0.23,0-4.24,0-4.24c0-0.18-0.05-0.32-0.16-0.41c-0.17-0.16-0.42-0.16-0.52-0.16l-0.92,0
				l0,6.22h3.9l0-0.99C3.9,28.38,3.85,28.08,3.35,28.08z"/>
			<path d="M14.49,24.59c0.38-0.03,0.7,0,1,0.08c0.16,0.05,0.31,0.06,0.43,0.03c0,0,0.12-0.06,0.12-0.06
				c0.17-0.11,0.3-0.65,0.36-0.97l0.01-0.07l-0.06-0.05c-0.02-0.01-0.07-0.05-0.63-0.2c-0.51-0.14-0.97-0.16-1.2-0.15l-0.02,0
				c-1.29,0-3.23,0.85-3.29,3.2v0.01c0.06,2.34,2,3.2,3.29,3.2l0.02,0c0.23,0,0.68-0.02,1.2-0.16c0.56-0.15,0.61-0.19,0.63-0.2
				l0.06-0.04l-0.01-0.07c-0.06-0.32-0.18-0.86-0.36-0.97v0l0,0l0,0l-0.12-0.05c-0.12-0.03-0.27-0.02-0.43,0.03
				c-0.3,0.08-0.62,0.11-1,0.08c-0.98-0.1-1.56-0.76-1.61-1.82C12.92,25.35,13.51,24.69,14.49,24.59z"/>
			<path d="M39.35,29.49c0.24-0.01,0.65-0.15,0.65-0.63l0-0.78l-2.74,0c0,0,0-0.9,0-1.04c0.23,0,2.27,0,2.27,0l0-1.44
				c0,0-2.03,0-2.26,0c0-0.17,0-0.72,0-0.9c0.22,0,2.08,0,2.08,0c0.06,0,0.37,0,0.54-0.17c0.12-0.12,0.12-0.33,0.12-0.44v-0.82
				h-4.32l0,6.22L39.35,29.49z"/>
		</g>
	</g>
</g>
</svg>
