<?xml version="1.0" encoding="utf-8"?>
<!-- Generator: Adobe Illustrator 24.0.2, SVG Export Plug-In . SVG Version: 6.00 Build 0)  -->
<svg version="1.1" id="Capa_1" xmlns="http://www.w3.org/2000/svg" xmlns:xlink="http://www.w3.org/1999/xlink" x="0px" y="0px"
	 viewBox="0 0 40 40" style="enable-background:new 0 0 40 40;" xml:space="preserve">
<style type="text/css">
	.st0{fill:#FFFFFF;}
</style>
<g id="Modo_de_aislamiento">
	<path class="st0" d="M5.1,13.4C2.5,16.5,0,20.3,0,23.1c0,1.1,0.3,2,1.1,2.7c1.2,1,2.5,1.4,3.8,1.4c1.9,0,3.8-0.8,5.2-1.3
		c2.5-1,29.7-12.8,29.7-12.8c0.3-0.1,0.2-0.3-0.1-0.2c-0.1,0-29.7,8-29.7,8c-0.6,0.2-1.1,0.2-1.7,0.3c-2.3,0-4.3-1.3-4.3-3.9
		C4.1,16.2,4.4,14.9,5.1,13.4"/>
</g>
</svg>
