<?xml version="1.0" encoding="utf-8"?>
<!-- Generator: Adobe Illustrator 24.0.2, SVG Export Plug-In . SVG Version: 6.00 Build 0)  -->
<svg version="1.1" id="Capa_1" xmlns="http://www.w3.org/2000/svg" xmlns:xlink="http://www.w3.org/1999/xlink" x="0px" y="0px"
	 viewBox="0 0 40 40" style="enable-background:new 0 0 40 40;" xml:space="preserve">
<style type="text/css">
	.st0{fill:#FFFFFF;}
	.st1{fill-rule:evenodd;clip-rule:evenodd;fill:#FFFFFF;}
</style>
<g id="Capa_1_1_">
</g>
<g id="Modo_de_aislamiento">
	<path class="st0" d="M57.1,13.4c-2.6,3.1-5.1,6.8-5.1,9.7c0,1.1,0.3,2,1.2,2.7c1.2,1,2.5,1.4,3.8,1.4c1.9,0,3.8-0.8,5.2-1.3
		c2.5-1,29.7-12.8,29.7-12.8c0.3-0.1,0.2-0.3-0.1-0.2c-0.1,0-29.7,8-29.7,8c-0.6,0.2-1.1,0.2-1.7,0.3c-2.3,0-4.3-1.3-4.3-3.9
		C56.1,16.2,56.4,14.9,57.1,13.4"/>
	<g>
		<path class="st1" d="M21.6,8.6c-0.1,0-0.3,0.5-0.5,0.8c-0.2,0.2-0.4,0.2-0.5,0.4c0,0.1,0,0.2-0.1,0.4c-0.1,0.3-0.5,0.3-0.5,0.6
			c0,0.3,0.3,0.4,0.6,0.6c0.2,0.2,0.2,0.3,0.5,0.4c0.2,0.1,0.5-0.2,0.8-0.1c0.2,0.1,0.5,0.1,0.5,0.4c0,0.2,0,0.6-0.3,0.5
			c-0.1,0-0.5-0.1-1-0.1c-0.6,0.1-1.3,0.3-1.4,1c0,0.4,0.4,0.8,0.9,0.7c0.3-0.1,0.2-0.4,0.3-0.6c0.2-0.2,1.5,0.8,2.7,0.8
			c0.5,0,0.9-0.1,1.2-0.5c0,0,0.1-0.1,0.1-0.1c0,0,0.1,0.1,0.2,0.1c1,0.8,1.7,2.3,5.2,2.3c0.5,0,1.1,0.2,1.5,0.7
			c0.4,0.4,0.7,1,0.9,1.6c0.3,0.9,1,1.8,1.9,2.8c0,0,0.8,0.7,0.9,0.7c0,0,0.1,0.1,0,0.2c0,0.6-0.1,2.3,1.2,2.4
			c0.3,0,0.2-0.2,0.2-0.4c0-0.3,0-0.6,0.1-0.9c0.2-0.4-0.5-0.6-0.4-1.5c0-0.7-0.5-0.6-0.8-1.1c-0.2-0.3-0.3-0.5-0.3-0.8
			c0.1-2-0.4-3.4-0.7-3.7c-0.2-0.3-0.3-0.4-0.2-0.5c1.1-0.7,1.3-1.4,1.3-1.4c0.6-1.3,1.1-2.5,1.8-3.1c0.1-0.1,0.5-0.4,0.7-0.5
			c0.7-0.3,1-0.5,1.2-0.7c0.3-0.3,0.5-0.9,0.3-1.3c-0.4-0.4-1-0.1-1.2,0.1c-1.9,1.1-2.2,3.2-2.9,4.4c-0.5,0.9-1.4,1.6-2.2,1.7
			c-0.6,0-1.2-0.1-1.8-0.4c-1.5-0.7-2.4-1.5-2.6-1.7c-0.4-0.3-3.6-3.4-6.2-3.6c0,0-0.3-0.6-0.4-0.6c-0.2,0-0.4,0.4-0.5,0.4
			C21.9,9.1,21.7,8.6,21.6,8.6L21.6,8.6z"/>
		<path class="st1" d="M10.2,27.3c-0.2,0-0.4-0.2-0.4-0.5v-8H7.1v8.9c0,0.4,0.3,0.8,0.8,0.8h4.6c0.4,0,0.8-0.4,0.8-0.8v-8.9h-2.7v8
			C10.6,27,10.4,27.2,10.2,27.3L10.2,27.3z"/>
		<path class="st1" d="M19.1,18.8h-4c-0.5,0-0.9,0.4-0.9,0.9v8.8h2.7v-8.1c0-0.3,0.2-0.4,0.5-0.4s0.5,0.2,0.5,0.4v8.1h2.6v-8.1
			c0-0.2,0.2-0.4,0.5-0.4s0.5,0.2,0.5,0.4v8.1H24v-8.8c0-0.5-0.4-0.9-0.9-0.9L19.1,18.8L19.1,18.8z"/>
		<path class="st1" d="M5.3,26H2.7v2.4H0v-9.7h5.3c0.5,0,0.8,0.4,0.8,0.9v5.5C6.2,25.6,5.8,26,5.3,26L5.3,26z M3.5,20.4
			c0-0.3-0.2-0.5-0.5-0.5H2.7v4.9h0.4c0.2,0,0.5-0.2,0.5-0.5V20.4L3.5,20.4z"/>
		<path class="st1" d="M28.4,28.4V26h-0.9v2.4h-2.6v-8.8c0-0.5,0.4-0.9,0.9-0.9h4.5c0.5,0,0.9,0.4,0.9,0.9v8.8H28.4L28.4,28.4z
			 M28.4,24.8v-4.5c0-0.3-0.2-0.4-0.5-0.4c-0.2,0-0.5,0.2-0.5,0.4v4.4H28.4L28.4,24.8z"/>
	</g>
</g>
<g id="Layer_1">
	<g>
		<g id="XMLID_1_">
			<g>
				<path d="M88.8,58.3h-1.2h-0.6c-0.1-0.3-0.1-0.5-0.3-0.6c-0.2-0.2-0.5-0.3-0.9-0.3s-0.7,0.1-0.9,0.2c-0.1,0.1-0.2,0.3-0.2,0.5
					c0,0.3,0.4,0.5,1.1,0.6c0.8,0.2,1.4,0.3,1.8,0.5c0.1,0,0.2,0.1,0.2,0.1c0.7,0.3,1.1,0.9,1.1,1.6c0,0.9-0.4,1.5-1.1,1.9
					c-0.1,0-0.2,0.1-0.3,0.1c-0.5,0.2-1,0.3-1.6,0.3c-0.9,0-1.6-0.2-2.2-0.5c-0.3-0.2-0.6-0.5-0.8-0.8c-0.2-0.3-0.3-0.7-0.3-1.1h1.8
					c0,0.3,0.1,0.6,0.3,0.7c0.2,0.2,0.6,0.3,1.1,0.3c0.4,0,0.7-0.1,0.9-0.3c0.2-0.1,0.2-0.3,0.2-0.5c0-0.3-0.4-0.5-1.1-0.7
					c-1.1-0.2-1.8-0.4-2-0.5c-0.7-0.3-1.1-0.9-1.1-1.6c0-0.6,0.2-1.1,0.6-1.5c0.5-0.5,1.2-0.8,2.2-0.8c0.8,0,1.4,0.1,1.9,0.3
					c0,0,0.1,0,0.1,0.1c0.3,0.2,0.6,0.4,0.8,0.7C88.7,57.5,88.8,57.9,88.8,58.3z"/>
				<path d="M87.9,54.1C87.9,54,87.9,54,87.9,54.1c0-0.1-0.1-0.1-0.1-0.2c0,0-0.1,0-0.1,0h-0.1h-0.2v0.3h0.2c0,0,0,0,0.1,0
					c0.1,0,0.1,0,0.2,0C87.8,54.2,87.9,54.1,87.9,54.1z M88,53.9c0,0,0.1,0.1,0.1,0.2c0,0.1,0,0.2-0.1,0.2s-0.1,0.1-0.2,0.1
					c0,0,0.1,0,0.1,0.1l0.2,0.2l0.1,0.2h-0.2l-0.1-0.2c-0.1-0.1-0.1-0.2-0.2-0.2c0,0,0,0,0,0l-0.1,0h-0.1v0.5h-0.2v-1.1h0.4
					c0,0,0.1,0,0.1,0c0.1,0,0.2,0,0.2,0C87.9,53.8,88,53.8,88,53.9z"/>
				<path d="M88.5,54.3c0-0.2,0-0.3-0.1-0.4c-0.1-0.1-0.2-0.3-0.3-0.3c-0.1-0.1-0.3-0.1-0.4-0.1c0,0,0,0,0,0c-0.1,0-0.3,0-0.4,0.1
					c-0.1,0.1-0.3,0.2-0.3,0.3c-0.1,0.1-0.1,0.3-0.1,0.4c0,0.2,0,0.3,0.1,0.4c0.1,0.1,0.2,0.2,0.3,0.3c0.1,0.1,0.3,0.1,0.4,0.1
					c0,0,0,0,0,0c0.2,0,0.3,0,0.4-0.1c0.1-0.1,0.3-0.2,0.3-0.3C88.5,54.6,88.5,54.4,88.5,54.3z M88.7,54.3c0,0.2,0,0.3-0.1,0.5
					c-0.1,0.2-0.2,0.3-0.4,0.4c-0.2,0.1-0.3,0.1-0.5,0.1c0,0,0,0,0,0c-0.2,0-0.3,0-0.5-0.1c-0.2-0.1-0.3-0.2-0.4-0.4
					c-0.1-0.2-0.1-0.3-0.1-0.5c0-0.2,0-0.4,0.1-0.5s0.2-0.3,0.4-0.4s0.3-0.1,0.5-0.1c0,0,0,0,0,0c0.2,0,0.3,0,0.5,0.1
					c0.2,0.1,0.3,0.2,0.4,0.4C88.7,53.9,88.7,54.1,88.7,54.3z"/>
				<polygon points="78.5,45.8 83.4,54 78.5,54 75.5,54 70.8,46.2 67.2,40.2 70.8,38 73,36.7 				"/>
				<path d="M82.1,59.7v3.4h-1.6v-0.4c-0.6,0.4-1.2,0.6-1.9,0.6c0,0,0,0,0,0c-2,0-3.6-1.6-3.6-3.6c0-2,1.6-3.6,3.6-3.6c0,0,0,0,0,0
					c0.7,0,1.4,0.2,1.9,0.6v-0.4h1.6V59.7z M80.4,60.1v-0.8c-0.2-0.9-1-1.6-1.9-1.6c0,0,0,0,0,0c-1.1,0-1.9,0.9-1.9,2
					c0,1.1,0.9,2,1.9,2c0,0,0,0,0,0C79.4,61.7,80.2,61,80.4,60.1z"/>
				<path d="M74.3,59.7v3.4h-1.6v-0.4c-0.6,0.4-1.2,0.6-1.9,0.6c0,0,0,0,0,0c-2,0-3.6-1.6-3.6-3.6c0-2,1.6-3.6,3.6-3.6c0,0,0,0,0,0
					c0.7,0,1.4,0.2,1.9,0.6V54h1.6V59.7z M72.7,60.1v-0.8c-0.2-0.9-1-1.6-1.9-1.6c0,0,0,0,0,0c-1.1,0-1.9,0.9-1.9,2
					c0,1.1,0.9,2,1.9,2c0,0,0,0,0,0C71.7,61.7,72.5,61,72.7,60.1z"/>
				<polygon points="70.8,50.8 72.7,54 70.8,54 64.8,54 60.3,46.7 60.2,46.4 60.3,46.3 66,42.9 				"/>
				<rect x="64.8" y="56.2" width="1.8" height="7"/>
				<rect x="64.8" y="54" width="1.8" height="1.6"/>
				<path d="M63.9,59.7v3.4h-1.6v-0.4c-0.6,0.4-1.2,0.6-1.9,0.6c0,0,0,0,0,0c-2,0-3.6-1.6-3.6-3.6c0-2,1.6-3.6,3.6-3.6c0,0,0,0,0,0
					c0.7,0,1.4,0.2,1.9,0.6V54h1.6V59.7z M62.3,60.1v-0.8c-0.2-0.9-1-1.6-1.9-1.6c0,0,0,0,0,0c-1.1,0-2,0.9-2,2c0,1.1,0.9,2,2,2
					c0,0,0,0,0,0C61.3,61.7,62.1,61,62.3,60.1z"/>
				<polygon points="60.3,51.3 62,54 60.3,54 54,54 53.1,52.5 59,49 				"/>
				<path d="M56.1,59.7v3.4h-1.6v-0.4c-0.6,0.4-1.2,0.6-1.9,0.6c0,0,0,0,0,0c-2,0-3.5-1.6-3.5-3.6s1.6-3.6,3.5-3.6c0,0,0,0,0,0
					c0.7,0,1.4,0.2,1.9,0.6v-0.4h1.6V59.7z M54.5,60.1v-0.8c-0.2-0.9-1-1.6-1.9-1.6c0,0,0,0,0,0c-1.1,0-1.9,0.9-1.9,2
					c0,1.1,0.9,2,1.9,2c0,0,0,0,0,0C53.5,61.7,54.3,61,54.5,60.1z"/>
			</g>
		</g>
	</g>
	<g>
		<path d="M54.3-11.2c0-0.3,0.2-0.5,1.3-0.5c0.7,0,1.5,0,2.4,0.3v-1.1c-0.5-0.1-1.2-0.3-2.4-0.3c-2,0-2.6,0.6-2.6,1.5
			c0,1.1,0.8,1.4,2.5,1.6C56.5-9.5,57-9.4,57-9.1c0,0.3-0.2,0.5-1.3,0.5c-0.8,0-1.7-0.1-2.5-0.4v1.1c0.9,0.2,1.6,0.3,2.5,0.3
			c1.5,0,2.6-0.3,2.6-1.5c0-1.2-0.8-1.3-2.5-1.5C54.9-10.7,54.3-10.8,54.3-11.2 M62.5-9.5c0,0.7-0.6,0.9-1.5,0.9
			c-1,0-1.2-0.2-1.2-0.5c0-0.3,0.3-0.4,1.2-0.5c0.7-0.1,1.4-0.3,1.6-0.4V-9.5z M63.6-9.3V-11c0-1.5-1.3-1.7-2.5-1.7
			c-0.6,0-1.4,0.1-2.1,0.3v1.1c0.8-0.2,1.6-0.3,2.1-0.3c0.5,0,1.3,0,1.3,0.4c0,0.3-0.4,0.5-1.3,0.6c-1.5,0.2-2.6,0.4-2.6,1.6
			c0,1.2,0.9,1.5,2.6,1.5C63-7.6,63.6-8.2,63.6-9.3 M66.3-7.6c0.4,0,0.9,0,1.3-0.1l-0.2-1c-0.3,0-0.8,0.1-1.2,0.1
			c-0.7,0-1.1-0.3-1.1-0.8v-3.2h-1.1v3.3C64.1-7.9,65.3-7.6,66.3-7.6L66.3-7.6z M71.7-10.1c0,0.2,0,0.4,0,0.6
			c-0.1,0.6-0.4,0.9-1.1,0.9H70c-0.7,0-1-0.3-1.1-0.9c0-0.2,0-0.4,0-0.6c0-0.2,0-0.4,0-0.6c0.1-0.6,0.4-0.9,1.1-0.9h0.6
			c0.7,0,1,0.3,1.1,0.9C71.7-10.5,71.7-10.3,71.7-10.1 M72.8-9c0.1-0.3,0.1-0.6,0.1-1v-0.1v-0.1c0-0.4,0-0.7-0.1-1
			c-0.2-1-0.9-1.5-2.2-1.5H70c-1.3,0-2,0.5-2.2,1.5c-0.1,0.3-0.1,0.6-0.1,1v0.1v0.1c0,0.3,0,0.7,0.1,1C68-8,68.7-7.5,70-7.5h0.6
			C71.9-7.5,72.6-8,72.8-9 M80.8-7.7h1.2V-10c0-0.4,0-0.8-0.1-1.1c-0.2-1-0.9-1.5-2.2-1.5h-0.3c-0.8,0-1.3,0.2-1.7,0.5
			c-0.4-0.4-0.9-0.5-1.7-0.5h-0.3c-1.3,0-2,0.5-2.2,1.5c-0.1,0.4-0.1,0.7-0.1,1.1v2.3h1.2V-10c0-0.2,0-0.5,0.1-0.7
			c0.1-0.6,0.4-0.9,1.1-0.9h0.3c0.7,0,1,0.3,1.1,0.9c0,0.2,0,0.4,0,0.7v2.3h1.2V-10c0-0.2,0-0.5,0-0.7c0.1-0.6,0.4-0.9,1.1-0.9h0.3
			c0.7,0,1,0.3,1.1,0.9c0,0.2,0.1,0.4,0.1,0.7L80.8-7.7L80.8-7.7z M86.4-10.1c0,0.2,0,0.4,0,0.6c-0.1,0.6-0.4,0.9-1.1,0.9h-0.6
			c-0.7,0-1-0.3-1.1-0.9c0-0.2,0-0.4,0-0.6c0-0.2,0-0.4,0-0.6c0.1-0.6,0.4-0.9,1.1-0.9h0.6c0.7,0,1,0.3,1.1,0.9
			C86.3-10.5,86.4-10.3,86.4-10.1 M87.4-9c0.1-0.3,0.1-0.6,0.1-1v-0.1v-0.1c0-0.4,0-0.7-0.1-1c-0.2-1-0.9-1.5-2.2-1.5h-0.6
			c-1.3,0-2.1,0.5-2.2,1.5c-0.1,0.3-0.1,0.6-0.1,1v0.1v0.1c0,0.3,0,0.7,0.1,1c0.2,1,0.9,1.5,2.2,1.5h0.6C86.6-7.5,87.3-8,87.4-9
			 M93-7.7V-10c0-0.4,0-0.8-0.1-1.1c-0.2-1-0.9-1.5-2.2-1.5h-0.5c-1.3,0-2.1,0.5-2.2,1.5c-0.1,0.3-0.1,0.7-0.1,1.1v2.3h1.2V-10
			c0-0.2,0-0.5,0-0.7c0.1-0.6,0.4-0.9,1.1-0.9h0.5c0.7,0,1,0.3,1.1,0.9c0,0.2,0,0.4,0,0.7v2.3C91.8-7.7,93-7.7,93-7.7z"/>
		<path d="M80.1-32.5c0.9,0,1.6,0.7,1.6,1.6v14.3c0,0.9-0.7,1.6-1.6,1.6H65.7c-0.9,0-1.6-0.7-1.6-1.6v-14.3c0-0.9,0.7-1.6,1.6-1.6
			H80.1 M71.6-19.4c-0.2,0-0.4-0.1-0.6-0.2l-1.4-0.8c-0.2-0.1-0.4-0.2-0.6-0.2h-1.8c-0.2,0-0.3,0.1-0.3,0.3v1.9
			c0,0.4,0.3,0.6,0.7,0.7c3.6,0.4,7.2,0.4,10.8,0c0.4,0,0.7-0.3,0.7-0.7v-3.1c0-0.5-0.3-1-0.7-1.2L71-26.8c-0.2-0.1-0.3-0.3-0.3-0.5
			c0-0.4,0.2-0.6,0.6-0.6h2.9c0.2,0,0.4,0.1,0.6,0.2l1.4,0.8c0.2,0.1,0.4,0.2,0.6,0.2h1.8c0.2,0,0.3-0.1,0.3-0.3V-29
			c0-0.4-0.3-0.6-0.7-0.7c-3.6-0.4-7.2-0.4-10.8,0c-0.4,0-0.7,0.3-0.7,0.7v3.1c0,0.5,0.3,1,0.7,1.2l7.3,4.1c0.2,0.1,0.3,0.3,0.3,0.5
			c0,0.4-0.2,0.6-0.6,0.6H71.6z"/>
	</g>
	<text transform="matrix(1 0 0 1 -45.7778 23.9307)" style="font-family:'Gilroy-ExtraBold'; font-size:13.4112px;">TODO</text>
	<g>
		<path d="M-39.8,30.1v1.8H-42v6.5h-1.9v-6.5H-46v-1.8C-46,30.1-39.8,30.1-39.8,30.1z"/>
		<path d="M-31.9,37.4c-0.8,0.8-1.9,1.3-3.1,1.3s-2.2-0.4-3.1-1.3c-0.8-0.8-1.3-1.9-1.3-3.1s0.4-2.3,1.3-3.1
			c0.8-0.8,1.9-1.3,3.1-1.3c1.2,0,2.2,0.4,3.1,1.3c0.8,0.8,1.3,1.9,1.3,3.1S-31.1,36.5-31.9,37.4z M-36.7,36.1
			c0.5,0.5,1,0.7,1.7,0.7s1.3-0.2,1.7-0.7s0.7-1.1,0.7-1.8s-0.2-1.3-0.7-1.8s-1-0.7-1.7-0.7s-1.3,0.2-1.7,0.7s-0.7,1.1-0.7,1.8
			S-37.2,35.6-36.7,36.1z"/>
		<path d="M-25.8,30.1c1.1,0,2.1,0.4,2.9,1.2c0.8,0.8,1.2,1.8,1.2,3c0,1.2-0.4,2.2-1.2,3c-0.8,0.8-1.7,1.2-2.9,1.2h-3.3v-8.4
			L-25.8,30.1L-25.8,30.1z M-25.8,36.6c0.7,0,1.2-0.2,1.6-0.6s0.6-1,0.6-1.7s-0.2-1.3-0.6-1.7s-0.9-0.6-1.6-0.6h-1.4v4.7H-25.8z"/>
		<path d="M-15.1,38.4l-0.4-1.3h-3.1l-0.4,1.3h-2.1l2.8-8.4h2.4l2.8,8.4H-15.1z M-18.1,35.3h2l-1-3.1L-18.1,35.3z"/>
		<path d="M-9.1,38.6c-0.9,0-1.6-0.2-2.1-0.6c-0.6-0.4-1-0.9-1.2-1.5l1.6-1c0.3,0.8,0.9,1.2,1.8,1.2c0.8,0,1.1-0.2,1.1-0.7
			c0-0.3-0.1-0.4-0.4-0.6C-8.5,35.3-9,35.2-9.7,35c-0.4-0.1-0.7-0.2-0.9-0.3s-0.5-0.3-0.8-0.5c-0.3-0.2-0.4-0.4-0.6-0.7
			s-0.2-0.6-0.2-1c0-0.8,0.3-1.4,0.8-1.9c0.6-0.5,1.2-0.7,2-0.7c0.7,0,1.3,0.2,1.8,0.5s0.9,0.8,1.2,1.4l-1.6,0.9
			C-8,32.4-8.2,32.2-8.4,32s-0.5-0.2-0.9-0.2c-0.3,0-0.5,0.1-0.7,0.2c-0.2,0.1-0.2,0.3-0.2,0.5c0,0.2,0.1,0.4,0.3,0.5
			s0.6,0.3,1.2,0.5c0.3,0.1,0.6,0.2,0.8,0.3c0.2,0.1,0.4,0.2,0.7,0.3c0.3,0.2,0.5,0.3,0.6,0.5c0.2,0.2,0.3,0.4,0.4,0.6
			c0.1,0.3,0.2,0.6,0.2,0.9c0,0.8-0.3,1.4-0.9,1.9C-7.5,38.4-8.2,38.6-9.1,38.6z"/>
	</g>
</g>
</svg>
