<?xml version="1.0" encoding="utf-8"?>
<!-- Generator: Adobe Illustrator 24.0.2, SVG Export Plug-In . SVG Version: 6.00 Build 0)  -->
<svg version="1.1" xmlns="http://www.w3.org/2000/svg" xmlns:xlink="http://www.w3.org/1999/xlink" x="0px" y="0px"
	 viewBox="0 0 40 40" style="enable-background:new 0 0 40 40;" xml:space="preserve">
<g id="Capa_1">
</g>
<g id="Modo_de_aislamiento">
	<path d="M57.12,13.44c-2.6,3.06-5.1,6.85-5.12,9.68c-0.01,1.07,0.33,2,1.15,2.7c1.17,1.02,2.47,1.37,3.76,1.38
		c1.88,0,3.75-0.76,5.21-1.34c2.47-0.99,29.71-12.82,29.71-12.82c0.26-0.13,0.21-0.3-0.12-0.21c-0.14,0.03-29.66,8.03-29.66,8.03
		c-0.56,0.16-1.14,0.24-1.72,0.25c-2.27,0.01-4.29-1.25-4.27-3.9C56.07,16.17,56.39,14.91,57.12,13.44"/>
</g>
<g id="Layer_1">
	<g>
		<g id="XMLID_1_">
			<g>
				<path d="M88.8,58.32h-1.15h-0.6c-0.05-0.29-0.14-0.49-0.25-0.61c-0.19-0.19-0.51-0.28-0.94-0.28c-0.43,0-0.73,0.07-0.9,0.22
					c-0.13,0.11-0.19,0.26-0.19,0.45c0,0.26,0.37,0.48,1.1,0.64c0.83,0.18,1.43,0.34,1.79,0.46c0.1,0.04,0.18,0.07,0.24,0.1
					c0.74,0.35,1.11,0.88,1.11,1.59c0,0.87-0.36,1.5-1.08,1.9c-0.09,0.05-0.17,0.09-0.27,0.13c-0.46,0.2-1,0.3-1.61,0.3
					c-0.91,0-1.64-0.16-2.2-0.48c-0.35-0.2-0.62-0.46-0.79-0.77c-0.18-0.31-0.26-0.67-0.26-1.09h1.83c0,0.31,0.11,0.56,0.34,0.73
					c0.22,0.17,0.6,0.27,1.14,0.27c0.4,0,0.7-0.08,0.9-0.25c0.16-0.13,0.23-0.28,0.23-0.45c0-0.28-0.36-0.51-1.08-0.66
					c-1.07-0.23-1.75-0.42-2.02-0.55c-0.73-0.34-1.1-0.87-1.1-1.61c0-0.59,0.19-1.09,0.57-1.5c0.48-0.51,1.2-0.76,2.16-0.76
					c0.79,0,1.42,0.11,1.9,0.34c0.04,0.02,0.08,0.04,0.11,0.06c0.34,0.19,0.6,0.43,0.77,0.74C88.71,57.52,88.8,57.89,88.8,58.32z"/>
				<path d="M87.87,54.06c0-0.04-0.01-0.07-0.02-0.09c-0.02-0.03-0.04-0.05-0.08-0.06c-0.02-0.01-0.06-0.01-0.11-0.02h-0.07h-0.21
					v0.34h0.22c0.02,0,0.04,0,0.05,0c0.08-0.01,0.13-0.02,0.16-0.05C87.85,54.15,87.87,54.1,87.87,54.06z M88.01,53.88
					c0.04,0.05,0.05,0.1,0.05,0.16c0,0.08-0.03,0.16-0.09,0.22c-0.06,0.06-0.14,0.1-0.23,0.1c0.04,0.02,0.07,0.04,0.1,0.06
					l0.17,0.22l0.13,0.22h-0.22l-0.1-0.18c-0.07-0.11-0.12-0.2-0.17-0.24c-0.01-0.01-0.01-0.01-0.02-0.02l-0.14-0.04h-0.11v0.48
					h-0.18v-1.13h0.39c0.02,0,0.05,0.01,0.07,0.01c0.1,0,0.17,0.01,0.22,0.03C87.93,53.79,87.98,53.82,88.01,53.88z"/>
				<path d="M88.52,54.29c0-0.16-0.04-0.3-0.11-0.44c-0.08-0.14-0.19-0.25-0.33-0.33c-0.14-0.07-0.28-0.11-0.43-0.11
					c-0.01,0-0.01,0-0.01,0c-0.14,0-0.29,0.04-0.43,0.11c-0.14,0.08-0.25,0.19-0.33,0.33c-0.08,0.14-0.12,0.28-0.12,0.44
					c0,0.15,0.04,0.29,0.12,0.43c0.07,0.13,0.18,0.24,0.32,0.32c0.14,0.08,0.28,0.11,0.43,0.11c0,0,0,0,0.01,0
					c0.15,0,0.3-0.04,0.43-0.11c0.14-0.08,0.25-0.19,0.32-0.32C88.49,54.58,88.52,54.44,88.52,54.29z M88.7,54.29
					c0,0.17-0.04,0.35-0.14,0.52c-0.09,0.17-0.22,0.3-0.38,0.38c-0.17,0.1-0.34,0.14-0.52,0.14c-0.01,0-0.01,0-0.01,0
					c-0.18,0-0.35-0.04-0.52-0.14c-0.17-0.09-0.3-0.22-0.39-0.38c-0.1-0.17-0.14-0.34-0.14-0.52c0-0.19,0.04-0.36,0.14-0.53
					c0.1-0.17,0.22-0.29,0.39-0.38c0.17-0.09,0.34-0.13,0.51-0.14c0,0,0,0,0.01,0c0.17,0,0.34,0.05,0.51,0.14
					c0.17,0.09,0.3,0.22,0.39,0.38C88.66,53.92,88.7,54.1,88.7,54.29z"/>
				<polygon points="78.46,45.78 83.4,54.01 78.46,54.01 75.46,54.01 70.75,46.15 67.17,40.2 70.75,38.05 73,36.69 				"/>
				<path d="M82.05,59.73v3.38h-1.64v-0.37c-0.55,0.36-1.22,0.57-1.93,0.57c-0.01,0-0.01,0-0.02,0c-1.96-0.01-3.56-1.61-3.56-3.58
					c0-1.96,1.6-3.56,3.56-3.57c0.01,0,0.01,0,0.02,0c0.71,0,1.37,0.21,1.93,0.57v-0.39h1.64V59.73z M80.41,60.11v-0.75
					c-0.17-0.9-0.97-1.59-1.93-1.59c-0.01,0-0.01,0-0.02,0c-1.08,0.01-1.95,0.89-1.95,1.96c0,1.08,0.87,1.96,1.95,1.97
					c0.01,0,0.01,0,0.02,0C79.43,61.7,80.23,61.01,80.41,60.11z"/>
				<path d="M74.33,59.73v3.38h-1.64v-0.37c-0.56,0.36-1.22,0.57-1.93,0.57c-0.01,0-0.01,0-0.02,0c-1.96-0.01-3.56-1.61-3.56-3.58
					c0-1.96,1.59-3.56,3.56-3.57c0.01,0,0.01,0,0.02,0c0.71,0,1.37,0.21,1.93,0.57v-2.71h1.64V59.73z M72.69,60.11v-0.75
					c-0.17-0.9-0.98-1.59-1.93-1.59c-0.01,0-0.01,0-0.02,0c-1.08,0.01-1.95,0.89-1.95,1.96c0,1.08,0.87,1.96,1.95,1.97
					c0.01,0,0.01,0,0.02,0C71.71,61.7,72.51,61.01,72.69,60.11z"/>
				<polygon points="70.75,50.78 72.68,54.01 70.75,54.01 64.75,54.01 60.35,46.68 60.15,46.36 60.35,46.25 65.98,42.86 				"/>
				<rect x="64.76" y="56.16" width="1.79" height="6.95"/>
				<rect x="64.76" y="54.05" width="1.79" height="1.57"/>
				<path d="M63.94,59.73v3.38H62.3v-0.37c-0.56,0.36-1.22,0.57-1.93,0.57c-0.01,0-0.01,0-0.02,0c-1.96-0.01-3.56-1.61-3.56-3.58
					c0-1.96,1.6-3.56,3.56-3.57c0.01,0,0.01,0,0.02,0c0.71,0,1.37,0.21,1.93,0.57v-2.71h1.64V59.73z M62.3,60.11v-0.75
					c-0.17-0.9-0.97-1.59-1.93-1.59c-0.01,0-0.01,0-0.02,0c-1.08,0.01-1.95,0.89-1.95,1.96c0,1.08,0.87,1.96,1.95,1.97
					c0.01,0,0.01,0,0.02,0C61.32,61.7,62.12,61.01,62.3,60.11z"/>
				<polygon points="60.35,51.31 61.97,54.01 60.35,54.01 54.03,54.01 53.14,52.53 58.97,49.02 				"/>
				<path d="M56.14,59.73v3.38H54.5v-0.37c-0.56,0.36-1.22,0.57-1.93,0.57c-0.01,0-0.01,0-0.02,0C50.59,63.3,49,61.69,49,59.73
					c0-1.96,1.59-3.56,3.55-3.57c0.01,0,0.01,0,0.02,0c0.71,0,1.37,0.21,1.93,0.57v-0.39h1.64V59.73z M54.5,60.11v-0.75
					c-0.17-0.9-0.97-1.59-1.93-1.59c-0.01,0-0.01,0-0.02,0c-1.07,0.01-1.94,0.89-1.94,1.96c0,1.08,0.87,1.96,1.94,1.97
					c0.01,0,0.01,0,0.02,0C53.53,61.7,54.33,61.01,54.5,60.11z"/>
			</g>
		</g>
	</g>
	<g>
		<path d="M1.26,28.84c0-0.31,0.18-0.51,1.28-0.51c0.73,0,1.48,0.02,2.41,0.31v-1.06c-0.46-0.14-1.21-0.26-2.38-0.26
			c-1.99,0-2.57,0.6-2.57,1.52c0,1.12,0.83,1.41,2.54,1.59c0.94,0.1,1.42,0.12,1.42,0.48c0,0.32-0.24,0.46-1.31,0.47
			c-0.75,0-1.65-0.09-2.49-0.38v1.12c0.88,0.23,1.59,0.3,2.5,0.3c1.5,0,2.56-0.3,2.56-1.54c0-1.18-0.85-1.34-2.5-1.52
			C1.91,29.29,1.26,29.23,1.26,28.84 M9.5,30.52c0,0.72-0.62,0.87-1.49,0.87c-1.02,0-1.22-0.19-1.22-0.48c0-0.31,0.33-0.38,1.15-0.5
			c0.68-0.09,1.39-0.26,1.56-0.43V30.52z M10.62,30.75v-1.78c0-1.47-1.29-1.68-2.49-1.68c-0.59,0-1.44,0.13-2.12,0.29v1.05
			c0.85-0.17,1.63-0.28,2.12-0.28c0.55,0,1.25,0.04,1.25,0.43c0,0.34-0.42,0.46-1.25,0.56c-1.5,0.2-2.58,0.39-2.58,1.55
			c0,1.2,0.94,1.54,2.58,1.54C9.98,32.45,10.62,31.8,10.62,30.75 M13.3,32.36c0.41,0,0.94-0.01,1.32-0.07l-0.17-0.99
			c-0.31,0.04-0.78,0.06-1.15,0.06c-0.65,0-1.09-0.26-1.09-0.76v-3.24h-1.13v3.33C11.09,32.07,12.3,32.36,13.3,32.36L13.3,32.36z
			 M18.73,29.91c-0.01,0.21-0.02,0.4-0.04,0.58c-0.08,0.6-0.43,0.89-1.09,0.89h-0.6c-0.65,0-1.01-0.29-1.09-0.89
			c-0.02-0.18-0.04-0.38-0.04-0.58c0.01-0.21,0.02-0.41,0.04-0.58c0.08-0.6,0.43-0.9,1.09-0.9h0.6c0.65,0,1.01,0.29,1.09,0.9
			C18.71,29.51,18.72,29.7,18.73,29.91 M19.79,30.96c0.06-0.3,0.08-0.63,0.09-0.97v-0.08v-0.08c-0.01-0.35-0.03-0.68-0.09-0.97
			c-0.15-1.03-0.87-1.54-2.19-1.54h-0.6c-1.32,0-2.04,0.51-2.19,1.54c-0.06,0.29-0.08,0.62-0.09,0.97v0.08v0.08
			c0.01,0.34,0.03,0.67,0.09,0.97c0.15,1.02,0.87,1.53,2.19,1.53h0.6C18.92,32.49,19.64,31.98,19.79,30.96 M27.75,32.32h1.15v-2.33
			c0-0.4-0.02-0.78-0.09-1.12c-0.15-1.02-0.87-1.53-2.19-1.53h-0.32c-0.77,0-1.34,0.17-1.71,0.52c-0.36-0.35-0.93-0.52-1.7-0.52
			h-0.32c-1.32,0-2.04,0.51-2.19,1.53c-0.06,0.35-0.09,0.73-0.09,1.12v2.33h1.15v-2.33c0-0.23,0.02-0.46,0.05-0.66
			c0.07-0.6,0.43-0.89,1.08-0.89h0.32c0.65,0,1.01,0.29,1.09,0.89c0.03,0.21,0.04,0.43,0.04,0.66v2.33h1.15v-2.33
			c0-0.23,0.01-0.46,0.04-0.66c0.08-0.6,0.43-0.89,1.09-0.89h0.32c0.65,0,1.01,0.29,1.08,0.89c0.04,0.21,0.05,0.43,0.05,0.66V32.32z
			 M33.37,29.91c0,0.21-0.01,0.4-0.04,0.58c-0.07,0.6-0.43,0.89-1.09,0.89h-0.6c-0.65,0-1.02-0.29-1.09-0.89
			c-0.03-0.18-0.04-0.38-0.04-0.58c0-0.21,0.01-0.41,0.04-0.58c0.07-0.6,0.43-0.9,1.09-0.9h0.6c0.65,0,1.02,0.29,1.09,0.9
			C33.35,29.51,33.37,29.7,33.37,29.91 M34.44,30.96c0.05-0.3,0.07-0.63,0.08-0.97v-0.08v-0.08c-0.01-0.35-0.03-0.68-0.08-0.97
			c-0.15-1.03-0.88-1.54-2.2-1.54h-0.6c-1.33,0-2.05,0.51-2.2,1.54c-0.05,0.29-0.08,0.62-0.08,0.97v0.08v0.08
			c0,0.34,0.03,0.67,0.08,0.97c0.15,1.02,0.87,1.53,2.2,1.53h0.6C33.56,32.49,34.29,31.98,34.44,30.96 M40,32.32v-2.33
			c0-0.41-0.03-0.78-0.09-1.12c-0.15-1.03-0.87-1.54-2.19-1.54h-0.53c-1.32,0-2.05,0.51-2.2,1.54c-0.06,0.34-0.08,0.72-0.08,1.12
			v2.33h1.15v-2.33c0-0.24,0.01-0.46,0.04-0.66c0.08-0.6,0.43-0.9,1.09-0.9h0.53c0.65,0,1.01,0.29,1.08,0.9
			c0.03,0.2,0.04,0.42,0.04,0.66v2.33H40z"/>
		<path d="M27.08,7.51c0.91,0,1.64,0.73,1.64,1.64v14.34c0,0.91-0.73,1.64-1.64,1.64H12.74c-0.91,0-1.64-0.73-1.64-1.64V9.15
			c0-0.91,0.73-1.64,1.64-1.64H27.08 M18.64,20.62c-0.17,0-0.38-0.06-0.61-0.19l-1.41-0.79c-0.21-0.12-0.44-0.19-0.62-0.19h-1.82
			c-0.18,0-0.32,0.15-0.32,0.32v1.86c0,0.36,0.3,0.63,0.65,0.68c3.62,0.35,7.19,0.35,10.82,0c0.36-0.04,0.65-0.32,0.65-0.68v-3.09
			c0-0.51-0.28-0.99-0.7-1.23l-7.31-4.11c-0.17-0.09-0.29-0.31-0.29-0.53c0-0.35,0.22-0.63,0.57-0.63h2.95
			c0.17,0,0.38,0.06,0.61,0.19l1.41,0.79c0.21,0.12,0.44,0.19,0.62,0.19h1.82c0.18,0,0.32-0.15,0.32-0.32v-1.86
			c0-0.36-0.3-0.63-0.65-0.68C21.7,10,18.13,10,14.5,10.35c-0.36,0.04-0.65,0.32-0.65,0.68v3.09c0,0.51,0.28,0.99,0.7,1.23
			l7.31,4.11c0.17,0.09,0.29,0.31,0.29,0.53c0,0.35-0.22,0.63-0.57,0.63H18.64z"/>
	</g>
</g>
</svg>
