<?xml version="1.0" encoding="utf-8"?>
<!-- Generator: Adobe Illustrator 24.0.2, SVG Export Plug-In . SVG Version: 6.00 Build 0)  -->
<svg version="1.1" id="Capa_1" xmlns="http://www.w3.org/2000/svg" xmlns:xlink="http://www.w3.org/1999/xlink" x="0px" y="0px"
	 viewBox="0 0 40 40" style="enable-background:new 0 0 40 40;" xml:space="preserve">
<style type="text/css">
	.st0{fill:#FFFFFF;}
</style>
<g id="Capa_1_1_">
</g>
<g id="Modo_de_aislamiento">
	<path d="M57.1,13.4c-2.6,3.1-5.1,6.8-5.1,9.7c0,1.1,0.3,2,1.2,2.7c1.2,1,2.5,1.4,3.8,1.4c1.9,0,3.8-0.8,5.2-1.3
		c2.5-1,29.7-12.8,29.7-12.8c0.3-0.1,0.2-0.3-0.1-0.2c-0.1,0-29.7,8-29.7,8c-0.6,0.2-1.1,0.2-1.7,0.3c-2.3,0-4.3-1.3-4.3-3.9
		C56.1,16.2,56.4,14.9,57.1,13.4"/>
</g>
<g id="Layer_1">
	<g>
		<g id="XMLID_1_">
			<g>
				<path class="st0" d="M88.8,58.3h-1.2h-0.6c-0.1-0.3-0.1-0.5-0.3-0.6c-0.2-0.2-0.5-0.3-0.9-0.3s-0.7,0.1-0.9,0.2
					c-0.1,0.1-0.2,0.3-0.2,0.5c0,0.3,0.4,0.5,1.1,0.6c0.8,0.2,1.4,0.3,1.8,0.5c0.1,0,0.2,0.1,0.2,0.1c0.7,0.3,1.1,0.9,1.1,1.6
					c0,0.9-0.4,1.5-1.1,1.9c-0.1,0-0.2,0.1-0.3,0.1c-0.5,0.2-1,0.3-1.6,0.3c-0.9,0-1.6-0.2-2.2-0.5c-0.3-0.2-0.6-0.5-0.8-0.8
					c-0.2-0.3-0.3-0.7-0.3-1.1h1.8c0,0.3,0.1,0.6,0.3,0.7c0.2,0.2,0.6,0.3,1.1,0.3c0.4,0,0.7-0.1,0.9-0.3c0.2-0.1,0.2-0.3,0.2-0.5
					c0-0.3-0.4-0.5-1.1-0.7c-1.1-0.2-1.8-0.4-2-0.5c-0.7-0.3-1.1-0.9-1.1-1.6c0-0.6,0.2-1.1,0.6-1.5c0.5-0.5,1.2-0.8,2.2-0.8
					c0.8,0,1.4,0.1,1.9,0.3c0,0,0.1,0,0.1,0.1c0.3,0.2,0.6,0.4,0.8,0.7C88.7,57.5,88.8,57.9,88.8,58.3z"/>
				<path class="st0" d="M87.9,54.1C87.9,54,87.9,54,87.9,54.1c0-0.1-0.1-0.1-0.1-0.2c0,0-0.1,0-0.1,0h-0.1h-0.2v0.3h0.2
					c0,0,0,0,0.1,0c0.1,0,0.1,0,0.2,0C87.8,54.2,87.9,54.1,87.9,54.1z M88,53.9c0,0,0.1,0.1,0.1,0.2c0,0.1,0,0.2-0.1,0.2
					s-0.1,0.1-0.2,0.1c0,0,0.1,0,0.1,0.1l0.2,0.2l0.1,0.2h-0.2l-0.1-0.2c-0.1-0.1-0.1-0.2-0.2-0.2c0,0,0,0,0,0l-0.1,0h-0.1v0.5h-0.2
					v-1.1h0.4c0,0,0.1,0,0.1,0c0.1,0,0.2,0,0.2,0C87.9,53.8,88,53.8,88,53.9z"/>
				<path class="st0" d="M88.5,54.3c0-0.2,0-0.3-0.1-0.4c-0.1-0.1-0.2-0.3-0.3-0.3c-0.1-0.1-0.3-0.1-0.4-0.1c0,0,0,0,0,0
					c-0.1,0-0.3,0-0.4,0.1c-0.1,0.1-0.3,0.2-0.3,0.3c-0.1,0.1-0.1,0.3-0.1,0.4c0,0.2,0,0.3,0.1,0.4c0.1,0.1,0.2,0.2,0.3,0.3
					c0.1,0.1,0.3,0.1,0.4,0.1c0,0,0,0,0,0c0.2,0,0.3,0,0.4-0.1c0.1-0.1,0.3-0.2,0.3-0.3C88.5,54.6,88.5,54.4,88.5,54.3z M88.7,54.3
					c0,0.2,0,0.3-0.1,0.5c-0.1,0.2-0.2,0.3-0.4,0.4c-0.2,0.1-0.3,0.1-0.5,0.1c0,0,0,0,0,0c-0.2,0-0.3,0-0.5-0.1
					c-0.2-0.1-0.3-0.2-0.4-0.4c-0.1-0.2-0.1-0.3-0.1-0.5c0-0.2,0-0.4,0.1-0.5s0.2-0.3,0.4-0.4s0.3-0.1,0.5-0.1c0,0,0,0,0,0
					c0.2,0,0.3,0,0.5,0.1c0.2,0.1,0.3,0.2,0.4,0.4C88.7,53.9,88.7,54.1,88.7,54.3z"/>
				<polygon class="st0" points="78.5,45.8 83.4,54 78.5,54 75.5,54 70.8,46.2 67.2,40.2 70.8,38 73,36.7 				"/>
				<path class="st0" d="M82.1,59.7v3.4h-1.6v-0.4c-0.6,0.4-1.2,0.6-1.9,0.6c0,0,0,0,0,0c-2,0-3.6-1.6-3.6-3.6c0-2,1.6-3.6,3.6-3.6
					c0,0,0,0,0,0c0.7,0,1.4,0.2,1.9,0.6v-0.4h1.6V59.7z M80.4,60.1v-0.8c-0.2-0.9-1-1.6-1.9-1.6c0,0,0,0,0,0c-1.1,0-1.9,0.9-1.9,2
					c0,1.1,0.9,2,1.9,2c0,0,0,0,0,0C79.4,61.7,80.2,61,80.4,60.1z"/>
				<path class="st0" d="M74.3,59.7v3.4h-1.6v-0.4c-0.6,0.4-1.2,0.6-1.9,0.6c0,0,0,0,0,0c-2,0-3.6-1.6-3.6-3.6c0-2,1.6-3.6,3.6-3.6
					c0,0,0,0,0,0c0.7,0,1.4,0.2,1.9,0.6V54h1.6V59.7z M72.7,60.1v-0.8c-0.2-0.9-1-1.6-1.9-1.6c0,0,0,0,0,0c-1.1,0-1.9,0.9-1.9,2
					c0,1.1,0.9,2,1.9,2c0,0,0,0,0,0C71.7,61.7,72.5,61,72.7,60.1z"/>
				<polygon class="st0" points="70.8,50.8 72.7,54 70.8,54 64.8,54 60.3,46.7 60.2,46.4 60.3,46.3 66,42.9 				"/>
				<rect x="64.8" y="56.2" class="st0" width="1.8" height="7"/>
				<rect x="64.8" y="54" class="st0" width="1.8" height="1.6"/>
				<path class="st0" d="M63.9,59.7v3.4h-1.6v-0.4c-0.6,0.4-1.2,0.6-1.9,0.6c0,0,0,0,0,0c-2,0-3.6-1.6-3.6-3.6c0-2,1.6-3.6,3.6-3.6
					c0,0,0,0,0,0c0.7,0,1.4,0.2,1.9,0.6V54h1.6V59.7z M62.3,60.1v-0.8c-0.2-0.9-1-1.6-1.9-1.6c0,0,0,0,0,0c-1.1,0-2,0.9-2,2
					c0,1.1,0.9,2,2,2c0,0,0,0,0,0C61.3,61.7,62.1,61,62.3,60.1z"/>
				<polygon class="st0" points="60.3,51.3 62,54 60.3,54 54,54 53.1,52.5 59,49 				"/>
				<path class="st0" d="M56.1,59.7v3.4h-1.6v-0.4c-0.6,0.4-1.2,0.6-1.9,0.6c0,0,0,0,0,0c-2,0-3.5-1.6-3.5-3.6s1.6-3.6,3.5-3.6
					c0,0,0,0,0,0c0.7,0,1.4,0.2,1.9,0.6v-0.4h1.6V59.7z M54.5,60.1v-0.8c-0.2-0.9-1-1.6-1.9-1.6c0,0,0,0,0,0c-1.1,0-1.9,0.9-1.9,2
					c0,1.1,0.9,2,1.9,2c0,0,0,0,0,0C53.5,61.7,54.3,61,54.5,60.1z"/>
			</g>
		</g>
	</g>
	<g>
		<path class="st0" d="M54.3-11.2c0-0.3,0.2-0.5,1.3-0.5c0.7,0,1.5,0,2.4,0.3v-1.1c-0.5-0.1-1.2-0.3-2.4-0.3c-2,0-2.6,0.6-2.6,1.5
			c0,1.1,0.8,1.4,2.5,1.6C56.5-9.5,57-9.4,57-9.1c0,0.3-0.2,0.5-1.3,0.5c-0.8,0-1.7-0.1-2.5-0.4v1.1c0.9,0.2,1.6,0.3,2.5,0.3
			c1.5,0,2.6-0.3,2.6-1.5c0-1.2-0.8-1.3-2.5-1.5C54.9-10.7,54.3-10.8,54.3-11.2 M62.5-9.5c0,0.7-0.6,0.9-1.5,0.9
			c-1,0-1.2-0.2-1.2-0.5c0-0.3,0.3-0.4,1.2-0.5c0.7-0.1,1.4-0.3,1.6-0.4V-9.5z M63.6-9.3V-11c0-1.5-1.3-1.7-2.5-1.7
			c-0.6,0-1.4,0.1-2.1,0.3v1.1c0.8-0.2,1.6-0.3,2.1-0.3c0.5,0,1.3,0,1.3,0.4c0,0.3-0.4,0.5-1.3,0.6c-1.5,0.2-2.6,0.4-2.6,1.6
			c0,1.2,0.9,1.5,2.6,1.5C63-7.6,63.6-8.2,63.6-9.3 M66.3-7.6c0.4,0,0.9,0,1.3-0.1l-0.2-1c-0.3,0-0.8,0.1-1.2,0.1
			c-0.7,0-1.1-0.3-1.1-0.8v-3.2h-1.1v3.3C64.1-7.9,65.3-7.6,66.3-7.6L66.3-7.6z M71.7-10.1c0,0.2,0,0.4,0,0.6
			c-0.1,0.6-0.4,0.9-1.1,0.9H70c-0.7,0-1-0.3-1.1-0.9c0-0.2,0-0.4,0-0.6c0-0.2,0-0.4,0-0.6c0.1-0.6,0.4-0.9,1.1-0.9h0.6
			c0.7,0,1,0.3,1.1,0.9C71.7-10.5,71.7-10.3,71.7-10.1 M72.8-9c0.1-0.3,0.1-0.6,0.1-1v-0.1v-0.1c0-0.4,0-0.7-0.1-1
			c-0.2-1-0.9-1.5-2.2-1.5H70c-1.3,0-2,0.5-2.2,1.5c-0.1,0.3-0.1,0.6-0.1,1v0.1v0.1c0,0.3,0,0.7,0.1,1C68-8,68.7-7.5,70-7.5h0.6
			C71.9-7.5,72.6-8,72.8-9 M80.8-7.7h1.2V-10c0-0.4,0-0.8-0.1-1.1c-0.2-1-0.9-1.5-2.2-1.5h-0.3c-0.8,0-1.3,0.2-1.7,0.5
			c-0.4-0.4-0.9-0.5-1.7-0.5h-0.3c-1.3,0-2,0.5-2.2,1.5c-0.1,0.4-0.1,0.7-0.1,1.1v2.3h1.2V-10c0-0.2,0-0.5,0.1-0.7
			c0.1-0.6,0.4-0.9,1.1-0.9h0.3c0.7,0,1,0.3,1.1,0.9c0,0.2,0,0.4,0,0.7v2.3h1.2V-10c0-0.2,0-0.5,0-0.7c0.1-0.6,0.4-0.9,1.1-0.9h0.3
			c0.7,0,1,0.3,1.1,0.9c0,0.2,0.1,0.4,0.1,0.7L80.8-7.7L80.8-7.7z M86.4-10.1c0,0.2,0,0.4,0,0.6c-0.1,0.6-0.4,0.9-1.1,0.9h-0.6
			c-0.7,0-1-0.3-1.1-0.9c0-0.2,0-0.4,0-0.6c0-0.2,0-0.4,0-0.6c0.1-0.6,0.4-0.9,1.1-0.9h0.6c0.7,0,1,0.3,1.1,0.9
			C86.3-10.5,86.4-10.3,86.4-10.1 M87.4-9c0.1-0.3,0.1-0.6,0.1-1v-0.1v-0.1c0-0.4,0-0.7-0.1-1c-0.2-1-0.9-1.5-2.2-1.5h-0.6
			c-1.3,0-2.1,0.5-2.2,1.5c-0.1,0.3-0.1,0.6-0.1,1v0.1v0.1c0,0.3,0,0.7,0.1,1c0.2,1,0.9,1.5,2.2,1.5h0.6C86.6-7.5,87.3-8,87.4-9
			 M93-7.7V-10c0-0.4,0-0.8-0.1-1.1c-0.2-1-0.9-1.5-2.2-1.5h-0.5c-1.3,0-2.1,0.5-2.2,1.5c-0.1,0.3-0.1,0.7-0.1,1.1v2.3h1.2V-10
			c0-0.2,0-0.5,0-0.7c0.1-0.6,0.4-0.9,1.1-0.9h0.5c0.7,0,1,0.3,1.1,0.9c0,0.2,0,0.4,0,0.7v2.3C91.8-7.7,93-7.7,93-7.7z"/>
		<path class="st0" d="M80.1-32.5c0.9,0,1.6,0.7,1.6,1.6v14.3c0,0.9-0.7,1.6-1.6,1.6H65.7c-0.9,0-1.6-0.7-1.6-1.6v-14.3
			c0-0.9,0.7-1.6,1.6-1.6H80.1 M71.6-19.4c-0.2,0-0.4-0.1-0.6-0.2l-1.4-0.8c-0.2-0.1-0.4-0.2-0.6-0.2h-1.8c-0.2,0-0.3,0.1-0.3,0.3
			v1.9c0,0.4,0.3,0.6,0.7,0.7c3.6,0.4,7.2,0.4,10.8,0c0.4,0,0.7-0.3,0.7-0.7v-3.1c0-0.5-0.3-1-0.7-1.2L71-26.8
			c-0.2-0.1-0.3-0.3-0.3-0.5c0-0.4,0.2-0.6,0.6-0.6h2.9c0.2,0,0.4,0.1,0.6,0.2l1.4,0.8c0.2,0.1,0.4,0.2,0.6,0.2h1.8
			c0.2,0,0.3-0.1,0.3-0.3V-29c0-0.4-0.3-0.6-0.7-0.7c-3.6-0.4-7.2-0.4-10.8,0c-0.4,0-0.7,0.3-0.7,0.7v3.1c0,0.5,0.3,1,0.7,1.2
			l7.3,4.1c0.2,0.1,0.3,0.3,0.3,0.5c0,0.4-0.2,0.6-0.6,0.6H71.6z"/>
	</g>
	<text transform="matrix(1 0 0 1 -45.7778 23.9307)" class="st0" style="font-family:'Gilroy-ExtraBold'; font-size:13.4112px;">TODO</text>
	<g>
		<path class="st0" d="M6.2,15.8v1.8H4.1v6.5H2.2v-6.5H0v-1.8H6.2z"/>
		<path class="st0" d="M14.1,23.1c-0.8,0.8-1.9,1.3-3.1,1.3s-2.2-0.4-3.1-1.3c-0.8-0.8-1.3-1.9-1.3-3.1s0.4-2.3,1.3-3.1
			c0.8-0.8,1.9-1.3,3.1-1.3s2.2,0.4,3.1,1.3c0.8,0.8,1.3,1.9,1.3,3.1S14.9,22.3,14.1,23.1z M9.3,21.8c0.5,0.5,1,0.7,1.7,0.7
			s1.3-0.2,1.7-0.7s0.7-1.1,0.7-1.8s-0.2-1.3-0.7-1.8s-1-0.7-1.7-0.7s-1.3,0.2-1.7,0.7c-0.5,0.5-0.7,1.1-0.7,1.8S8.8,21.3,9.3,21.8z
			"/>
		<path class="st0" d="M20.3,15.8c1.1,0,2.1,0.4,2.9,1.2s1.2,1.8,1.2,3s-0.4,2.2-1.2,3c-0.8,0.8-1.7,1.2-2.9,1.2h-3.3v-8.4
			L20.3,15.8L20.3,15.8z M20.3,22.3c0.7,0,1.2-0.2,1.6-0.6s0.6-1,0.6-1.7s-0.2-1.3-0.6-1.7s-0.9-0.6-1.6-0.6h-1.4v4.7H20.3z"/>
		<path class="st0" d="M30.9,24.2l-0.4-1.3h-3.1l-0.4,1.3h-2.1l2.8-8.4h2.4l2.8,8.4H30.9z M27.9,21.1h2l-1-3.1L27.9,21.1z"/>
		<path class="st0" d="M36.9,24.3c-0.8,0-1.6-0.2-2.1-0.6c-0.6-0.4-1-0.9-1.2-1.5l1.7-1c0.3,0.8,0.9,1.2,1.8,1.2
			c0.8,0,1.1-0.2,1.1-0.7c0-0.3-0.1-0.4-0.4-0.6s-0.7-0.3-1.4-0.5c-0.3-0.1-0.7-0.2-0.9-0.3c-0.3-0.1-0.5-0.3-0.8-0.5
			c-0.3-0.2-0.4-0.4-0.6-0.7c-0.1-0.3-0.2-0.6-0.2-1c0-0.8,0.3-1.4,0.8-1.9c0.5-0.5,1.2-0.7,2-0.7c0.7,0,1.3,0.2,1.8,0.5
			c0.5,0.3,0.9,0.8,1.2,1.4l-1.6,0.9c-0.2-0.3-0.3-0.6-0.6-0.7s-0.5-0.2-0.9-0.2c-0.3,0-0.5,0.1-0.7,0.2c-0.2,0.1-0.2,0.3-0.2,0.5
			c0,0.2,0.1,0.4,0.3,0.5c0.2,0.1,0.6,0.3,1.2,0.5c0.3,0.1,0.6,0.2,0.8,0.3c0.2,0.1,0.4,0.2,0.7,0.3c0.3,0.1,0.5,0.3,0.6,0.5
			c0.2,0.2,0.3,0.4,0.4,0.6c0.1,0.3,0.2,0.6,0.2,0.9c0,0.8-0.3,1.4-0.9,1.9C38.6,24.1,37.8,24.3,36.9,24.3z"/>
	</g>
</g>
</svg>
