<?xml version="1.0" encoding="utf-8"?>
<!-- Generator: Adobe Illustrator 24.0.2, SVG Export Plug-In . SVG Version: 6.00 Build 0)  -->
<svg version="1.1" id="Capa_1" xmlns="http://www.w3.org/2000/svg" xmlns:xlink="http://www.w3.org/1999/xlink" x="0px" y="0px"
	 viewBox="0 0 61 61" style="enable-background:new 0 0 61 61;" xml:space="preserve">
<style type="text/css">
	.st0{display:none;}
	.st1{fill:#FFFFFF;}
</style>
<path class="st0" d="M86.1,81.3L68.2,63.4c9-11.7,8.1-28.6-2.7-39.3c-5.9-5.9-13.5-8.8-21.2-8.8S29,18.2,23.1,24.1
	c-11.7,11.7-11.7,30.7,0,42.4c5.9,5.9,13.5,8.8,21.2,8.8c6.4,0,12.8-2,18.1-6.1l18,17.8c0.8,0.8,1.8,1.2,2.9,1.2
	c1,0,2.1-0.4,2.9-1.2C87.7,85.5,87.7,82.9,86.1,81.3z M44.3,67.2c-5.9,0-11.3-2.3-15.5-6.4c-8.5-8.5-8.5-22.4,0-31
	c4.1-4.1,9.6-6.4,15.5-6.4s11.3,2.3,15.5,6.4s6.4,9.6,6.4,15.5S64,56.6,59.8,60.8S50.2,67.2,44.3,67.2z"/>
<path class="st1" d="M59.6,55L47.5,42.9c8.9-11.5,6.8-28-4.6-36.9S14.9-0.9,6,10.6s-6.8,28,4.6,36.9c9.5,7.4,22.8,7.4,32.3,0
	L55,59.6c1.3,1.3,3.4,1.2,4.6-0.1C60.8,58.3,60.8,56.3,59.6,55L59.6,55z M26.8,46.5C16,46.5,7.2,37.7,7.2,26.8S16,7.2,26.8,7.2
	S46.5,16,46.5,26.8C46.5,37.7,37.7,46.5,26.8,46.5z"/>
</svg>
