<?xml version="1.0" encoding="utf-8"?>
<!-- Generator: Adobe Illustrator 24.0.2, SVG Export Plug-In . SVG Version: 6.00 Build 0)  -->
<svg version="1.1" id="Layer_1" xmlns="http://www.w3.org/2000/svg" xmlns:xlink="http://www.w3.org/1999/xlink" x="0px" y="0px"
	 viewBox="0 0 20 20" style="enable-background:new 0 0 20 20;" xml:space="preserve">
<g>
	<path d="M10,19.5c-5.24,0-9.5-4.26-9.5-9.5c0-5.24,4.26-9.5,9.5-9.5c5.24,0,9.5,4.26,9.5,9.5C19.5,15.24,15.24,19.5,10,19.5
		 M10,1.3c-4.79,0-8.7,3.9-8.7,8.7c0,4.79,3.9,8.69,8.7,8.69c4.8,0,8.7-3.9,8.7-8.69C18.7,5.2,14.8,1.3,10,1.3"/>
	<path d="M12.84,10.57h-1.86v6.62H8.23v-6.62H6.92V8.24h1.31V6.72c0-1.08,0.51-2.78,2.78-2.78l2.03,0.01v2.27h-1.48
		c-0.24,0-0.59,0.12-0.59,0.64v1.37h2.1L12.84,10.57"/>
</g>
</svg>
