<?xml version="1.0" encoding="utf-8"?>
<!-- Generator: Adobe Illustrator 24.0.2, SVG Export Plug-In . SVG Version: 6.00 Build 0)  -->
<svg version="1.1" id="Layer_1" xmlns="http://www.w3.org/2000/svg" xmlns:xlink="http://www.w3.org/1999/xlink" x="0px" y="0px"
	 viewBox="0 0 20 20" style="enable-background:new 0 0 20 20;" xml:space="preserve">
<g>
	<path d="M10,19.5c-5.24,0-9.5-4.26-9.5-9.5c0-5.24,4.26-9.5,9.5-9.5c5.24,0,9.5,4.26,9.5,9.5C19.5,15.24,15.24,19.5,10,19.5
		 M10,1.3c-4.8,0-8.69,3.9-8.69,8.7c0,4.79,3.9,8.69,8.69,8.69c4.79,0,8.69-3.9,8.69-8.69C18.7,5.2,14.8,1.3,10,1.3"/>
	<path d="M6.17,4.85h7.66c0.73,0,1.33,0.59,1.33,1.32v7.66c0,0.73-0.6,1.32-1.33,1.32H6.17c-0.72,0-1.32-0.6-1.32-1.32V6.17
		C4.85,5.44,5.45,4.85,6.17,4.85 M12.36,5.99c-0.26,0-0.47,0.21-0.47,0.46v1.11c0,0.26,0.21,0.47,0.47,0.47h1.16
		c0.25,0,0.47-0.2,0.47-0.47V6.46c0-0.26-0.21-0.46-0.47-0.46H12.36z M13.99,9.2h-0.91c0.09,0.28,0.14,0.58,0.14,0.88
		c0,1.72-1.44,3.11-3.21,3.11c-1.77,0-3.2-1.39-3.2-3.11c0-0.31,0.05-0.6,0.13-0.88H5.99v4.36c0,0.23,0.19,0.41,0.41,0.41h7.18
		c0.23,0,0.41-0.18,0.41-0.41V9.2z M10.01,7.97c-1.14,0-2.06,0.9-2.06,2c0,1.11,0.93,2.01,2.06,2.01c1.15,0,2.07-0.9,2.07-2.01
		C12.08,8.87,11.16,7.97,10.01,7.97"/>
</g>
</svg>
